<?xml version="1.0" encoding="utf-8"?>
<!-- Generator: Adobe Illustrator 24.3.2, SVG Export Plug-In . SVG Version: 6.00 Build 0)  -->
<svg version="1.1" id="Слой_1" xmlns="http://www.w3.org/2000/svg" xmlns:xlink="http://www.w3.org/1999/xlink" x="0px" y="0px"
	 viewBox="0 0 451 127" style="enable-background:new 0 0 451 127;" xml:space="preserve">
<style type="text/css">
	.st0{fill-rule:evenodd;clip-rule:evenodd;fill:#FFFFFF;}
	.st1{fill:#FFFFFF;}
	.st2{fill:#0F0F0F;}
</style>
<path class="st0" d="M21.8,125.8h-21l18.7-96.1h40.3c12.1,0,21,3.2,26.5,9.5c5.6,6.4,7.2,15.2,5,26.7c-0.9,4.7-2.5,9-4.6,12.9
	c-2.2,3.9-5,7.5-8.5,10.7c-4.2,3.9-8.8,6.7-13.9,8.4c-5.1,1.7-11.6,2.5-19.6,2.5h-18L21.8,125.8z M67.7,49.2
	c-2.7-2.9-8-4.4-15.9-4.4H37.5l-7.8,40.3h12.7c8.4,0,14.7-1.6,18.9-4.8c4.1-3.2,6.9-8.5,8.4-15.9C71,57.2,70.3,52.2,67.7,49.2z"/>
<path class="st1" d="M106.6,4.1h20.8l-5,25.6h18.5c11.7,0,19.7,2,24.1,6.1c4.4,4.1,5.8,10.7,4,19.8l-8.7,44.8h-21.1l8.3-42.6
	c0.9-4.8,0.6-8.1-1-9.9c-1.6-1.8-5.1-2.6-10.4-2.6h-16.6l-10.7,55.1H87.9L106.6,4.1z"/>
<path class="st0" d="M185.2,125.8h-21l18.7-96.1h40.4c12.1,0,21,3.2,26.5,9.5c5.6,6.4,7.2,15.2,5,26.7c-0.9,4.7-2.5,9-4.6,12.9
	c-2.2,3.9-5,7.5-8.5,10.7c-4.2,3.9-8.8,6.7-13.9,8.4c-5.1,1.7-11.6,2.5-19.6,2.5h-18L185.2,125.8z M231.2,49.2
	c-2.7-2.9-8-4.4-15.9-4.4h-14.4l-7.8,40.3h12.7c8.4,0,14.7-1.6,18.9-4.8c4.1-3.2,6.9-8.5,8.4-15.9C234.4,57.2,233.8,52.2,231.2,49.2
	z"/>
<path class="st1" d="M317.5,48.5c-5.7-13.6-10.5-25.4-5.8-33.6c1.8-2.5,3.8-3.8,6-3.8c4.5,0,8.6,4.9,8.6,4.9l5.7,6.9l-3.6-8.2
	c-0.2-0.3-6.3-14.2-17.2-14.2c-3.8,0-7.8,1.7-11.7,5.1l-0.1,0.1c-9.5,11-0.2,31.8,8.1,50.1l6.1,14.2c0,0,0.6,0.5,0,0
	c2.8,7.3,5.6,16,3.9,22.4c-2.6,10-11.5,16.8-11.6,16.9l-5.7,4.4l6.9-2.2c0.7-0.2,16-5.2,19.7-18.5c2.3-10.9-0.6-21.8-3.5-30.2
	c0.4-0.3-0.4,0.3,0,0L318,49.1"/>
<path class="st2" d="M334.4,9.9l-7.1-7.8l5.1,9.3c0.1,0.1,6.3,11.7-1.6,25.2c-2.9,4.2-7.4,8.4-13.1,12.6l-10.3,6.7
	c-0.1-0.2-0.1-0.1,0,0l-0.4,0.3h0.1H307c-11.5,6.6-22.2,10.6-22.4,10.7c-15.9,7.1-25.9,18.1-27.3,30.3c-1.1,9.2,3.2,18.2,11.6,24.5
	l0.1,0.1c5.3,3.2,11,4.8,17,4.8c15.7,0,28-10.9,28.5-11.4l7.7-6.9l-9.1,4.8c-0.1,0-7.7,4-15.6,4c-7.1,0-12.1-3.1-15.1-9.4
	c-3.8-13.4,9.5-22.6,24.8-33.2c2-1.4,4.1-2.9,6.2-4.3l0.1-0.1l9.1-6.8c0.1-0.2,0.4-0.4,0.4-0.4c7.5-6.2,17.4-15.9,19.7-29.5
	C344.5,21.1,334.8,10.4,334.4,9.9z"/>
<path class="st1" d="M345.4,83h19.5l-3.5,17.7h-19.5L345.4,83z"/>
<path class="st1" d="M432.8,67.2c13.2-10.1,18.1-17.8,18.1-28.6c0-14.2-10.7-23.7-26.7-23.7c-11.4,0-21.4,5.2-29.5,15.3l-0.5,0.7
	l11.4,13l0.8-0.8c6.7-7.1,11.7-9.9,17.2-9.9c5.4,0,8.4,2.7,8.4,7.5c0,4.6-3.1,8.8-10.6,14.5l-39.2,29.6l0,0l-3.1,15.7h61.4l3.4-17.7
	h-31.8L432.8,67.2z"/>
</svg>
