<?xml version="1.0" encoding="utf-8"?>
<!-- Generator: Adobe Illustrator 24.3.0, SVG Export Plug-In . SVG Version: 6.00 Build 0)  -->
<svg version="1.1" id="Слой_2_1_" xmlns="http://www.w3.org/2000/svg" xmlns:xlink="http://www.w3.org/1999/xlink" x="0px"
	 y="0px" viewBox="0 0 790 450" enable-background="new 0 0 790 450" xml:space="preserve">
<rect x="120.998627" y="101.426544" opacity="0.6" fill="#979797" width="462.952148" height="12"/>
<rect x="120.998627" y="113.426544" fill="#505C90" width="596.449707" height="12"/>
<rect x="120.998627" y="139.789673" opacity="0.6" fill="#979797" width="322.576111" height="12"/>
<rect x="120.998627" y="151.789673" fill="#505C90" width="380.762604" height="12"/>
<rect x="120.998627" y="178.152802" opacity="0.6" fill="#979797" width="439.627045" height="12"/>
<rect x="120.998627" y="190.152802" fill="#505C90" width="621.895447" height="12"/>
<rect x="120.998627" y="216.51593" opacity="0.6" fill="#979797" width="455.334808" height="12"/>
<rect x="120.998627" y="228.51593" fill="#505C90" width="630.694641" height="12"/>
<rect x="120.998627" y="254.879059" opacity="0.6" fill="#979797" width="298.224854" height="12"/>
<rect x="120.998627" y="266.879059" fill="#505C90" width="452.777771" height="12"/>
<rect x="120.998627" y="293.242188" opacity="0.6" fill="#979797" width="283.924103" height="12"/>
<rect x="120.998627" y="305.242188" fill="#505C90" width="326.710419" height="12"/>
<rect x="120.998627" y="331.605316" opacity="0.6" fill="#979797" width="212.2854" height="12"/>
<rect x="120.998627" y="343.605316" fill="#505C90" width="224.712296" height="12"/>
<rect x="120.998627" y="369.968445" opacity="0.6" fill="#979797" width="215.699677" height="12"/>
<rect x="120.998627" y="381.968445" fill="#505C90" width="250.894989" height="12"/>
<rect x="120.998627" y="408.331573" opacity="0.6" fill="#979797" width="195.001694" height="12"/>
<rect x="120.998627" y="420.331573" fill="#505C90" width="215.699677" height="12"/>
<g opacity="0.7">
	<path fill="#27282C" d="M38.618164,116.614258h-0.109375v1.175781h-1.121094v-10.294922h1.175781v4.087891h0.109375
		c0.40332-0.792969,1.298828-1.291992,2.310547-1.291992c1.873047,0,3.089844,1.49707,3.089844,3.814453
		c0,2.303711-1.223633,3.814453-3.089844,3.814453C39.958008,117.919922,39.083008,117.43457,38.618164,116.614258z
		 M38.536133,114.105469c0,1.702148,0.833984,2.754883,2.173828,2.754883c1.34668,0,2.146484-1.032227,2.146484-2.754883
		s-0.799805-2.754883-2.146484-2.754883C39.370117,111.350586,38.536133,112.40332,38.536133,114.105469z"/>
	<path fill="#27282C" d="M51.975586,115.882812c-0.341797,1.257812-1.490234,2.037109-3.103516,2.037109
		c-2.043945,0-3.322266-1.476562-3.322266-3.807617c0-2.317383,1.298828-3.821289,3.322266-3.821289
		c1.989258,0,3.199219,1.415039,3.199219,3.705078v0.451172h-5.297852v0.054688c0.061523,1.456055,0.875,2.378906,2.125977,2.378906
		c0.950195,0,1.592773-0.348633,1.900391-0.998047H51.975586z M46.773438,113.49707h4.060547
		c-0.027344-1.305664-0.806641-2.166992-1.975586-2.166992C47.682617,111.330078,46.862305,112.191406,46.773438,113.49707z"/>
	<path fill="#27282C" d="M53.916992,110.420898h1.121094v1.162109h0.109375c0.369141-0.813477,1.086914-1.291992,2.214844-1.291992
		c1.654297,0,2.577148,0.977539,2.577148,2.727539v4.771484h-1.175781v-4.484375c0-1.326172-0.560547-1.955078-1.736328-1.955078
		s-1.93457,0.786133-1.93457,2.078125v4.361328h-1.175781V110.420898z"/>
	<path fill="#27282C" d="M66.994141,112.676758c-0.191406-0.731445-0.84082-1.326172-1.900391-1.326172
		c-1.326172,0-2.160156,1.05957-2.160156,2.727539c0,1.702148,0.847656,2.782227,2.160156,2.782227
		c0.991211,0,1.681641-0.458008,1.900391-1.291992h1.189453c-0.211914,1.353516-1.3125,2.351562-3.083008,2.351562
		c-2.064453,0-3.383789-1.49707-3.383789-3.841797c0-2.296875,1.3125-3.787109,3.376953-3.787109
		c1.791016,0,2.884766,1.073242,3.089844,2.385742H66.994141z"/>
	<path fill="#27282C" d="M69.988281,107.495117h1.175781v4.087891h0.109375c0.369141-0.813477,1.141602-1.291992,2.269531-1.291992
		c1.558594,0,2.542969,0.998047,2.542969,2.727539v4.771484h-1.175781v-4.484375c0-1.305664-0.587891-1.955078-1.702148-1.955078
		c-1.319336,0-2.043945,0.833984-2.043945,2.078125v4.361328h-1.175781V107.495117z"/>
	<path fill="#27282C" d="M78.314453,116.969727c0-0.492188,0.40332-0.888672,0.888672-0.888672
		c0.492188,0,0.888672,0.396484,0.888672,0.888672c0,0.485352-0.396484,0.888672-0.888672,0.888672
		C78.717773,117.858398,78.314453,117.455078,78.314453,116.969727z"/>
	<path fill="#27282C" d="M89.074219,114.105469c0,2.303711-1.223633,3.814453-3.09668,3.814453
		c-1.052734,0-1.900391-0.458008-2.303711-1.237305h-0.109375v3.568359h-1.175781v-9.830078h1.121094v1.230469h0.109375
		c0.47168-0.847656,1.353516-1.360352,2.358398-1.360352C87.857422,110.291016,89.074219,111.788086,89.074219,114.105469z
		 M87.857422,114.105469c0-1.722656-0.806641-2.754883-2.15332-2.754883c-1.333008,0-2.173828,1.05957-2.173828,2.754883
		c0,1.688477,0.84082,2.754883,2.166992,2.754883C87.050781,116.860352,87.857422,115.828125,87.857422,114.105469z"/>
	<path fill="#27282C" d="M90.988281,107.495117h1.175781v4.087891h0.109375c0.369141-0.813477,1.141602-1.291992,2.269531-1.291992
		c1.558594,0,2.542969,0.998047,2.542969,2.727539v4.771484h-1.175781v-4.484375c0-1.305664-0.587891-1.955078-1.702148-1.955078
		c-1.319336,0-2.043945,0.833984-2.043945,2.078125v4.361328h-1.175781V107.495117z"/>
	<path fill="#27282C" d="M105.917969,114.105469c0,2.303711-1.223633,3.814453-3.09668,3.814453
		c-1.052734,0-1.900391-0.458008-2.303711-1.237305h-0.109375v3.568359h-1.175781v-9.830078h1.121094v1.230469h0.109375
		c0.47168-0.847656,1.353516-1.360352,2.358398-1.360352C104.701172,110.291016,105.917969,111.788086,105.917969,114.105469z
		 M104.701172,114.105469c0-1.722656-0.806641-2.754883-2.15332-2.754883c-1.333008,0-2.173828,1.05957-2.173828,2.754883
		c0,1.688477,0.84082,2.754883,2.166992,2.754883C103.894531,116.860352,104.701172,115.828125,104.701172,114.105469z"/>
	<path fill="#27282C" d="M2.572266,148.420898h1.121094v1.162109h0.109375c0.334961-0.820312,1.073242-1.291992,2.057617-1.291992
		c0.998047,0,1.695312,0.526367,2.037109,1.291992h0.109375c0.396484-0.779297,1.237305-1.291992,2.255859-1.291992
		c1.503906,0,2.344727,0.861328,2.344727,2.40625v5.092773h-1.175781v-4.819336c0-1.086914-0.512695-1.620117-1.551758-1.620117
		c-1.025391,0-1.708984,0.765625-1.708984,1.702148v4.737305H6.995117v-5.003906c0-0.875-0.608398-1.435547-1.538086-1.435547
		c-0.963867,0-1.708984,0.833984-1.708984,1.873047v4.566406H2.572266V148.420898z"/>
	<path fill="#27282C" d="M14.548828,146.178711c0-0.451172,0.369141-0.820312,0.820312-0.820312
		s0.820312,0.369141,0.820312,0.820312s-0.369141,0.820312-0.820312,0.820312S14.548828,146.629883,14.548828,146.178711z
		 M14.78125,148.420898h1.175781v7.369141H14.78125V148.420898z"/>
	<path fill="#27282C" d="M23.107422,150.676758c-0.191406-0.731445-0.84082-1.326172-1.900391-1.326172
		c-1.326172,0-2.160156,1.05957-2.160156,2.727539c0,1.702148,0.847656,2.782227,2.160156,2.782227
		c0.991211,0,1.681641-0.458008,1.900391-1.291992h1.189453c-0.211914,1.353516-1.3125,2.351562-3.083008,2.351562
		c-2.064453,0-3.383789-1.49707-3.383789-3.841797c0-2.296875,1.3125-3.787109,3.376953-3.787109
		c1.791016,0,2.884766,1.073242,3.089844,2.385742H23.107422z"/>
	<path fill="#27282C" d="M26.033203,148.420898h1.121094v1.09375h0.109375c0.21875-0.717773,1.066406-1.223633,2.043945-1.223633
		c0.191406,0,0.4375,0.013672,0.587891,0.03418v1.175781c-0.095703-0.027344-0.519531-0.068359-0.751953-0.068359
		c-1.121094,0-1.93457,0.751953-1.93457,1.791016v4.566406h-1.175781V148.420898z"/>
	<path fill="#27282C" d="M30.791016,152.105469c0-2.37207,1.298828-3.814453,3.397461-3.814453s3.397461,1.442383,3.397461,3.814453
		c0,2.365234-1.298828,3.814453-3.397461,3.814453S30.791016,154.470703,30.791016,152.105469z M36.369141,152.105469
		c0-1.75-0.786133-2.754883-2.180664-2.754883s-2.180664,1.004883-2.180664,2.754883
		c0,1.743164,0.786133,2.754883,2.180664,2.754883S36.369141,153.848633,36.369141,152.105469z"/>
	<path fill="#27282C" d="M38.050781,157.396484v-0.875h6.398438v0.875H38.050781z"/>
	<path fill="#27282C" d="M46.787109,154.614258h-0.109375v1.175781h-1.121094v-10.294922h1.175781v4.087891h0.109375
		c0.40332-0.792969,1.298828-1.291992,2.310547-1.291992c1.873047,0,3.089844,1.49707,3.089844,3.814453
		c0,2.303711-1.223633,3.814453-3.089844,3.814453C48.126953,155.919922,47.251953,155.43457,46.787109,154.614258z
		 M46.705078,152.105469c0,1.702148,0.833984,2.754883,2.173828,2.754883c1.34668,0,2.146484-1.032227,2.146484-2.754883
		s-0.799805-2.754883-2.146484-2.754883C47.539062,149.350586,46.705078,150.40332,46.705078,152.105469z"/>
	<path fill="#27282C" d="M60.144531,153.882812c-0.341797,1.257812-1.490234,2.037109-3.103516,2.037109
		c-2.043945,0-3.322266-1.476562-3.322266-3.807617c0-2.317383,1.298828-3.821289,3.322266-3.821289
		c1.989258,0,3.199219,1.415039,3.199219,3.705078v0.451172h-5.297852v0.054688c0.061523,1.456055,0.875,2.378906,2.125977,2.378906
		c0.950195,0,1.592773-0.348633,1.900391-0.998047H60.144531z M54.942383,151.49707h4.060547
		c-0.027344-1.305664-0.806641-2.166992-1.975586-2.166992C55.851562,149.330078,55.03125,150.191406,54.942383,151.49707z"/>
	<path fill="#27282C" d="M66.994141,150.676758c-0.191406-0.731445-0.84082-1.326172-1.900391-1.326172
		c-1.326172,0-2.160156,1.05957-2.160156,2.727539c0,1.702148,0.847656,2.782227,2.160156,2.782227
		c0.991211,0,1.681641-0.458008,1.900391-1.291992h1.189453c-0.211914,1.353516-1.3125,2.351562-3.083008,2.351562
		c-2.064453,0-3.383789-1.49707-3.383789-3.841797c0-2.296875,1.3125-3.787109,3.376953-3.787109
		c1.791016,0,2.884766,1.073242,3.089844,2.385742H66.994141z"/>
	<path fill="#27282C" d="M69.988281,145.495117h1.175781v4.087891h0.109375c0.369141-0.813477,1.141602-1.291992,2.269531-1.291992
		c1.558594,0,2.542969,0.998047,2.542969,2.727539v4.771484h-1.175781v-4.484375c0-1.305664-0.587891-1.955078-1.702148-1.955078
		c-1.319336,0-2.043945,0.833984-2.043945,2.078125v4.361328h-1.175781V145.495117z"/>
	<path fill="#27282C" d="M78.314453,154.969727c0-0.492188,0.40332-0.888672,0.888672-0.888672
		c0.492188,0,0.888672,0.396484,0.888672,0.888672c0,0.485352-0.396484,0.888672-0.888672,0.888672
		C78.717773,155.858398,78.314453,155.455078,78.314453,154.969727z"/>
	<path fill="#27282C" d="M89.074219,152.105469c0,2.303711-1.223633,3.814453-3.09668,3.814453
		c-1.052734,0-1.900391-0.458008-2.303711-1.237305h-0.109375v3.568359h-1.175781v-9.830078h1.121094v1.230469h0.109375
		c0.47168-0.847656,1.353516-1.360352,2.358398-1.360352C87.857422,148.291016,89.074219,149.788086,89.074219,152.105469z
		 M87.857422,152.105469c0-1.722656-0.806641-2.754883-2.15332-2.754883c-1.333008,0-2.173828,1.05957-2.173828,2.754883
		c0,1.688477,0.84082,2.754883,2.166992,2.754883C87.050781,154.860352,87.857422,153.828125,87.857422,152.105469z"/>
	<path fill="#27282C" d="M90.988281,145.495117h1.175781v4.087891h0.109375c0.369141-0.813477,1.141602-1.291992,2.269531-1.291992
		c1.558594,0,2.542969,0.998047,2.542969,2.727539v4.771484h-1.175781v-4.484375c0-1.305664-0.587891-1.955078-1.702148-1.955078
		c-1.319336,0-2.043945,0.833984-2.043945,2.078125v4.361328h-1.175781V145.495117z"/>
	<path fill="#27282C" d="M105.917969,152.105469c0,2.303711-1.223633,3.814453-3.09668,3.814453
		c-1.052734,0-1.900391-0.458008-2.303711-1.237305h-0.109375v3.568359h-1.175781v-9.830078h1.121094v1.230469h0.109375
		c0.47168-0.847656,1.353516-1.360352,2.358398-1.360352C104.701172,148.291016,105.917969,149.788086,105.917969,152.105469z
		 M104.701172,152.105469c0-1.722656-0.806641-2.754883-2.15332-2.754883c-1.333008,0-2.173828,1.05957-2.173828,2.754883
		c0,1.688477,0.84082,2.754883,2.166992,2.754883C103.894531,154.860352,104.701172,153.828125,104.701172,152.105469z"/>
	<path fill="#27282C" d="M57.847656,193.790039v-9.864258h1.196289l5.352539,7.676758h0.109375v-7.676758h1.216797v9.864258
		h-1.196289l-5.352539-7.649414h-0.109375v7.649414H57.847656z"/>
	<path fill="#27282C" d="M68.040039,190.378906v-1.114258h4.484375v1.114258H68.040039z"/>
	<path fill="#27282C" d="M75.990234,192.614258h-0.109375v1.175781h-1.121094v-10.294922h1.175781v4.087891h0.109375
		c0.40332-0.792969,1.298828-1.291992,2.310547-1.291992c1.873047,0,3.089844,1.49707,3.089844,3.814453
		c0,2.303711-1.223633,3.814453-3.089844,3.814453C77.330078,193.919922,76.455078,193.43457,75.990234,192.614258z
		 M75.908203,190.105469c0,1.702148,0.833984,2.754883,2.173828,2.754883c1.34668,0,2.146484-1.032227,2.146484-2.754883
		s-0.799805-2.754883-2.146484-2.754883C76.742188,187.350586,75.908203,188.40332,75.908203,190.105469z"/>
	<path fill="#27282C" d="M82.921875,190.105469c0-2.37207,1.298828-3.814453,3.397461-3.814453s3.397461,1.442383,3.397461,3.814453
		c0,2.365234-1.298828,3.814453-3.397461,3.814453S82.921875,192.470703,82.921875,190.105469z M88.5,190.105469
		c0-1.75-0.786133-2.754883-2.180664-2.754883s-2.180664,1.004883-2.180664,2.754883
		c0,1.743164,0.786133,2.754883,2.180664,2.754883S88.5,191.848633,88.5,190.105469z"/>
	<path fill="#27282C" d="M91.193359,190.105469c0-2.310547,1.223633-3.814453,3.09668-3.814453
		c1.025391,0,1.893555,0.485352,2.310547,1.291992h0.102539v-4.087891h1.175781v10.294922h-1.121094v-1.175781h-0.109375
		c-0.464844,0.820312-1.339844,1.305664-2.358398,1.305664C92.40332,193.919922,91.193359,192.422852,91.193359,190.105469z
		 M92.410156,190.105469c0,1.722656,0.806641,2.754883,2.15332,2.754883c1.339844,0,2.166992-1.052734,2.166992-2.754883
		c0-1.688477-0.833984-2.754883-2.166992-2.754883C93.223633,187.350586,92.410156,188.389648,92.410156,190.105469z"/>
	<path fill="#27282C" d="M100.264648,196.415039v-1.004883c0.143555,0.027344,0.328125,0.03418,0.492188,0.03418
		c0.676758,0,1.045898-0.321289,1.353516-1.209961l0.136719-0.4375l-2.727539-7.375977h1.271484l2.023438,6.063477h0.109375
		l2.016602-6.063477h1.250977l-2.87793,7.820312c-0.628906,1.708984-1.216797,2.214844-2.522461,2.214844
		C100.633789,196.456055,100.428711,196.442383,100.264648,196.415039z"/>
	<path fill="#27282C" d="M41.147461,231.789062v-7.532715H41.06543l-3.110352,7.532715h-1.039062l-3.110352-7.532715h-0.082031
		v7.532715h-1.148438v-9.86377h1.428711l3.376953,8.22998h0.109375l3.376953-8.22998h1.428711v9.86377H41.147461z"/>
	<path fill="#27282C" d="M44.223633,229.724609c0-1.319336,0.970703-2.078125,2.686523-2.180664l2.125977-0.129883v-0.669922
		c0-0.908691-0.567383-1.407715-1.667969-1.407715c-0.881836,0-1.49707,0.334961-1.661133,0.915527h-1.189453
		c0.157227-1.182129,1.319336-1.961426,2.891602-1.961426c1.797852,0,2.802734,0.922852,2.802734,2.453613v5.044922H49.09082
		v-1.086914h-0.109375c-0.478516,0.786133-1.285156,1.216797-2.269531,1.216797
		C45.283203,231.918945,44.223633,231.071289,44.223633,229.724609z M49.036133,229.041016v-0.676758l-1.982422,0.129883
		c-1.121094,0.075195-1.613281,0.464844-1.613281,1.203125c0,0.751953,0.635742,1.189453,1.490234,1.189453
		C48.140625,230.886719,49.036133,230.09375,49.036133,229.041016z"/>
	<path fill="#27282C" d="M52.385742,224.42041h1.121094v1.162109h0.109375c0.369141-0.813477,1.086914-1.291992,2.214844-1.291992
		c1.654297,0,2.577148,0.977539,2.577148,2.727051v4.771484h-1.175781v-4.484375c0-1.325684-0.560547-1.95459-1.736328-1.95459
		s-1.93457,0.785645-1.93457,2.077637v4.361328h-1.175781V224.42041z"/>
	<path fill="#27282C" d="M60.185547,228.104492c0-2.310059,1.223633-3.813965,3.09668-3.813965
		c1.025391,0,1.893555,0.485352,2.310547,1.291992h0.102539v-4.087891h1.175781v10.294434H65.75v-1.175781h-0.109375
		c-0.464844,0.820312-1.339844,1.305664-2.358398,1.305664C61.395508,231.918945,60.185547,230.421875,60.185547,228.104492z
		 M61.402344,228.104492c0,1.722656,0.806641,2.754883,2.15332,2.754883c1.339844,0,2.166992-1.052734,2.166992-2.754883
		c0-1.688477-0.833984-2.754395-2.166992-2.754395C62.21582,225.350098,61.402344,226.388672,61.402344,228.104492z"/>
	<path fill="#27282C" d="M75.210938,229.881836c-0.341797,1.257812-1.490234,2.037109-3.103516,2.037109
		c-2.043945,0-3.322266-1.476562-3.322266-3.807617c0-2.316895,1.298828-3.820801,3.322266-3.820801
		c1.989258,0,3.199219,1.415039,3.199219,3.70459v0.451172h-5.297852v0.054688c0.061523,1.456055,0.875,2.378906,2.125977,2.378906
		c0.950195,0,1.592773-0.348633,1.900391-0.998047H75.210938z M70.008789,227.496094h4.060547
		c-0.027344-1.305664-0.806641-2.166504-1.975586-2.166504C70.917969,225.32959,70.097656,226.19043,70.008789,227.496094z"/>
	<path fill="#27282C" d="M77.220703,221.494629h1.175781v10.294434h-1.175781V221.494629z"/>
	<path fill="#27282C" d="M81.978516,230.613281h-0.109375v1.175781h-1.121094v-10.294434h1.175781v4.087891h0.109375
		c0.40332-0.792969,1.298828-1.291992,2.310547-1.291992c1.873047,0,3.089844,1.49707,3.089844,3.813965
		c0,2.303711-1.223633,3.814453-3.089844,3.814453C83.318359,231.918945,82.443359,231.433594,81.978516,230.613281z
		 M81.896484,228.104492c0,1.702148,0.833984,2.754883,2.173828,2.754883c1.34668,0,2.146484-1.032227,2.146484-2.754883
		s-0.799805-2.754395-2.146484-2.754395C82.730469,225.350098,81.896484,226.402344,81.896484,228.104492z"/>
	<path fill="#27282C" d="M89.279297,224.42041h1.121094v1.09375h0.109375c0.21875-0.717773,1.066406-1.223633,2.043945-1.223633
		c0.191406,0,0.4375,0.013672,0.587891,0.03418v1.175781c-0.095703-0.027344-0.519531-0.068359-0.751953-0.068359
		c-1.121094,0-1.93457,0.751465-1.93457,1.790527v4.566406h-1.175781V224.42041z"/>
	<path fill="#27282C" d="M94.037109,228.104492c0-2.371582,1.298828-3.813965,3.397461-3.813965
		s3.397461,1.442383,3.397461,3.813965c0,2.365234-1.298828,3.814453-3.397461,3.814453S94.037109,230.469727,94.037109,228.104492z
		 M99.615234,228.104492c0-1.75-0.786133-2.754395-2.180664-2.754395s-2.180664,1.004395-2.180664,2.754395
		c0,1.743164,0.786133,2.754883,2.180664,2.754883S99.615234,229.847656,99.615234,228.104492z"/>
	<path fill="#27282C" d="M104.345703,222.513184v1.907227h1.640625v0.984375h-1.640625v4.169434
		c0,0.868164,0.328125,1.237305,1.09375,1.237305c0.211914,0,0.328125-0.006836,0.546875-0.027344v0.991211
		c-0.232422,0.041016-0.458008,0.068359-0.69043,0.068359c-1.517578,0-2.125977-0.560547-2.125977-1.96875v-4.470215h-1.189453
		v-0.984375h1.189453v-1.907227H104.345703z"/>
	<path fill="#27282C" d="M34.660156,259.924805c1.866211,0,3.158203,1.3125,3.158203,3.192383
		c0,1.845703-1.319336,3.151367-3.171875,3.151367h-2.481445v3.520508H30.93457v-9.864258H34.660156z M32.165039,265.174805
		h2.173828c1.401367,0,2.214844-0.751953,2.214844-2.057617c0-1.353516-0.786133-2.098633-2.214844-2.098633h-2.173828V265.174805z"
		/>
	<path fill="#27282C" d="M46.472656,269.789062v-4.491211h-5.414062v4.491211h-1.230469v-9.864258h1.230469v4.265625h5.414062
		v-4.265625h1.230469v9.864258H46.472656z"/>
	<path fill="#27282C" d="M53.944336,259.924805c1.866211,0,3.158203,1.3125,3.158203,3.192383
		c0,1.845703-1.319336,3.151367-3.171875,3.151367h-2.481445v3.520508H50.21875v-9.864258H53.944336z M51.449219,265.174805
		h2.173828c1.401367,0,2.214844-0.751953,2.214844-2.057617c0-1.353516-0.786133-2.098633-2.214844-2.098633h-2.173828V265.174805z"
		/>
	<path fill="#27282C" d="M58.914062,266.37793v-1.114258h4.484375v1.114258H58.914062z"/>
	<path fill="#27282C" d="M69.441406,259.924805c1.866211,0,3.158203,1.3125,3.158203,3.192383
		c0,1.845703-1.319336,3.151367-3.171875,3.151367h-2.481445v3.520508H65.71582v-9.864258H69.441406z M66.946289,265.174805
		h2.173828c1.401367,0,2.214844-0.751953,2.214844-2.057617c0-1.353516-0.786133-2.098633-2.214844-2.098633h-2.173828V265.174805z"
		/>
	<path fill="#27282C" d="M73.748047,267.724609c0-1.319336,0.970703-2.078125,2.686523-2.180664l2.125977-0.129883v-0.669922
		c0-0.90918-0.567383-1.408203-1.667969-1.408203c-0.881836,0-1.49707,0.334961-1.661133,0.916016h-1.189453
		c0.157227-1.182617,1.319336-1.961914,2.891602-1.961914c1.797852,0,2.802734,0.922852,2.802734,2.454102v5.044922h-1.121094
		v-1.086914h-0.109375c-0.478516,0.786133-1.285156,1.216797-2.269531,1.216797
		C74.807617,269.918945,73.748047,269.071289,73.748047,267.724609z M78.560547,267.041016v-0.676758l-1.982422,0.129883
		c-1.121094,0.075195-1.613281,0.464844-1.613281,1.203125c0,0.751953,0.635742,1.189453,1.490234,1.189453
		C77.665039,268.886719,78.560547,268.09375,78.560547,267.041016z"/>
	<path fill="#27282C" d="M81.910156,262.419922h1.121094v1.09375h0.109375c0.21875-0.717773,1.066406-1.223633,2.043945-1.223633
		c0.191406,0,0.4375,0.013672,0.587891,0.03418V263.5c-0.095703-0.027344-0.519531-0.068359-0.751953-0.068359
		c-1.121094,0-1.93457,0.751953-1.93457,1.791016v4.566406h-1.175781V262.419922z"/>
	<path fill="#27282C" d="M89.682617,262.290039c1.544922,0,2.618164,0.765625,2.775391,1.975586h-1.162109
		c-0.157227-0.587891-0.731445-0.977539-1.620117-0.977539c-0.875,0-1.558594,0.444336-1.558594,1.100586
		c0,0.505859,0.410156,0.820312,1.27832,1.032227l1.134766,0.273438c1.387695,0.334961,2.057617,0.936523,2.057617,1.996094
		c0,1.319336-1.27832,2.228516-2.953125,2.228516c-1.640625,0-2.768555-0.786133-2.898438-2.009766h1.209961
		c0.198242,0.62207,0.786133,1.018555,1.729492,1.018555c0.991211,0,1.702148-0.47168,1.702148-1.148438
		c0-0.505859-0.382812-0.847656-1.168945-1.039062l-1.264648-0.307617c-1.380859-0.334961-2.009766-0.929688-2.009766-1.996094
		C86.93457,263.212891,88.117188,262.290039,89.682617,262.290039z"/>
	<path fill="#27282C" d="M100.490234,267.881836c-0.341797,1.257812-1.490234,2.037109-3.103516,2.037109
		c-2.043945,0-3.322266-1.476562-3.322266-3.807617c0-2.317383,1.298828-3.821289,3.322266-3.821289
		c1.989258,0,3.199219,1.415039,3.199219,3.705078v0.451172h-5.297852v0.054688c0.061523,1.456055,0.875,2.378906,2.125977,2.378906
		c0.950195,0,1.592773-0.348633,1.900391-0.998047H100.490234z M95.288086,265.496094h4.060547
		c-0.027344-1.305664-0.806641-2.166992-1.975586-2.166992C96.197266,263.329102,95.376953,264.19043,95.288086,265.496094z"/>
	<path fill="#27282C" d="M102.431641,262.419922h1.121094v1.09375h0.109375c0.21875-0.717773,1.066406-1.223633,2.043945-1.223633
		c0.191406,0,0.4375,0.013672,0.587891,0.03418V263.5c-0.095703-0.027344-0.519531-0.068359-0.751953-0.068359
		c-1.121094,0-1.93457,0.751953-1.93457,1.791016v4.566406h-1.175781V262.419922z"/>
	<path fill="#27282C" d="M66.344727,304.96582h-3.923828l-0.991211,2.823242h-1.291992l3.636719-9.864258h1.216797
		l3.636719,9.864258h-1.291992L66.344727,304.96582z M62.783203,303.919922h3.199219l-1.544922-4.402344h-0.109375
		L62.783203,303.919922z"/>
	<path fill="#27282C" d="M70.207031,300.419922h1.121094v1.162109H71.4375c0.334961-0.820312,1.073242-1.291992,2.057617-1.291992
		c0.998047,0,1.695312,0.526367,2.037109,1.291992h0.109375c0.396484-0.779297,1.237305-1.291992,2.255859-1.291992
		c1.503906,0,2.344727,0.861328,2.344727,2.40625v5.092773h-1.175781v-4.819336c0-1.086914-0.512695-1.620117-1.551758-1.620117
		c-1.025391,0-1.708984,0.765625-1.708984,1.702148v4.737305h-1.175781v-5.003906c0-0.875-0.608398-1.435547-1.538086-1.435547
		c-0.963867,0-1.708984,0.833984-1.708984,1.873047v4.566406h-1.175781V300.419922z"/>
	<path fill="#27282C" d="M89.074219,304.104492c0,2.303711-1.223633,3.814453-3.09668,3.814453
		c-1.052734,0-1.900391-0.458008-2.303711-1.237305h-0.109375V310.25h-1.175781v-9.830078h1.121094v1.230469h0.109375
		c0.47168-0.847656,1.353516-1.360352,2.358398-1.360352C87.857422,300.290039,89.074219,301.787109,89.074219,304.104492z
		 M87.857422,304.104492c0-1.722656-0.806641-2.754883-2.15332-2.754883c-1.333008,0-2.173828,1.05957-2.173828,2.754883
		c0,1.688477,0.84082,2.754883,2.166992,2.754883C87.050781,306.859375,87.857422,305.827148,87.857422,304.104492z"/>
	<path fill="#27282C" d="M90.988281,297.494141h1.175781v4.087891h0.109375c0.369141-0.813477,1.141602-1.291992,2.269531-1.291992
		c1.558594,0,2.542969,0.998047,2.542969,2.727539v4.771484h-1.175781v-4.484375c0-1.305664-0.587891-1.955078-1.702148-1.955078
		c-1.319336,0-2.043945,0.833984-2.043945,2.078125v4.361328h-1.175781V297.494141z"/>
	<path fill="#27282C" d="M105.917969,304.104492c0,2.303711-1.223633,3.814453-3.09668,3.814453
		c-1.052734,0-1.900391-0.458008-2.303711-1.237305h-0.109375V310.25h-1.175781v-9.830078h1.121094v1.230469h0.109375
		c0.47168-0.847656,1.353516-1.360352,2.358398-1.360352C104.701172,300.290039,105.917969,301.787109,105.917969,304.104492z
		 M104.701172,304.104492c0-1.722656-0.806641-2.754883-2.15332-2.754883c-1.333008,0-2.173828,1.05957-2.173828,2.754883
		c0,1.688477,0.84082,2.754883,2.166992,2.754883C103.894531,306.859375,104.701172,305.827148,104.701172,304.104492z"/>
	<path fill="#27282C" d="M39.71875,345.789062h-1.162109l-2.686523-9.864258h1.285156l1.961914,8.018555h0.082031l2.208008-8.018555
		h1.244141l2.208008,8.018555h0.082031l1.961914-8.018555h1.285156l-2.686523,9.864258h-1.162109l-2.269531-7.786133h-0.082031
		L39.71875,345.789062z"/>
	<path fill="#27282C" d="M48.858398,342.104492c0-2.37207,1.298828-3.814453,3.397461-3.814453s3.397461,1.442383,3.397461,3.814453
		c0,2.365234-1.298828,3.814453-3.397461,3.814453S48.858398,344.469727,48.858398,342.104492z M54.436523,342.104492
		c0-1.75-0.786133-2.754883-2.180664-2.754883s-2.180664,1.004883-2.180664,2.754883
		c0,1.743164,0.786133,2.754883,2.180664,2.754883S54.436523,343.847656,54.436523,342.104492z"/>
	<path fill="#27282C" d="M57.499023,338.419922h1.121094v1.09375h0.109375c0.21875-0.717773,1.066406-1.223633,2.043945-1.223633
		c0.191406,0,0.4375,0.013672,0.587891,0.03418V339.5c-0.095703-0.027344-0.519531-0.068359-0.751953-0.068359
		c-1.121094,0-1.93457,0.751953-1.93457,1.791016v4.566406h-1.175781V338.419922z"/>
	<path fill="#27282C" d="M62.256836,342.104492c0-2.310547,1.223633-3.814453,3.09668-3.814453
		c1.025391,0,1.893555,0.485352,2.310547,1.291992h0.102539v-4.087891h1.175781v10.294922h-1.121094v-1.175781h-0.109375
		c-0.464844,0.820312-1.339844,1.305664-2.358398,1.305664C63.466797,345.918945,62.256836,344.421875,62.256836,342.104492z
		 M63.473633,342.104492c0,1.722656,0.806641,2.754883,2.15332,2.754883c1.339844,0,2.166992-1.052734,2.166992-2.754883
		c0-1.688477-0.833984-2.754883-2.166992-2.754883C64.287109,339.349609,63.473633,340.388672,63.473633,342.104492z"/>
	<path fill="#27282C" d="M75.101562,335.924805c1.866211,0,3.158203,1.3125,3.158203,3.192383
		c0,1.845703-1.319336,3.151367-3.171875,3.151367h-2.481445v3.520508h-1.230469v-9.864258H75.101562z M72.606445,341.174805
		h2.173828c1.401367,0,2.214844-0.751953,2.214844-2.057617c0-1.353516-0.786133-2.098633-2.214844-2.098633h-2.173828V341.174805z"
		/>
	<path fill="#27282C" d="M80.119141,338.419922h1.121094v1.09375h0.109375c0.21875-0.717773,1.066406-1.223633,2.043945-1.223633
		c0.191406,0,0.4375,0.013672,0.587891,0.03418V339.5c-0.095703-0.027344-0.519531-0.068359-0.751953-0.068359
		c-1.121094,0-1.93457,0.751953-1.93457,1.791016v4.566406h-1.175781V338.419922z"/>
	<path fill="#27282C" d="M91.302734,343.881836c-0.341797,1.257812-1.490234,2.037109-3.103516,2.037109
		c-2.043945,0-3.322266-1.476562-3.322266-3.807617c0-2.317383,1.298828-3.821289,3.322266-3.821289
		c1.989258,0,3.199219,1.415039,3.199219,3.705078v0.451172h-5.297852v0.054688c0.061523,1.456055,0.875,2.378906,2.125977,2.378906
		c0.950195,0,1.592773-0.348633,1.900391-0.998047H91.302734z M86.100586,341.496094h4.060547
		c-0.027344-1.305664-0.806641-2.166992-1.975586-2.166992C87.009766,339.329102,86.189453,340.19043,86.100586,341.496094z"/>
	<path fill="#27282C" d="M95.821289,338.290039c1.544922,0,2.618164,0.765625,2.775391,1.975586H97.43457
		c-0.157227-0.587891-0.731445-0.977539-1.620117-0.977539c-0.875,0-1.558594,0.444336-1.558594,1.100586
		c0,0.505859,0.410156,0.820312,1.27832,1.032227l1.134766,0.273438c1.387695,0.334961,2.057617,0.936523,2.057617,1.996094
		c0,1.319336-1.27832,2.228516-2.953125,2.228516c-1.640625,0-2.768555-0.786133-2.898438-2.009766h1.209961
		c0.198242,0.62207,0.786133,1.018555,1.729492,1.018555c0.991211,0,1.702148-0.47168,1.702148-1.148438
		c0-0.505859-0.382812-0.847656-1.168945-1.039062l-1.264648-0.307617c-1.380859-0.334961-2.009766-0.929688-2.009766-1.996094
		C93.073242,339.212891,94.255859,338.290039,95.821289,338.290039z"/>
	<path fill="#27282C" d="M103.012695,338.290039c1.544922,0,2.618164,0.765625,2.775391,1.975586h-1.162109
		c-0.157227-0.587891-0.731445-0.977539-1.620117-0.977539c-0.875,0-1.558594,0.444336-1.558594,1.100586
		c0,0.505859,0.410156,0.820312,1.27832,1.032227l1.134766,0.273438c1.387695,0.334961,2.057617,0.936523,2.057617,1.996094
		c0,1.319336-1.27832,2.228516-2.953125,2.228516c-1.640625,0-2.768555-0.786133-2.898438-2.009766h1.209961
		c0.198242,0.62207,0.786133,1.018555,1.729492,1.018555c0.991211,0,1.702148-0.47168,1.702148-1.148438
		c0-0.505859-0.382812-0.847656-1.168945-1.039062l-1.264648-0.307617c-1.380859-0.334961-2.009766-0.929688-2.009766-1.996094
		C100.264648,339.212891,101.447266,338.290039,103.012695,338.290039z"/>
	<path fill="#27282C" d="M49.125,383.789062v-7.533203h-0.082031l-3.110352,7.533203h-1.039062l-3.110352-7.533203h-0.082031
		v7.533203h-1.148438v-9.864258h1.428711l3.376953,8.230469h0.109375l3.376953-8.230469h1.428711v9.864258H49.125z"/>
	<path fill="#27282C" d="M58.695312,381.881836c-0.341797,1.257812-1.490234,2.037109-3.103516,2.037109
		c-2.043945,0-3.322266-1.476562-3.322266-3.807617c0-2.317383,1.298828-3.821289,3.322266-3.821289
		c1.989258,0,3.199219,1.415039,3.199219,3.705078v0.451172h-5.297852v0.054688c0.061523,1.456055,0.875,2.378906,2.125977,2.378906
		c0.950195,0,1.592773-0.348633,1.900391-0.998047H58.695312z M53.493164,379.496094h4.060547
		c-0.027344-1.305664-0.806641-2.166992-1.975586-2.166992C54.402344,377.329102,53.582031,378.19043,53.493164,379.496094z"/>
	<path fill="#27282C" d="M60.267578,380.104492c0-2.310547,1.223633-3.814453,3.09668-3.814453
		c1.025391,0,1.893555,0.485352,2.310547,1.291992h0.102539v-4.087891h1.175781v10.294922h-1.121094v-1.175781h-0.109375
		c-0.464844,0.820312-1.339844,1.305664-2.358398,1.305664C61.477539,383.918945,60.267578,382.421875,60.267578,380.104492z
		 M61.484375,380.104492c0,1.722656,0.806641,2.754883,2.15332,2.754883c1.339844,0,2.166992-1.052734,2.166992-2.754883
		c0-1.688477-0.833984-2.754883-2.166992-2.754883C62.297852,377.349609,61.484375,378.388672,61.484375,380.104492z"/>
	<path fill="#27282C" d="M69.03125,374.177734c0-0.451172,0.369141-0.820312,0.820312-0.820312s0.820312,0.369141,0.820312,0.820312
		s-0.369141,0.820312-0.820312,0.820312S69.03125,374.628906,69.03125,374.177734z M69.263672,376.419922h1.175781v7.369141
		h-1.175781V376.419922z"/>
	<path fill="#27282C" d="M72.244141,381.724609c0-1.319336,0.970703-2.078125,2.686523-2.180664l2.125977-0.129883v-0.669922
		c0-0.90918-0.567383-1.408203-1.667969-1.408203c-0.881836,0-1.49707,0.334961-1.661133,0.916016h-1.189453
		c0.157227-1.182617,1.319336-1.961914,2.891602-1.961914c1.797852,0,2.802734,0.922852,2.802734,2.454102v5.044922h-1.121094
		v-1.086914h-0.109375c-0.478516,0.786133-1.285156,1.216797-2.269531,1.216797
		C73.303711,383.918945,72.244141,383.071289,72.244141,381.724609z M77.056641,381.041016v-0.676758l-1.982422,0.129883
		c-1.121094,0.075195-1.613281,0.464844-1.613281,1.203125c0,0.751953,0.635742,1.189453,1.490234,1.189453
		C76.161133,382.886719,77.056641,382.09375,77.056641,381.041016z"/>
	<path fill="#27282C" d="M83.079102,383.789062h-1.162109l-2.686523-9.864258h1.285156l1.961914,8.018555h0.082031
		l2.208008-8.018555h1.244141l2.208008,8.018555h0.082031l1.961914-8.018555h1.285156l-2.686523,9.864258h-1.162109
		l-2.269531-7.786133h-0.082031L83.079102,383.789062z"/>
	<path fill="#27282C" d="M93.066406,374.177734c0-0.451172,0.369141-0.820312,0.820312-0.820312
		s0.820312,0.369141,0.820312,0.820312s-0.369141,0.820312-0.820312,0.820312S93.066406,374.628906,93.066406,374.177734z
		 M93.298828,376.419922h1.175781v7.369141h-1.175781V376.419922z"/>
	<path fill="#27282C" d="M101.269531,376.419922h1.442383l-3.171875,3.158203l3.383789,4.210938h-1.49707l-2.761719-3.452148
		l-0.704102,0.65625v2.795898h-1.175781v-10.294922h1.175781v6.145508h0.109375L101.269531,376.419922z"/>
	<path fill="#27282C" d="M104.113281,374.177734c0-0.451172,0.369141-0.820312,0.820312-0.820312
		s0.820312,0.369141,0.820312,0.820312s-0.369141,0.820312-0.820312,0.820312S104.113281,374.628906,104.113281,374.177734z
		 M104.345703,376.419922h1.175781v7.369141h-1.175781V376.419922z"/>
	<path fill="#27282C" d="M10.454102,419.211914c0.150391,1.032227,1.134766,1.688477,2.536133,1.688477
		c1.326172,0,2.303711-0.717773,2.303711-1.695312c0-0.84082-0.615234-1.374023-1.975586-1.71582l-1.264648-0.328125
		c-1.78418-0.451172-2.556641-1.257812-2.556641-2.65918c0-1.674805,1.401367-2.80957,3.486328-2.80957
		c1.907227,0,3.329102,1.134766,3.431641,2.727539h-1.237305c-0.170898-1.011719-1.004883-1.613281-2.235352-1.613281
		c-1.3125,0-2.180664,0.65625-2.180664,1.654297c0,0.772461,0.540039,1.216797,1.900391,1.56543l1.032227,0.273438
		c2.043945,0.512695,2.864258,1.305664,2.864258,2.754883c0,1.811523-1.428711,2.966797-3.68457,2.966797
		c-2.091797,0-3.53418-1.107422-3.664062-2.80957H10.454102z"/>
	<path fill="#27282C" d="M18.554688,424.414062v-1.004883c0.143555,0.027344,0.328125,0.03418,0.492188,0.03418
		c0.676758,0,1.045898-0.321289,1.353516-1.209961l0.136719-0.4375l-2.727539-7.375977h1.271484l2.023438,6.063477h0.109375
		l2.016602-6.063477h1.250977l-2.87793,7.820312c-0.628906,1.708984-1.216797,2.214844-2.522461,2.214844
		C18.923828,424.455078,18.71875,424.441406,18.554688,424.414062z"/>
	<path fill="#27282C" d="M26.053711,414.419922h1.121094v1.162109h0.109375c0.334961-0.820312,1.073242-1.291992,2.057617-1.291992
		c0.998047,0,1.695312,0.526367,2.037109,1.291992h0.109375c0.396484-0.779297,1.237305-1.291992,2.255859-1.291992
		c1.503906,0,2.344727,0.861328,2.344727,2.40625v5.092773h-1.175781v-4.819336c0-1.086914-0.512695-1.620117-1.551758-1.620117
		c-1.025391,0-1.708984,0.765625-1.708984,1.702148v4.737305h-1.175781v-5.003906c0-0.875-0.608398-1.435547-1.538086-1.435547
		c-0.963867,0-1.708984,0.833984-1.708984,1.873047v4.566406h-1.175781V414.419922z"/>
	<path fill="#27282C" d="M38.727539,415.404297h-1.223633v-0.984375h1.223633v-0.820312
		c0-1.469727,0.738281-2.173828,2.139648-2.173828c0.287109,0,0.546875,0.020508,0.792969,0.068359v0.957031
		c-0.143555-0.027344-0.341797-0.03418-0.553711-0.03418c-0.847656,0-1.203125,0.410156-1.203125,1.216797v0.786133h1.688477
		v0.984375H39.90332v6.384766h-1.175781V415.404297z"/>
	<path fill="#27282C" d="M42.624023,418.104492c0-2.37207,1.298828-3.814453,3.397461-3.814453s3.397461,1.442383,3.397461,3.814453
		c0,2.365234-1.298828,3.814453-3.397461,3.814453S42.624023,420.469727,42.624023,418.104492z M48.202148,418.104492
		c0-1.75-0.786133-2.754883-2.180664-2.754883s-2.180664,1.004883-2.180664,2.754883
		c0,1.743164,0.786133,2.754883,2.180664,2.754883S48.202148,419.847656,48.202148,418.104492z"/>
	<path fill="#27282C" d="M51.264648,414.419922h1.121094v1.162109h0.109375c0.369141-0.813477,1.086914-1.291992,2.214844-1.291992
		c1.654297,0,2.577148,0.977539,2.577148,2.727539v4.771484h-1.175781v-4.484375c0-1.326172-0.560547-1.955078-1.736328-1.955078
		s-1.93457,0.786133-1.93457,2.078125v4.361328h-1.175781V414.419922z"/>
	<path fill="#27282C" d="M59.262695,424.414062v-1.004883c0.143555,0.027344,0.328125,0.03418,0.492188,0.03418
		c0.676758,0,1.045898-0.321289,1.353516-1.209961l0.136719-0.4375l-2.727539-7.375977h1.271484l2.023438,6.063477h0.109375
		l2.016602-6.063477h1.250977l-2.87793,7.820312c-0.628906,1.708984-1.216797,2.214844-2.522461,2.214844
		C59.631836,424.455078,59.426758,424.441406,59.262695,424.414062z"/>
	<path fill="#27282C" d="M70.34375,418.104492c0-2.310547,1.223633-3.814453,3.09668-3.814453
		c1.025391,0,1.893555,0.485352,2.310547,1.291992h0.102539v-4.087891h1.175781v10.294922h-1.121094v-1.175781h-0.109375
		c-0.464844,0.820312-1.339844,1.305664-2.358398,1.305664C71.553711,421.918945,70.34375,420.421875,70.34375,418.104492z
		 M71.560547,418.104492c0,1.722656,0.806641,2.754883,2.15332,2.754883c1.339844,0,2.166992-1.052734,2.166992-2.754883
		c0-1.688477-0.833984-2.754883-2.166992-2.754883C72.374023,415.349609,71.560547,416.388672,71.560547,418.104492z"/>
	<path fill="#27282C" d="M85.369141,419.881836c-0.341797,1.257812-1.490234,2.037109-3.103516,2.037109
		c-2.043945,0-3.322266-1.476562-3.322266-3.807617c0-2.317383,1.298828-3.821289,3.322266-3.821289
		c1.989258,0,3.199219,1.415039,3.199219,3.705078v0.451172h-5.297852v0.054688c0.061523,1.456055,0.875,2.378906,2.125977,2.378906
		c0.950195,0,1.592773-0.348633,1.900391-0.998047H85.369141z M80.166992,417.496094h4.060547
		c-0.027344-1.305664-0.806641-2.166992-1.975586-2.166992C81.076172,415.329102,80.255859,416.19043,80.166992,417.496094z"/>
	<path fill="#27282C" d="M87.310547,414.419922h1.121094v1.162109h0.109375c0.334961-0.820312,1.073242-1.291992,2.057617-1.291992
		c0.998047,0,1.695312,0.526367,2.037109,1.291992h0.109375c0.396484-0.779297,1.237305-1.291992,2.255859-1.291992
		c1.503906,0,2.344727,0.861328,2.344727,2.40625v5.092773h-1.175781v-4.819336c0-1.086914-0.512695-1.620117-1.551758-1.620117
		c-1.025391,0-1.708984,0.765625-1.708984,1.702148v4.737305h-1.175781v-5.003906c0-0.875-0.608398-1.435547-1.538086-1.435547
		c-0.963867,0-1.708984,0.833984-1.708984,1.873047v4.566406h-1.175781V414.419922z"/>
	<path fill="#27282C" d="M99.123047,418.104492c0-2.37207,1.298828-3.814453,3.397461-3.814453s3.397461,1.442383,3.397461,3.814453
		c0,2.365234-1.298828,3.814453-3.397461,3.814453S99.123047,420.469727,99.123047,418.104492z M104.701172,418.104492
		c0-1.75-0.786133-2.754883-2.180664-2.754883s-2.180664,1.004883-2.180664,2.754883
		c0,1.743164,0.786133,2.754883,2.180664,2.754883S104.701172,419.847656,104.701172,418.104492z"/>
</g>
<g opacity="0.7">
	<path fill="#27282C" d="M595.139648,99.23584c1.722656,0,3.041992,1.168945,3.041992,2.768555
		c0,1.134766-0.492188,1.955078-2.269531,3.793945l-2.242188,2.317383v0.109375h4.675781v1.107422h-6.384766v-0.847656
		l3.335938-3.609375c1.257812-1.360352,1.626953-1.873047,1.626953-2.741211c0-1.045898-0.704102-1.825195-1.866211-1.825195
		c-1.182617,0-1.96875,0.772461-1.96875,1.941406h-1.189453C591.899414,100.493652,593.25293,99.23584,595.139648,99.23584z"/>
	<path fill="#27282C" d="M600.300781,108.512207c0-0.492188,0.40332-0.888672,0.888672-0.888672
		c0.492188,0,0.888672,0.396484,0.888672,0.888672c0,0.485352-0.396484,0.888672-0.888672,0.888672
		C600.704102,109.400879,600.300781,108.997559,600.300781,108.512207z"/>
	<path fill="#27282C" d="M606.248047,100.835449h-0.109375l-2.508789,1.818359v-1.298828l2.625-1.886719h1.223633v9.864258
		h-1.230469V100.835449z"/>
	<path fill="#27282C" d="M610.192383,104.567871c0-3.390625,1.462891-5.332031,3.793945-5.332031
		c1.797852,0,2.980469,0.991211,3.233398,2.522461h-1.264648c-0.205078-0.916016-0.929688-1.428711-1.927734-1.428711
		c-1.640625,0-2.597656,1.367188-2.638672,4.046875h0.109375c0.485352-0.957031,1.449219-1.517578,2.625-1.517578
		c1.879883,0,3.240234,1.387695,3.240234,3.301758c0,1.982422-1.435547,3.397461-3.458984,3.397461
		C611.757812,109.558105,610.192383,107.890137,610.192383,104.567871z M616.119141,106.20166
		c0-1.34668-0.90918-2.276367-2.214844-2.276367s-2.242188,0.929688-2.242188,2.235352
		c0,1.319336,0.963867,2.317383,2.228516,2.317383S616.119141,107.493652,616.119141,106.20166z"/>
</g>
<g opacity="0.7">
	<path fill="#27282C" d="M728.786133,113.330078c1.722656,0,3.041992,1.168945,3.041992,2.768555
		c0,1.134766-0.492188,1.955078-2.269531,3.793945l-2.242188,2.317383v0.109375h4.675781v1.107422h-6.384766v-0.847656
		l3.335938-3.609375c1.257812-1.360352,1.626953-1.873047,1.626953-2.741211c0-1.045898-0.704102-1.825195-1.866211-1.825195
		c-1.182617,0-1.96875,0.772461-1.96875,1.941406h-1.189453C725.545898,114.587891,726.899414,113.330078,728.786133,113.330078z"/>
	<path fill="#27282C" d="M733.947266,122.606445c0-0.492188,0.40332-0.888672,0.888672-0.888672
		c0.492188,0,0.888672,0.396484,0.888672,0.888672c0,0.485352-0.396484,0.888672-0.888672,0.888672
		C734.350586,123.495117,733.947266,123.091797,733.947266,122.606445z"/>
	<path fill="#27282C" d="M742.854492,114.758789v-0.095703h-5.277344V113.5625h6.52832v1.141602l-4.388672,8.722656h-1.291992
		L742.854492,114.758789z"/>
	<path fill="#27282C" d="M745.602539,120.788086c0-1.285156,0.813477-2.283203,2.050781-2.515625v-0.109375
		c-1.004883-0.273438-1.647461-1.12793-1.647461-2.201172c0-1.538086,1.305664-2.631836,3.151367-2.631836
		s3.151367,1.09375,3.151367,2.631836c0,1.080078-0.628906,1.920898-1.647461,2.201172v0.109375
		c1.237305,0.232422,2.050781,1.230469,2.050781,2.515625c0,1.688477-1.462891,2.871094-3.554688,2.871094
		S745.602539,122.476562,745.602539,120.788086z M751.467773,120.699219c0-1.12793-0.943359-1.907227-2.310547-1.907227
		s-2.310547,0.779297-2.310547,1.907227s0.943359,1.907227,2.310547,1.907227S751.467773,121.827148,751.467773,120.699219z
		 M751.098633,116.078125c0-1.018555-0.772461-1.695312-1.941406-1.695312s-1.941406,0.676758-1.941406,1.695312
		c0,1.004883,0.779297,1.674805,1.941406,1.674805S751.098633,117.083008,751.098633,116.078125z"/>
</g>
<g opacity="0.7">
	<path fill="#27282C" d="M143.222656,18.480469V9.723633h-3.178711V8.616211h7.587891v1.107422h-3.178711v8.756836H143.222656z"/>
	<path fill="#27282C" d="M148.356445,11.111328h1.121094v1.09375h0.109375c0.21875-0.717773,1.066406-1.223633,2.043945-1.223633
		c0.191406,0,0.4375,0.013672,0.587891,0.03418v1.175781c-0.095703-0.027344-0.519531-0.068359-0.751953-0.068359
		c-1.121094,0-1.93457,0.751953-1.93457,1.791016v4.566406h-1.175781V11.111328z"/>
	<path fill="#27282C" d="M153.250977,16.416016c0-1.319336,0.970703-2.078125,2.686523-2.180664l2.125977-0.129883v-0.669922
		c0-0.90918-0.567383-1.408203-1.667969-1.408203c-0.881836,0-1.49707,0.334961-1.661133,0.916016h-1.189453
		c0.157227-1.182617,1.319336-1.961914,2.891602-1.961914c1.797852,0,2.802734,0.922852,2.802734,2.454102v5.044922h-1.121094
		v-1.086914h-0.109375c-0.478516,0.786133-1.285156,1.216797-2.269531,1.216797
		C154.310547,18.610352,153.250977,17.762695,153.250977,16.416016z M158.063477,15.732422v-0.676758l-1.982422,0.129883
		c-1.121094,0.075195-1.613281,0.464844-1.613281,1.203125c0,0.751953,0.635742,1.189453,1.490234,1.189453
		C157.167969,17.578125,158.063477,16.785156,158.063477,15.732422z"/>
	<path fill="#27282C" d="M166.321289,13.367188c-0.191406-0.731445-0.84082-1.326172-1.900391-1.326172
		c-1.326172,0-2.160156,1.05957-2.160156,2.727539c0,1.702148,0.847656,2.782227,2.160156,2.782227
		c0.991211,0,1.681641-0.458008,1.900391-1.291992h1.189453c-0.211914,1.353516-1.3125,2.351562-3.083008,2.351562
		c-2.064453,0-3.383789-1.49707-3.383789-3.841797c0-2.296875,1.3125-3.787109,3.376953-3.787109
		c1.791016,0,2.884766,1.073242,3.089844,2.385742H166.321289z"/>
	<path fill="#27282C" d="M169.041992,8.869141c0-0.451172,0.369141-0.820312,0.820312-0.820312s0.820312,0.369141,0.820312,0.820312
		s-0.369141,0.820312-0.820312,0.820312S169.041992,9.320312,169.041992,8.869141z M169.274414,11.111328h1.175781v7.369141
		h-1.175781V11.111328z"/>
	<path fill="#27282C" d="M172.692383,11.111328h1.121094v1.162109h0.109375c0.369141-0.813477,1.086914-1.291992,2.214844-1.291992
		c1.654297,0,2.577148,0.977539,2.577148,2.727539v4.771484h-1.175781v-4.484375c0-1.326172-0.560547-1.955078-1.736328-1.955078
		s-1.93457,0.786133-1.93457,2.078125v4.361328h-1.175781V11.111328z"/>
	<path fill="#27282C" d="M180.806641,19.293945h1.244141c0.129883,0.601562,0.786133,0.991211,1.845703,0.991211
		c1.319336,0,2.105469-0.649414,2.105469-1.736328v-1.449219h-0.109375c-0.464844,0.813477-1.298828,1.271484-2.310547,1.271484
		c-1.907227,0-3.089844-1.476562-3.089844-3.68457s1.196289-3.705078,3.089844-3.705078
		c1.032227,0,1.941406,0.505859,2.365234,1.298828h0.109375v-1.168945h1.121094v7.499023
		c0,1.647461-1.271484,2.700195-3.28125,2.700195C182.119141,21.310547,180.984375,20.510742,180.806641,19.293945z
		 M186.029297,14.686523c0-1.606445-0.827148-2.645508-2.1875-2.645508c-1.367188,0-2.132812,1.039062-2.132812,2.645508
		s0.765625,2.645508,2.132812,2.645508S186.029297,16.292969,186.029297,14.686523z"/>
	<path fill="#27282C" d="M194.047852,16.176758c0.027344,0.827148,0.65625,1.401367,1.585938,1.401367
		c1.052734,0,1.647461-0.642578,1.647461-1.852539V8.616211h1.230469v7.116211c0,1.879883-1.086914,2.980469-2.871094,2.980469
		c-1.654297,0-2.816406-1.025391-2.816406-2.536133H194.047852z"/>
	<path fill="#27282C" d="M201.027344,18.480469V8.616211h1.230469v9.864258H201.027344z"/>
	<path fill="#27282C" d="M207.336914,18.480469V9.723633h-3.178711V8.616211h7.587891v1.107422h-3.178711v8.756836H207.336914z"/>
</g>
<g opacity="0.7">
	<path fill="#27282C" d="M140.65918,42.004395v-9.864258h5.988281v1.107422h-4.757812v3.390625h4.368164v1.09375h-4.368164v4.272461
		H140.65918z"/>
	<path fill="#27282C" d="M154.481445,42.004395h-1.121094v-1.155273h-0.109375
		c-0.369141,0.820312-1.155273,1.285156-2.283203,1.285156c-1.654297,0-2.515625-0.984375-2.515625-2.727539v-4.771484h1.175781
		v4.484375c0,1.326172,0.492188,1.941406,1.667969,1.941406c1.298828,0,2.009766-0.772461,2.009766-2.064453v-4.361328h1.175781
		V42.004395z"/>
	<path fill="#27282C" d="M156.696289,34.635254h1.121094v1.162109h0.109375c0.369141-0.813477,1.086914-1.291992,2.214844-1.291992
		c1.654297,0,2.577148,0.977539,2.577148,2.727539v4.771484h-1.175781V37.52002c0-1.326172-0.560547-1.955078-1.736328-1.955078
		s-1.93457,0.786133-1.93457,2.078125v4.361328h-1.175781V34.635254z"/>
	<path fill="#27282C" d="M169.773438,36.891113c-0.191406-0.731445-0.84082-1.326172-1.900391-1.326172
		c-1.326172,0-2.160156,1.05957-2.160156,2.727539c0,1.702148,0.847656,2.782227,2.160156,2.782227
		c0.991211,0,1.681641-0.458008,1.900391-1.291992h1.189453c-0.211914,1.353516-1.3125,2.351562-3.083008,2.351562
		c-2.064453,0-3.383789-1.49707-3.383789-3.841797c0-2.296875,1.3125-3.787109,3.376953-3.787109
		c1.791016,0,2.884766,1.073242,3.089844,2.385742H169.773438z"/>
	<path fill="#27282C" d="M174.503906,32.728027v1.907227h1.640625v0.984375h-1.640625v4.169922
		c0,0.868164,0.328125,1.237305,1.09375,1.237305c0.211914,0,0.328125-0.006836,0.546875-0.027344v0.991211
		c-0.232422,0.041016-0.458008,0.068359-0.69043,0.068359c-1.517578,0-2.125977-0.560547-2.125977-1.96875v-4.470703h-1.189453
		v-0.984375h1.189453v-1.907227H174.503906z"/>
	<path fill="#27282C" d="M177.716797,32.393066c0-0.451172,0.369141-0.820312,0.820312-0.820312
		s0.820312,0.369141,0.820312,0.820312s-0.369141,0.820312-0.820312,0.820312S177.716797,32.844238,177.716797,32.393066z
		 M177.949219,34.635254H179.125v7.369141h-1.175781V34.635254z"/>
	<path fill="#27282C" d="M180.998047,38.319824c0-2.37207,1.298828-3.814453,3.397461-3.814453s3.397461,1.442383,3.397461,3.814453
		c0,2.365234-1.298828,3.814453-3.397461,3.814453S180.998047,40.685059,180.998047,38.319824z M186.576172,38.319824
		c0-1.75-0.786133-2.754883-2.180664-2.754883s-2.180664,1.004883-2.180664,2.754883
		c0,1.743164,0.786133,2.754883,2.180664,2.754883S186.576172,40.062988,186.576172,38.319824z"/>
	<path fill="#27282C" d="M189.638672,34.635254h1.121094v1.162109h0.109375c0.369141-0.813477,1.086914-1.291992,2.214844-1.291992
		c1.654297,0,2.577148,0.977539,2.577148,2.727539v4.771484h-1.175781V37.52002c0-1.326172-0.560547-1.955078-1.736328-1.955078
		s-1.93457,0.786133-1.93457,2.078125v4.361328h-1.175781V34.635254z"/>
	<path fill="#27282C" d="M202.462891,39.700684c0.027344,0.827148,0.65625,1.401367,1.585938,1.401367
		c1.052734,0,1.647461-0.642578,1.647461-1.852539v-7.109375h1.230469v7.116211c0,1.879883-1.086914,2.980469-2.871094,2.980469
		c-1.654297,0-2.816406-1.025391-2.816406-2.536133H202.462891z"/>
	<path fill="#27282C" d="M209.442383,42.004395v-9.864258h1.230469v9.864258H209.442383z"/>
	<path fill="#27282C" d="M215.751953,42.004395v-8.756836h-3.178711v-1.107422h7.587891v1.107422h-3.178711v8.756836H215.751953z"/>
</g>
<g opacity="0.7">
	<path fill="#27282C" d="M452.167969,140.292969h-0.109375l-2.508789,1.818359V140.8125l2.625-1.886719h1.223633v9.864258h-1.230469
		V140.292969z"/>
	<path fill="#27282C" d="M456.084961,147.969727c0-0.492188,0.40332-0.888672,0.888672-0.888672
		c0.492188,0,0.888672,0.396484,0.888672,0.888672c0,0.485352-0.396484,0.888672-0.888672,0.888672
		C456.488281,148.858398,456.084961,148.455078,456.084961,147.969727z"/>
	<path fill="#27282C" d="M459.673828,146.185547h1.209961c0.109375,1.052734,0.957031,1.756836,2.119141,1.756836
		c1.291992,0,2.146484-0.929688,2.146484-2.310547c0-1.333008-0.854492-2.228516-2.098633-2.228516
		c-0.936523,0-1.674805,0.430664-2.064453,1.162109h-1.155273l0.567383-5.639648h5.475586v1.100586h-4.511719l-0.307617,3.212891
		h0.109375c0.478516-0.594727,1.209961-0.895508,2.194336-0.895508c1.654297,0,3.021484,1.298828,3.021484,3.253906
		c0,2.030273-1.374023,3.424805-3.390625,3.424805C461.123047,149.022461,459.783203,147.874023,459.673828,146.185547z"/>
	<path fill="#27282C" d="M468.18457,143.854492c0-3.253906,1.291992-5.161133,3.5-5.161133
		c2.194336,0,3.486328,1.914062,3.486328,5.181641c0,3.274414-1.271484,5.147461-3.486328,5.147461
		C469.462891,149.022461,468.18457,147.135742,468.18457,143.854492z M473.933594,143.854492
		c0-2.618164-0.806641-4.081055-2.249023-4.081055s-2.262695,1.476562-2.262695,4.081055
		c0,2.638672,0.806641,4.094727,2.262695,4.094727S473.933594,146.5,473.933594,143.854492z"/>
</g>
<g opacity="0.7">
	<path fill="#27282C" d="M510.916016,153.292969h-0.109375l-2.508789,1.818359V153.8125l2.625-1.886719h1.223633v9.864258h-1.230469
		V153.292969z"/>
	<path fill="#27282C" d="M514.833008,160.969727c0-0.492188,0.40332-0.888672,0.888672-0.888672
		c0.492188,0,0.888672,0.396484,0.888672,0.888672c0,0.485352-0.396484,0.888672-0.888672,0.888672
		C515.236328,161.858398,514.833008,161.455078,514.833008,160.969727z"/>
	<path fill="#27282C" d="M523.740234,153.12207v-0.095703h-5.277344v-1.100586h6.52832v1.141602l-4.388672,8.722656h-1.291992
		L523.740234,153.12207z"/>
	<path fill="#27282C" d="M531.991211,153.12207v-0.095703h-5.277344v-1.100586h6.52832v1.141602l-4.388672,8.722656h-1.291992
		L531.991211,153.12207z"/>
</g>
<g opacity="0.7">
	<path fill="#27282C" d="M571.392578,177.056152c1.722656,0,3.041016,1.168945,3.041016,2.768555
		c0,1.134766-0.492188,1.955078-2.269531,3.793945l-2.242188,2.317383v0.109375h4.675781v1.107422h-6.384766v-0.847656
		l3.335938-3.609375c1.257812-1.360352,1.626953-1.873047,1.626953-2.741211c0-1.045898-0.703125-1.825195-1.865234-1.825195
		c-1.183594,0-1.96875,0.772461-1.96875,1.941406h-1.189453C568.152344,178.313965,569.505859,177.056152,571.392578,177.056152z"/>
	<path fill="#27282C" d="M576.552734,186.33252c0-0.492188,0.404297-0.888672,0.888672-0.888672
		c0.492188,0,0.888672,0.396484,0.888672,0.888672c0,0.485352-0.396484,0.888672-0.888672,0.888672
		C576.957031,187.221191,576.552734,186.817871,576.552734,186.33252z"/>
	<path fill="#27282C" d="M579.888672,182.217285c0-3.253906,1.292969-5.161133,3.5-5.161133
		c2.195312,0,3.486328,1.914062,3.486328,5.181641c0,3.274414-1.271484,5.147461-3.486328,5.147461
		C581.167969,187.385254,579.888672,185.498535,579.888672,182.217285z M585.638672,182.217285
		c0-2.618164-0.806641-4.081055-2.25-4.081055c-1.441406,0-2.261719,1.476562-2.261719,4.081055
		c0,2.638672,0.806641,4.094727,2.261719,4.094727C584.845703,186.312012,585.638672,184.862793,585.638672,182.217285z"/>
	<path fill="#27282C" d="M588.857422,184.54834h1.210938c0.109375,1.052734,0.957031,1.756836,2.119141,1.756836
		c1.291016,0,2.146484-0.929688,2.146484-2.310547c0-1.333008-0.855469-2.228516-2.099609-2.228516
		c-0.935547,0-1.673828,0.430664-2.064453,1.162109h-1.154297l0.566406-5.639648h5.476562v1.100586h-4.511719l-0.308594,3.212891
		h0.109375c0.478516-0.594727,1.210938-0.895508,2.195312-0.895508c1.654297,0,3.021484,1.298828,3.021484,3.253906
		c0,2.030273-1.375,3.424805-3.390625,3.424805C590.306641,187.385254,588.966797,186.236816,588.857422,184.54834z"/>
</g>
<g opacity="0.7">
	<path fill="#27282C" d="M754.195312,190.039062c1.722656,0,3.041992,1.168945,3.041992,2.768555
		c0,1.134766-0.492188,1.955078-2.269531,3.793945l-2.242188,2.317383v0.109375h4.675781v1.107422h-6.384766v-0.847656
		l3.335938-3.609375c1.257812-1.360352,1.626953-1.873047,1.626953-2.741211c0-1.045898-0.704102-1.825195-1.866211-1.825195
		c-1.182617,0-1.96875,0.772461-1.96875,1.941406h-1.189453C750.955078,191.296875,752.308594,190.039062,754.195312,190.039062z"/>
	<path fill="#27282C" d="M759.356445,199.31543c0-0.492188,0.40332-0.888672,0.888672-0.888672
		c0.492188,0,0.888672,0.396484,0.888672,0.888672c0,0.485352-0.396484,0.888672-0.888672,0.888672
		C759.759766,200.204102,759.356445,199.800781,759.356445,199.31543z"/>
	<path fill="#27282C" d="M762.794922,197.838867h1.264648c0.259766,0.888672,1.011719,1.428711,1.982422,1.428711
		c1.606445,0,2.515625-1.421875,2.583984-4.046875h-0.109375c-0.485352,0.957031-1.449219,1.517578-2.625,1.517578
		c-1.879883,0-3.240234-1.387695-3.240234-3.301758c0-1.982422,1.435547-3.397461,3.458984-3.397461
		c2.125977,0,3.711914,1.633789,3.711914,4.990234c0,3.390625-1.380859,5.332031-3.793945,5.332031
		C764.353516,200.361328,763.102539,199.390625,762.794922,197.838867z M768.352539,193.436523
		c0-1.319336-0.963867-2.317383-2.228516-2.317383s-2.228516,0.984375-2.228516,2.276367
		c0,1.34668,0.90918,2.276367,2.214844,2.276367S768.352539,194.742188,768.352539,193.436523z"/>
	<path fill="#27282C" d="M771.613281,195.200195c0-3.253906,1.291992-5.161133,3.5-5.161133
		c2.194336,0,3.486328,1.914062,3.486328,5.181641c0,3.274414-1.271484,5.147461-3.486328,5.147461
		C772.891602,200.368164,771.613281,198.481445,771.613281,195.200195z M777.362305,195.200195
		c0-2.618164-0.806641-4.081055-2.249023-4.081055s-2.262695,1.476562-2.262695,4.081055
		c0,2.638672,0.806641,4.094727,2.262695,4.094727S777.362305,197.845703,777.362305,195.200195z"/>
</g>
<g opacity="0.7">
	<path fill="#27282C" d="M587.230469,215.248047c1.722656,0,3.041992,1.168945,3.041992,2.768555
		c0,1.134766-0.492188,1.955078-2.269531,3.793945l-2.242188,2.317383v0.109375h4.675781v1.107422h-6.384766v-0.847656
		l3.335938-3.609375c1.257812-1.360352,1.626953-1.873047,1.626953-2.741211c0-1.045898-0.704102-1.825195-1.866211-1.825195
		c-1.182617,0-1.96875,0.772461-1.96875,1.941406h-1.189453C583.990234,216.505859,585.34375,215.248047,587.230469,215.248047z"/>
	<path fill="#27282C" d="M592.391602,224.524414c0-0.492188,0.40332-0.888672,0.888672-0.888672
		c0.492188,0,0.888672,0.396484,0.888672,0.888672c0,0.485352-0.396484,0.888672-0.888672,0.888672
		C592.794922,225.413086,592.391602,225.009766,592.391602,224.524414z"/>
	<path fill="#27282C" d="M598.338867,216.847656h-0.109375l-2.508789,1.818359v-1.298828l2.625-1.886719h1.223633v9.864258
		h-1.230469V216.847656z"/>
	<path fill="#27282C" d="M605.6875,215.248047c1.722656,0,3.041992,1.168945,3.041992,2.768555
		c0,1.134766-0.492188,1.955078-2.269531,3.793945l-2.242188,2.317383v0.109375h4.675781v1.107422h-6.384766v-0.847656
		l3.335938-3.609375c1.257812-1.360352,1.626953-1.873047,1.626953-2.741211c0-1.045898-0.704102-1.825195-1.866211-1.825195
		c-1.182617,0-1.96875,0.772461-1.96875,1.941406h-1.189453C602.447266,216.505859,603.800781,215.248047,605.6875,215.248047z"/>
</g>
<g opacity="0.7">
	<path fill="#27282C" d="M762.569336,228.418945c1.722656,0,3.041992,1.168945,3.041992,2.768555
		c0,1.134766-0.492188,1.955078-2.269531,3.793945l-2.242188,2.317383v0.109375h4.675781v1.107422h-6.384766v-0.847656
		l3.335938-3.609375c1.257812-1.360352,1.626953-1.873047,1.626953-2.741211c0-1.045898-0.704102-1.825195-1.866211-1.825195
		c-1.182617,0-1.96875,0.772461-1.96875,1.941406h-1.189453C759.329102,229.676758,760.682617,228.418945,762.569336,228.418945z"/>
	<path fill="#27282C" d="M767.730469,237.695312c0-0.492188,0.40332-0.888672,0.888672-0.888672
		c0.492188,0,0.888672,0.396484,0.888672,0.888672c0,0.485352-0.396484,0.888672-0.888672,0.888672
		C768.133789,238.583984,767.730469,238.180664,767.730469,237.695312z"/>
	<path fill="#27282C" d="M771.168945,236.21875h1.264648c0.259766,0.888672,1.011719,1.428711,1.982422,1.428711
		c1.606445,0,2.515625-1.421875,2.583984-4.046875h-0.109375c-0.485352,0.957031-1.449219,1.517578-2.625,1.517578
		c-1.879883,0-3.240234-1.387695-3.240234-3.301758c0-1.982422,1.435547-3.397461,3.458984-3.397461
		c2.125977,0,3.711914,1.633789,3.711914,4.990234c0,3.390625-1.380859,5.332031-3.793945,5.332031
		C772.727539,238.741211,771.476562,237.770508,771.168945,236.21875z M776.726562,231.816406
		c0-1.319336-0.963867-2.317383-2.228516-2.317383s-2.228516,0.984375-2.228516,2.276367
		c0,1.34668,0.90918,2.276367,2.214844,2.276367S776.726562,233.12207,776.726562,231.816406z"/>
	<path fill="#27282C" d="M784.676758,236.47168h-4.805664v-1.121094c1.333008-2.235352,2.84375-4.641602,4.224609-6.699219h1.78418
		v6.719727h1.401367v1.100586h-1.401367v2.043945h-1.203125V236.47168z M781.128906,235.37793h3.554688v-5.584961h-0.082031
		c-1.107422,1.654297-2.399414,3.691406-3.472656,5.50293V235.37793z"/>
</g>
<g opacity="0.7">
	<path fill="#27282C" d="M429.081055,255.381836h-0.109375l-2.508789,1.818359v-1.298828l2.625-1.886719h1.223633v9.864258
		h-1.230469V255.381836z"/>
	<path fill="#27282C" d="M432.998047,263.058594c0-0.492188,0.40332-0.888672,0.888672-0.888672
		c0.492188,0,0.888672,0.396484,0.888672,0.888672c0,0.485352-0.396484,0.888672-0.888672,0.888672
		C433.401367,263.947266,432.998047,263.543945,432.998047,263.058594z"/>
	<path fill="#27282C" d="M438.726562,258.280273h1.168945c1.134766,0,1.941406-0.724609,1.941406-1.75
		c0-0.922852-0.704102-1.674805-1.893555-1.674805s-1.961914,0.608398-2.064453,1.71582h-1.196289
		c0.123047-1.606445,1.34668-2.789062,3.342773-2.789062c1.948242,0,3.069336,1.230469,3.0625,2.611328
		c-0.006836,1.189453-0.745117,1.975586-1.756836,2.269531v0.109375c1.27832,0.205078,2.125977,1.073242,2.125977,2.447266
		c0,1.654297-1.510742,2.891602-3.472656,2.891602c-2.00293,0-3.383789-1.100586-3.472656-2.775391h1.189453
		c0.109375,1.039062,0.998047,1.702148,2.269531,1.702148c1.298828,0,2.22168-0.745117,2.22168-1.852539
		c0-1.141602-0.854492-1.852539-2.242188-1.852539h-1.223633V258.280273z"/>
	<path fill="#27282C" d="M445.350586,261.582031h1.264648c0.259766,0.888672,1.011719,1.428711,1.982422,1.428711
		c1.606445,0,2.515625-1.421875,2.583984-4.046875h-0.109375c-0.485352,0.957031-1.449219,1.517578-2.625,1.517578
		c-1.879883,0-3.240234-1.387695-3.240234-3.301758c0-1.982422,1.435547-3.397461,3.458984-3.397461
		c2.125977,0,3.711914,1.633789,3.711914,4.990234c0,3.390625-1.380859,5.332031-3.793945,5.332031
		C446.90918,264.104492,445.658203,263.133789,445.350586,261.582031z M450.908203,257.179688
		c0-1.319336-0.963867-2.317383-2.228516-2.317383s-2.228516,0.984375-2.228516,2.276367
		c0,1.34668,0.90918,2.276367,2.214844,2.276367S450.908203,258.485352,450.908203,257.179688z"/>
</g>
<g opacity="0.7">
	<path fill="#27282C" d="M583.102539,267.782227c1.722656,0,3.041992,1.168945,3.041992,2.768555
		c0,1.134766-0.492188,1.955078-2.269531,3.793945l-2.242188,2.317383v0.109375h4.675781v1.107422h-6.384766v-0.847656
		l3.335938-3.609375c1.257812-1.360352,1.626953-1.873047,1.626953-2.741211c0-1.045898-0.704102-1.825195-1.866211-1.825195
		c-1.182617,0-1.96875,0.772461-1.96875,1.941406h-1.189453C579.862305,269.040039,581.21582,267.782227,583.102539,267.782227z"/>
	<path fill="#27282C" d="M588.263672,277.058594c0-0.492188,0.40332-0.888672,0.888672-0.888672
		c0.492188,0,0.888672,0.396484,0.888672,0.888672c0,0.485352-0.396484,0.888672-0.888672,0.888672
		C588.666992,277.947266,588.263672,277.543945,588.263672,277.058594z"/>
	<path fill="#27282C" d="M594.210938,269.381836h-0.109375l-2.508789,1.818359v-1.298828l2.625-1.886719h1.223633v9.864258
		h-1.230469V269.381836z"/>
	<path fill="#27282C" d="M600.739258,269.381836h-0.109375l-2.508789,1.818359v-1.298828l2.625-1.886719h1.223633v9.864258
		h-1.230469V269.381836z"/>
</g>
<g opacity="0.7">
	<path fill="#27282C" d="M412.518555,293.745117h-0.109375l-2.508789,1.818359v-1.298828l2.625-1.886719h1.223633v9.864258
		h-1.230469V293.745117z"/>
	<path fill="#27282C" d="M416.435547,301.421875c0-0.492188,0.40332-0.888672,0.888672-0.888672
		c0.492188,0,0.888672,0.396484,0.888672,0.888672c0,0.485352-0.396484,0.888672-0.888672,0.888672
		C416.838867,302.310547,416.435547,301.907227,416.435547,301.421875z"/>
	<path fill="#27282C" d="M422.164062,296.643555h1.168945c1.134766,0,1.941406-0.724609,1.941406-1.75
		c0-0.922852-0.704102-1.674805-1.893555-1.674805s-1.961914,0.608398-2.064453,1.71582h-1.196289
		c0.123047-1.606445,1.34668-2.789062,3.342773-2.789062c1.948242,0,3.069336,1.230469,3.0625,2.611328
		c-0.006836,1.189453-0.745117,1.975586-1.756836,2.269531v0.109375c1.27832,0.205078,2.125977,1.073242,2.125977,2.447266
		c0,1.654297-1.510742,2.891602-3.472656,2.891602c-2.00293,0-3.383789-1.100586-3.472656-2.775391h1.189453
		c0.109375,1.039062,0.998047,1.702148,2.269531,1.702148c1.298828,0,2.22168-0.745117,2.22168-1.852539
		c0-1.141602-0.854492-1.852539-2.242188-1.852539h-1.223633V296.643555z"/>
	<path fill="#27282C" d="M432.048828,292.145508c1.722656,0,3.041992,1.168945,3.041992,2.768555
		c0,1.134766-0.492188,1.955078-2.269531,3.793945l-2.242188,2.317383v0.109375h4.675781v1.107422h-6.384766v-0.847656
		l3.335938-3.609375c1.257812-1.360352,1.626953-1.873047,1.626953-2.741211c0-1.045898-0.704102-1.825195-1.866211-1.825195
		c-1.182617,0-1.96875,0.772461-1.96875,1.941406h-1.189453C428.808594,293.40332,430.162109,292.145508,432.048828,292.145508z"/>
</g>
<g opacity="0.7">
	<path fill="#27282C" d="M456.836914,307.745117h-0.109375l-2.508789,1.818359v-1.298828l2.625-1.886719h1.223633v9.864258
		h-1.230469V307.745117z"/>
	<path fill="#27282C" d="M460.753906,315.421875c0-0.492188,0.40332-0.888672,0.888672-0.888672
		c0.492188,0,0.888672,0.396484,0.888672,0.888672c0,0.485352-0.396484,0.888672-0.888672,0.888672
		C461.157227,316.310547,460.753906,315.907227,460.753906,315.421875z"/>
	<path fill="#27282C" d="M464.342773,313.637695h1.209961c0.109375,1.052734,0.957031,1.756836,2.119141,1.756836
		c1.291992,0,2.146484-0.929688,2.146484-2.310547c0-1.333008-0.854492-2.228516-2.098633-2.228516
		c-0.936523,0-1.674805,0.430664-2.064453,1.162109H464.5l0.567383-5.639648h5.475586v1.100586h-4.511719l-0.307617,3.212891
		h0.109375c0.478516-0.594727,1.209961-0.895508,2.194336-0.895508c1.654297,0,3.021484,1.298828,3.021484,3.253906
		c0,2.030273-1.374023,3.424805-3.390625,3.424805C465.791992,316.474609,464.452148,315.326172,464.342773,313.637695z"/>
	<path fill="#27282C" d="M476.216797,306.145508c1.722656,0,3.041992,1.168945,3.041992,2.768555
		c0,1.134766-0.492188,1.955078-2.269531,3.793945l-2.242188,2.317383v0.109375h4.675781v1.107422h-6.384766v-0.847656
		l3.335938-3.609375c1.257812-1.360352,1.626953-1.873047,1.626953-2.741211c0-1.045898-0.704102-1.825195-1.866211-1.825195
		c-1.182617,0-1.96875,0.772461-1.96875,1.941406h-1.189453C472.976562,307.40332,474.330078,306.145508,476.216797,306.145508z"/>
</g>
<g opacity="0.7">
	<path fill="#27282C" d="M343.728027,335.754883c0-3.253906,1.291992-5.161133,3.5-5.161133
		c2.194336,0,3.486328,1.914062,3.486328,5.181641c0,3.274414-1.271484,5.147461-3.486328,5.147461
		C345.006348,340.922852,343.728027,339.036133,343.728027,335.754883z M349.477051,335.754883
		c0-2.618164-0.806641-4.081055-2.249023-4.081055s-2.262695,1.476562-2.262695,4.081055
		c0,2.638672,0.806641,4.094727,2.262695,4.094727S349.477051,338.400391,349.477051,335.754883z"/>
	<path fill="#27282C" d="M352.272949,339.870117c0-0.492188,0.40332-0.888672,0.888672-0.888672
		c0.492188,0,0.888672,0.396484,0.888672,0.888672c0,0.485352-0.396484,0.888672-0.888672,0.888672
		C352.67627,340.758789,352.272949,340.355469,352.272949,339.870117z"/>
	<path fill="#27282C" d="M355.711426,338.393555h1.264648c0.259766,0.888672,1.011719,1.428711,1.982422,1.428711
		c1.606445,0,2.515625-1.421875,2.583984-4.046875h-0.109375c-0.485352,0.957031-1.449219,1.517578-2.625,1.517578
		c-1.879883,0-3.240234-1.387695-3.240234-3.301758c0-1.982422,1.435547-3.397461,3.458984-3.397461
		c2.125977,0,3.711914,1.633789,3.711914,4.990234c0,3.390625-1.380859,5.332031-3.793945,5.332031
		C357.27002,340.916016,356.019043,339.945312,355.711426,338.393555z M361.269043,333.991211
		c0-1.319336-0.963867-2.317383-2.228516-2.317383s-2.228516,0.984375-2.228516,2.276367
		c0,1.34668,0.90918,2.276367,2.214844,2.276367S361.269043,335.296875,361.269043,333.991211z"/>
	<path fill="#27282C" d="M364.632324,338.393555h1.264648c0.259766,0.888672,1.011719,1.428711,1.982422,1.428711
		c1.606445,0,2.515625-1.421875,2.583984-4.046875h-0.109375c-0.485352,0.957031-1.449219,1.517578-2.625,1.517578
		c-1.879883,0-3.240234-1.387695-3.240234-3.301758c0-1.982422,1.435547-3.397461,3.458984-3.397461
		c2.125977,0,3.711914,1.633789,3.711914,4.990234c0,3.390625-1.380859,5.332031-3.793945,5.332031
		C366.190918,340.916016,364.939941,339.945312,364.632324,338.393555z M370.189941,333.991211
		c0-1.319336-0.963867-2.317383-2.228516-2.317383s-2.228516,0.984375-2.228516,2.276367
		c0,1.34668,0.90918,2.276367,2.214844,2.276367S370.189941,335.296875,370.189941,333.991211z"/>
</g>
<g opacity="0.7">
	<path fill="#27282C" d="M355.933594,346.136719h-0.109375l-2.508789,1.818359v-1.298828l2.625-1.886719h1.223633v9.864258
		h-1.230469V346.136719z"/>
	<path fill="#27282C" d="M359.850586,353.813477c0-0.492188,0.40332-0.888672,0.888672-0.888672
		c0.492188,0,0.888672,0.396484,0.888672,0.888672c0,0.485352-0.396484,0.888672-0.888672,0.888672
		C360.253906,354.702148,359.850586,354.298828,359.850586,353.813477z"/>
	<path fill="#27282C" d="M363.186523,349.698242c0-3.253906,1.291992-5.161133,3.5-5.161133
		c2.194336,0,3.486328,1.914062,3.486328,5.181641c0,3.274414-1.271484,5.147461-3.486328,5.147461
		C364.464844,354.866211,363.186523,352.979492,363.186523,349.698242z M368.935547,349.698242
		c0-2.618164-0.806641-4.081055-2.249023-4.081055s-2.262695,1.476562-2.262695,4.081055
		c0,2.638672,0.806641,4.094727,2.262695,4.094727S368.935547,352.34375,368.935547,349.698242z"/>
	<path fill="#27282C" d="M372.155273,352.029297h1.209961c0.109375,1.052734,0.957031,1.756836,2.119141,1.756836
		c1.291992,0,2.146484-0.929688,2.146484-2.310547c0-1.333008-0.854492-2.228516-2.098633-2.228516
		c-0.936523,0-1.674805,0.430664-2.064453,1.162109H372.3125l0.567383-5.639648h5.475586v1.100586h-4.511719l-0.307617,3.212891
		h0.109375c0.478516-0.594727,1.209961-0.895508,2.194336-0.895508c1.654297,0,3.021484,1.298828,3.021484,3.253906
		c0,2.030273-1.374023,3.424805-3.390625,3.424805C373.604492,354.866211,372.264648,353.717773,372.155273,352.029297z"/>
</g>
<g opacity="0.7">
	<path fill="#27282C" d="M346.271484,370.47168h-0.109375l-2.508789,1.818359v-1.298828l2.625-1.886719h1.223633v9.864258h-1.230469
		V370.47168z"/>
	<path fill="#27282C" d="M350.188477,378.148438c0-0.492188,0.40332-0.888672,0.888672-0.888672
		c0.492188,0,0.888672,0.396484,0.888672,0.888672c0,0.485352-0.396484,0.888672-0.888672,0.888672
		C350.591797,379.037109,350.188477,378.633789,350.188477,378.148438z"/>
	<path fill="#27282C" d="M353.524414,374.033203c0-3.253906,1.291992-5.161133,3.5-5.161133
		c2.194336,0,3.486328,1.914062,3.486328,5.181641c0,3.274414-1.271484,5.147461-3.486328,5.147461
		C354.802734,379.201172,353.524414,377.314453,353.524414,374.033203z M359.273438,374.033203
		c0-2.618164-0.806641-4.081055-2.249023-4.081055s-2.262695,1.476562-2.262695,4.081055
		c0,2.638672,0.806641,4.094727,2.262695,4.094727S359.273438,376.678711,359.273438,374.033203z"/>
	<path fill="#27282C" d="M362.342773,374.033203c0-3.253906,1.291992-5.161133,3.5-5.161133
		c2.194336,0,3.486328,1.914062,3.486328,5.181641c0,3.274414-1.271484,5.147461-3.486328,5.147461
		C363.621094,379.201172,362.342773,377.314453,362.342773,374.033203z M368.091797,374.033203
		c0-2.618164-0.806641-4.081055-2.249023-4.081055s-2.262695,1.476562-2.262695,4.081055
		c0,2.638672,0.806641,4.094727,2.262695,4.094727S368.091797,376.678711,368.091797,374.033203z"/>
</g>
<g opacity="0.7">
	<path fill="#27282C" d="M346.187012,423.834961h-0.109375l-2.508789,1.818359v-1.298828l2.625-1.886719h1.223633v9.864258
		h-1.230469V423.834961z"/>
	<path fill="#27282C" d="M350.104004,431.511719c0-0.492188,0.40332-0.888672,0.888672-0.888672
		c0.492188,0,0.888672,0.396484,0.888672,0.888672c0,0.485352-0.396484,0.888672-0.888672,0.888672
		C350.507324,432.400391,350.104004,431.99707,350.104004,431.511719z"/>
	<path fill="#27282C" d="M353.439941,427.396484c0-3.253906,1.291992-5.161133,3.5-5.161133
		c2.194336,0,3.486328,1.914062,3.486328,5.181641c0,3.274414-1.271484,5.147461-3.486328,5.147461
		C354.718262,432.564453,353.439941,430.677734,353.439941,427.396484z M359.188965,427.396484
		c0-2.618164-0.806641-4.081055-2.249023-4.081055s-2.262695,1.476562-2.262695,4.081055
		c0,2.638672,0.806641,4.094727,2.262695,4.094727S359.188965,430.041992,359.188965,427.396484z"/>
	<path fill="#27282C" d="M362.258301,427.396484c0-3.253906,1.291992-5.161133,3.5-5.161133
		c2.194336,0,3.486328,1.914062,3.486328,5.181641c0,3.274414-1.271484,5.147461-3.486328,5.147461
		C363.536621,432.564453,362.258301,430.677734,362.258301,427.396484z M368.007324,427.396484
		c0-2.618164-0.806641-4.081055-2.249023-4.081055s-2.262695,1.476562-2.262695,4.081055
		c0,2.638672,0.806641,4.094727,2.262695,4.094727S368.007324,430.041992,368.007324,427.396484z"/>
</g>
<g opacity="0.7">
	<path fill="#27282C" d="M382.320312,384.362305h-0.109375l-2.508789,1.818359v-1.298828l2.625-1.886719h1.223633v9.864258
		h-1.230469V384.362305z"/>
	<path fill="#27282C" d="M386.237305,392.039062c0-0.492188,0.40332-0.888672,0.888672-0.888672
		c0.492188,0,0.888672,0.396484,0.888672,0.888672c0,0.485352-0.396484,0.888672-0.888672,0.888672
		C386.640625,392.927734,386.237305,392.524414,386.237305,392.039062z"/>
	<path fill="#27282C" d="M392.18457,384.362305h-0.109375l-2.508789,1.818359v-1.298828l2.625-1.886719h1.223633v9.864258h-1.230469
		V384.362305z"/>
	<path fill="#27282C" d="M401.194336,384.191406v-0.095703h-5.277344v-1.100586h6.52832v1.141602l-4.388672,8.722656h-1.291992
		L401.194336,384.191406z"/>
</g>
<g opacity="0.7">
	<path fill="#27282C" d="M323.436035,413.026367c0-3.253906,1.291992-5.161133,3.5-5.161133
		c2.194336,0,3.486328,1.914062,3.486328,5.181641c0,3.274414-1.271484,5.147461-3.486328,5.147461
		C324.714355,418.194336,323.436035,416.307617,323.436035,413.026367z M329.185059,413.026367
		c0-2.618164-0.806641-4.081055-2.249023-4.081055s-2.262695,1.476562-2.262695,4.081055
		c0,2.638672,0.806641,4.094727,2.262695,4.094727S329.185059,415.671875,329.185059,413.026367z"/>
	<path fill="#27282C" d="M331.980957,417.141602c0-0.492188,0.40332-0.888672,0.888672-0.888672
		c0.492188,0,0.888672,0.396484,0.888672,0.888672c0,0.485352-0.396484,0.888672-0.888672,0.888672
		C332.384277,418.030273,331.980957,417.626953,331.980957,417.141602z"/>
	<path fill="#27282C" d="M335.419434,415.665039h1.264648c0.259766,0.888672,1.011719,1.428711,1.982422,1.428711
		c1.606445,0,2.515625-1.421875,2.583984-4.046875h-0.109375c-0.485352,0.957031-1.449219,1.517578-2.625,1.517578
		c-1.879883,0-3.240234-1.387695-3.240234-3.301758c0-1.982422,1.435547-3.397461,3.458984-3.397461
		c2.125977,0,3.711914,1.633789,3.711914,4.990234c0,3.390625-1.380859,5.332031-3.793945,5.332031
		C336.978027,418.1875,335.727051,417.216797,335.419434,415.665039z M340.977051,411.262695
		c0-1.319336-0.963867-2.317383-2.228516-2.317383s-2.228516,0.984375-2.228516,2.276367
		c0,1.34668,0.90918,2.276367,2.214844,2.276367S340.977051,412.568359,340.977051,411.262695z"/>
	<path fill="#27282C" d="M346.780762,409.464844h-0.109375l-2.508789,1.818359v-1.298828l2.625-1.886719h1.223633v9.864258
		h-1.230469V409.464844z"/>
</g>
<g>
	<path fill="#27282C" d="M265.955078,57.92041c2.320312,0,3.90625,1.554688,3.90625,3.898438
		c0,2.320312-1.648438,3.875-4.023438,3.875h-2.226562v3.5h-2.359375V57.92041H265.955078z M263.611328,63.779785h1.710938
		c1.351562,0,2.140625-0.6875,2.140625-1.953125c0-1.28125-0.773438-1.96875-2.132812-1.96875h-1.71875V63.779785z"/>
	<path fill="#27282C" d="M279.470703,69.193848V64.48291h-5.078125v4.710938h-2.359375V57.92041h2.359375v4.546875h5.078125
		V57.92041h2.359375v11.273438H279.470703z"/>
	<path fill="#27282C" d="M289.267578,57.92041c2.320312,0,3.90625,1.554688,3.90625,3.898438
		c0,2.320312-1.648438,3.875-4.023438,3.875h-2.226562v3.5h-2.359375V57.92041H289.267578z M286.923828,63.779785h1.710938
		c1.351562,0,2.140625-0.6875,2.140625-1.953125c0-1.28125-0.773438-1.96875-2.132812-1.96875h-1.71875V63.779785z"/>
	<path fill="#27282C" d="M299.103516,66.186035c0-1.414062,0.976562-2.546875,2.484375-2.882812v-0.140625
		c-1.226562-0.28125-2.03125-1.257812-2.03125-2.453125c0-1.796875,1.703125-3.078125,4.101562-3.078125
		c2.390625,0,4.09375,1.28125,4.09375,3.078125c0,1.203125-0.796875,2.164062-2.03125,2.453125v0.140625
		c1.5,0.28125,2.492188,1.421875,2.492188,2.859375c0,1.976562-1.851562,3.320312-4.5625,3.320312
		S299.103516,68.146973,299.103516,66.186035z M305.751953,65.967285c0-1.03125-0.859375-1.742188-2.101562-1.742188
		c-1.234375,0-2.09375,0.710938-2.09375,1.742188c0,1.023438,0.859375,1.734375,2.09375,1.734375
		C304.892578,67.70166,305.751953,66.990723,305.751953,65.967285z M305.423828,60.936035
		c0-0.914062-0.726562-1.554688-1.773438-1.554688s-1.765625,0.640625-1.765625,1.554688
		c0,0.90625,0.726562,1.546875,1.765625,1.546875C304.697266,62.48291,305.423828,61.842285,305.423828,60.936035z"/>
	<path fill="#27282C" d="M324.119141,69.193848h-2.421875l-1.539062-5.945312h-0.140625l-1.523438,5.945312h-2.390625
		l-2.296875-8.617188h2.304688l1.28125,6.179688h0.140625l1.507812-6.179688h2.171875l1.515625,6.179688h0.140625l1.28125-6.179688
		h2.257812L324.119141,69.193848z"/>
	<path fill="#27282C" d="M327.892578,57.98291c0-0.726562,0.585938-1.296875,1.289062-1.296875
		c0.710938,0,1.289062,0.570312,1.289062,1.296875s-0.578125,1.304688-1.289062,1.304688
		C328.478516,59.287598,327.892578,58.709473,327.892578,57.98291z M328.041016,60.57666h2.273438v8.617188h-2.273438V60.57666z"/>
	<path fill="#27282C" d="M335.533203,58.529785v2.132812h1.789062v1.789062h-1.789062v3.875
		c0,0.75,0.34375,1.09375,1.117188,1.09375c0.296875,0,0.453125-0.007812,0.671875-0.03125v1.734375
		c-0.28125,0.054688-0.703125,0.101562-1.140625,0.101562c-2.09375,0-2.921875-0.679688-2.921875-2.359375V62.45166h-1.34375
		v-1.789062h1.34375v-2.132812H335.533203z"/>
	<path fill="#27282C" d="M339.291016,57.287598h2.234375v4.703125h0.140625c0.398438-0.984375,1.335938-1.578125,2.601562-1.578125
		c1.851562,0,2.953125,1.164062,2.953125,3.234375v5.546875h-2.273438v-5.007812c0-1.195312-0.554688-1.8125-1.585938-1.8125
		c-1.140625,0-1.796875,0.757812-1.796875,1.875v4.945312h-2.273438V57.287598z"/>
	<path fill="#27282C" d="M349.001953,64.881348c0-2.789062,1.617188-4.492188,4.242188-4.492188
		s4.242188,1.695312,4.242188,4.492188c0,2.820312-1.59375,4.5-4.242188,4.5S349.001953,67.70166,349.001953,64.881348z
		 M355.150391,64.881348c0-1.65625-0.703125-2.632812-1.90625-2.632812c-1.210938,0-1.90625,0.976562-1.90625,2.632812
		c0,1.679688,0.6875,2.640625,1.90625,2.640625C354.455078,67.521973,355.150391,66.553223,355.150391,64.881348z"/>
	<path fill="#27282C" d="M367.134766,69.193848h-2.203125v-1.382812h-0.140625c-0.40625,1-1.210938,1.570312-2.515625,1.570312
		c-1.859375,0-3.015625-1.1875-3.015625-3.1875V60.57666h2.273438v5.03125c0,1.1875,0.539062,1.796875,1.585938,1.796875
		c1.132812,0,1.742188-0.710938,1.742188-1.859375v-4.96875h2.273438V69.193848z"/>
	<path fill="#27282C" d="M372.337891,58.529785v2.132812h1.789062v1.789062h-1.789062v3.875
		c0,0.75,0.34375,1.09375,1.117188,1.09375c0.296875,0,0.453125-0.007812,0.671875-0.03125v1.734375
		c-0.28125,0.054688-0.703125,0.101562-1.140625,0.101562c-2.09375,0-2.921875-0.679688-2.921875-2.359375V62.45166h-1.34375
		v-1.789062h1.34375v-2.132812H372.337891z"/>
	<path fill="#27282C" d="M381.876953,65.881348c0.015625,0.90625,0.609375,1.492188,1.515625,1.492188
		c0.96875,0,1.5-0.585938,1.5-1.695312V57.92041h2.359375v7.773438c0,2.429688-1.4375,3.789062-3.828125,3.789062
		c-2.3125,0-3.828125-1.390625-3.828125-3.601562H381.876953z"/>
	<path fill="#27282C" d="M389.986328,69.193848V57.92041h2.359375v11.273438H389.986328z"/>
	<path fill="#27282C" d="M397.814453,69.193848v-9.257812h-3.382812V57.92041h9.125v2.015625h-3.382812v9.257812H397.814453z"/>
</g>
<rect x="336.198242" y="76.044434" fill="#27282C" width="1" height="326.942871"/>
<rect x="336.198242" y="420.332031" fill="#27282C" width="1" height="25.119141"/>
<rect x="120.998627" y="7.377192" fill="#505C90" width="12" height="12"/>
<rect x="120.998627" y="32.004192" opacity="0.6" fill="#979797" width="12" height="12"/>
</svg>
