<svg xmlns="http://www.w3.org/2000/svg" width="21" height="16" viewBox="0 0 21 16">
    <g fill="#505C90" fill-rule="evenodd">
        <path d="M18.914 1.328c-1.771-1.77-4.643-1.77-6.414 0L8 5.828l1.414 1.414 4.5-4.5c.99-.99 2.596-.99 3.586 0 .99.99.99 2.596 0 3.586l-4.5 4.5 1.414 1.414 4.5-4.5c1.77-1.771 1.77-4.643 0-6.414z" transform="translate(-622 -1049) translate(622 1049)"/>
        <path d="M6.328 12.5c-.64.643-1.574.894-2.45.66-.877-.234-1.561-.919-1.796-1.795-.234-.876.018-1.81.66-2.45l4.5-4.5L5.828 3l-4.5 4.5c-1.77 1.771-1.77 4.643 0 6.414 1.772 1.771 4.643 1.771 6.414 0l4.5-4.5L10.828 8l-4.5 4.5z" transform="translate(-622 -1049) translate(622 1049)"/>
    </g>
</svg>
