<svg xmlns="http://www.w3.org/2000/svg" width="343" height="126" viewBox="0 0 343 126">
    <g fill="#FFF">
        <path d="M51.064 41.386c7.962 0 13.268 1.468 15.921 4.408 2.652 2.94 3.283 7.986 1.896 15.136-1.45 7.446-4.238 12.761-8.375 15.945-4.136 3.185-10.43 4.775-18.879 4.775H28.879l7.825-40.264h14.36zM0 122.41h20.958l4.972-25.578h17.95c7.922 0 14.437-.83 19.554-2.496 5.115-1.662 9.763-4.453 13.948-8.37 3.513-3.227 6.353-6.788 8.53-10.682 2.173-3.89 3.718-8.186 4.631-12.885 2.217-11.404.543-20.287-5.016-26.65C79.97 29.386 71.124 26.204 59 26.204H18.7L0 122.41M105.935.626h20.792l-4.971 25.578h18.523c11.656 0 19.695 2.033 24.12 6.098 4.424 4.065 5.75 10.654 3.98 19.761l-8.7 44.77h-21.122l8.271-42.568c.942-4.842.597-8.145-1.039-9.907-1.634-1.761-5.112-2.642-10.432-2.642h-16.618l-10.71 55.116H87.234l18.7-96.206M214.643 41.386c7.962 0 13.268 1.468 15.921 4.408 2.652 2.94 3.284 7.986 1.896 15.136-1.45 7.446-4.238 12.761-8.375 15.945-4.136 3.185-10.43 4.775-18.879 4.775h-12.748l7.825-40.264h14.36zm-51.064 81.024h20.958l4.97-25.578h17.952c7.92 0 14.436-.83 19.553-2.496 5.115-1.662 9.764-4.453 13.949-8.37 3.512-3.227 6.353-6.788 8.53-10.682 2.173-3.89 3.718-8.186 4.63-12.885 2.218-11.404.545-20.287-5.014-26.65-5.56-6.363-14.404-9.545-26.528-9.545h-40.302L163.58 122.41" transform="translate(-548 -112) translate(548 112) translate(0 3)"/>
        <path d="M316.964 48.124c-5.653-13.604-10.537-25.357-5.765-33.57 1.773-2.492 3.8-3.755 6.022-3.755 4.474 0 8.56 4.893 8.6 4.943l5.701 6.92-3.564-8.225C327.702 13.847 321.573 0 310.573 0c-3.847 0-7.787 1.732-11.71 5.146l-.125.127c-9.51 10.993-.159 31.75 8.091 50.062l.02.044 6.122 14.232s.64.51 0 0c2.837 7.27 5.561 16.01 3.86 22.373-2.648 9.976-11.504 16.849-11.593 16.917l-5.736 4.393 6.887-2.184c.651-.206 16.007-5.212 19.685-18.518 2.301-10.89-.596-21.788-3.531-30.233.382-.315-.393.333 0 0l-5.348-13.677" transform="translate(-548 -112) translate(548 112)"/>
    </g>
    <path fill="#0F0F0F" d="M333.91 9.388l-7.136-7.79 5.096 9.254c.064.115 6.257 11.682-1.563 25.209-2.945 4.166-7.35 8.407-13.112 12.62l-10.365 6.656c-.111-.248-.056-.124 0-.002l-.365.264.053-.01-.053.01C295 62.194 284.278 66.235 284.099 66.306c-15.94 7.096-25.877 18.145-27.261 30.313-1.05 9.23 3.168 18.153 11.572 24.482l.11.074c5.283 3.17 10.999 4.778 16.987 4.778 15.74 0 28.016-10.891 28.532-11.356l7.654-6.893-9.093 4.838c-.077.04-7.65 4.02-15.569 4.02-7.06 0-12.14-3.149-15.101-9.36-3.783-13.45 9.477-22.629 24.826-33.25 2.037-1.41 4.133-2.86 6.215-4.34.012.033.116-.119.13-.086l9.084-6.75c.137-.214.37-.38.358-.417 7.548-6.222 17.414-15.901 19.717-29.482 1.781-12.267-7.937-23.037-8.35-23.49z" transform="translate(-548 -112) translate(548 112)"/>
</svg>
