<?xml version="1.0" encoding="utf-8"?>
<!-- Generator: Adobe Illustrator 24.3.2, SVG Export Plug-In . SVG Version: 6.00 Build 0)  -->
<svg version="1.1" id="Слой_1" xmlns="http://www.w3.org/2000/svg" xmlns:xlink="http://www.w3.org/1999/xlink" x="0px" y="0px"
	 viewBox="0 0 417 126" style="enable-background:new 0 0 417 126;" xml:space="preserve">
<style type="text/css">
	.st0{fill:none;}
	.st1{fill-rule:evenodd;clip-rule:evenodd;fill:#FFFFFF;}
	.st2{fill:#FFFFFF;}
	.st3{fill:#0F0F0F;}
</style>
<g>
	<rect y="0" class="st0" width="417" height="126"/>
	<path class="st1" d="M21.4,125.4h-21l18.7-96.2h40.3c12.1,0,21,3.2,26.5,9.5c5.6,6.4,7.2,15.2,5,26.7c-0.9,4.7-2.5,9-4.6,12.9
		c-2.2,3.9-5,7.5-8.5,10.7c-4.2,3.9-8.8,6.7-13.9,8.4s-11.6,2.5-19.6,2.5h-18L21.4,125.4z M67.4,48.8c-2.7-2.9-8-4.4-15.9-4.4H37.1
		l-7.8,40.3H42c8.4,0,14.7-1.6,18.9-4.8c4.1-3.2,6.9-8.5,8.4-15.9C70.7,56.8,70,51.8,67.4,48.8z"/>
	<path class="st2" d="M106.3,3.6h20.8l-5,25.6h18.5c11.7,0,19.7,2,24.1,6.1c4.4,4.1,5.8,10.7,4,19.8L160,99.9h-21.1l8.3-42.6
		c0.9-4.8,0.6-8.1-1-9.9c-1.6-1.8-5.1-2.6-10.4-2.6h-16.6l-10.7,55.1H87.6L106.3,3.6z"/>
	<path class="st1" d="M184.9,125.4h-21l18.7-96.2H223c12.1,0,21,3.2,26.5,9.5c5.6,6.4,7.2,15.2,5,26.7c-0.9,4.7-2.5,9-4.6,12.9
		c-2.2,3.9-5,7.5-8.5,10.7c-4.2,3.9-8.8,6.7-13.9,8.4s-11.6,2.5-19.6,2.5h-18L184.9,125.4z M231,48.8c-2.7-2.9-8-4.4-15.9-4.4h-14.4
		l-7.8,40.3h12.7c8.4,0,14.7-1.6,18.9-4.8c4.1-3.2,6.9-8.5,8.4-15.9C234.2,56.8,233.6,51.8,231,48.8z"/>
	<path class="st2" d="M317.4,48c-5.7-13.6-10.5-25.4-5.8-33.6c1.8-2.5,3.8-3.8,6-3.8c4.5,0,8.6,4.9,8.6,4.9l5.7,6.9l-3.6-8.2
		C328.1,13.9,322,0,311,0c-3.8,0-7.8,1.7-11.7,5.1l-0.1,0.1c-9.5,11-0.2,31.8,8.1,50.1l6.1,14.2c0,0,0.6,0.5,0,0
		c2.8,7.3,5.6,16,3.9,22.4c-2.6,10-11.5,16.8-11.6,16.9l-5.7,4.4l6.9-2.2c0.7-0.2,16-5.2,19.7-18.5c2.3-10.9-0.6-21.8-3.5-30.2
		c0.4-0.3-0.4,0.3,0,0l-5.3-13.7"/>
	<path class="st3" d="M334.3,9.4l-7.1-7.8l5.1,9.3c0.1,0.1,6.3,11.7-1.6,25.2c-2.9,4.2-7.4,8.4-13.1,12.6l-10.4,6.7
		c-0.1-0.2-0.1-0.1,0,0l-0.4,0.3h0.1h-0.1c-11.5,6.6-22.2,10.6-22.4,10.7c-15.9,7.1-25.9,18.1-27.3,30.3
		c-1.1,9.2,3.2,18.2,11.6,24.5l0.1,0.1c5.3,3.2,11,4.8,17,4.8c15.7,0,28-10.9,28.5-11.4l7.7-6.9l-9.1,4.8c-0.1,0-7.7,4-15.6,4
		c-7.1,0-12.1-3.1-15.1-9.4c-3.8-13.4,9.5-22.6,24.8-33.2c2-1.4,4.1-2.9,6.2-4.3l0.1-0.1l9.1-6.8c0.1-0.2,0.4-0.4,0.4-0.4
		c7.5-6.2,17.4-15.9,19.7-29.5C344.4,20.6,334.7,9.9,334.3,9.4z"/>
	<path class="st2" d="M347.4,81.3h19.9l-6.5,22.8h-19.9L347.4,81.3z"/>
	<path class="st2" d="M390.9,47L379,50.5V33.9l20.5-6.8h15l-15.2,77.1h-19.4L390.9,47z"/>
</g>
</svg>
