<svg xmlns="http://www.w3.org/2000/svg" id="Слой_2" data-name="Слой 2" viewBox="1.52 112.37 747.72 198.39"><rect x="135.03053" y="298.75915" width="398.53535" height="12" fill="#505c90"/><rect x="135.03053" y="252.16203" width="394.91421" height="12" fill="#505c90"/><rect x="135.03053" y="205.56492" width="400.80719" height="12" fill="#505c90"/><rect x="135.03053" y="158.9678" width="520.4522" height="12" fill="#505c90"/><rect x="135.03053" y="112.37069" width="523.99803" height="12" fill="#505c90"/><g opacity="0.7"><path d="M669.37737,122.51465v-6.27H667.4096v-.81006h1.00781a1.20817,1.20817,0,0,0,.9209-.35693,1.32275,1.32275,0,0,0,.333-.96289h.70215v8.3999Z"/><path d="M672.69573,122.51465v-1.31983h1.31934v1.31983Z"/><path d="M676.52093,122.14551a3.27286,3.27286,0,0,1-1.14258-1.458,5.6037,5.6037,0,0,1-.40235-2.21094,6.31993,6.31993,0,0,1,.41407-2.38476,3.54293,3.54293,0,0,1,1.1582-1.57227,2.793,2.793,0,0,1,1.70312-.54883,3.49071,3.49071,0,0,1,1.71387.42578,2.49784,2.49784,0,0,1,1.125,1.3501h-.99609a1.63838,1.63838,0,0,0-.69922-.62695,2.34355,2.34355,0,0,0-1.08887-.249,2.03748,2.03748,0,0,0-1.19726.37207,2.51467,2.51467,0,0,0-.84864,1.17285,5.611,5.611,0,0,0-.32421,2.0249,2.30691,2.30691,0,0,1,.957-1.13379,2.932,2.932,0,0,1,1.58105-.41992,2.87488,2.87488,0,0,1,1.46094.375,2.68344,2.68344,0,0,1,1.01953,1.03516,2.96985,2.96985,0,0,1,.36914,1.47558,2.78534,2.78534,0,0,1-1.5,2.51123,3.28338,3.28338,0,0,1-1.57227.375A2.96384,2.96384,0,0,1,676.52093,122.14551Zm2.79882-.64209a1.83886,1.83886,0,0,0,.71387-.708,2.13709,2.13709,0,0,0-.00586-2.0459,1.9176,1.9176,0,0,0-.72851-.72265,2.08314,2.08314,0,0,0-1.04786-.26416,2.05467,2.05467,0,0,0-1.03417.26074,1.89091,1.89091,0,0,0-.72071.72021,2.03469,2.03469,0,0,0-.26074,1.02295,1.99535,1.99535,0,0,0,.26367,1.023,1.87634,1.87634,0,0,0,.73535.71094,2.16462,2.16462,0,0,0,1.0586.2583A2.05992,2.05992,0,0,0,679.31975,121.50342Z"/><path d="M684.39886,122.14551a3.27286,3.27286,0,0,1-1.14258-1.458,5.6037,5.6037,0,0,1-.40235-2.21094,6.31993,6.31993,0,0,1,.41407-2.38476,3.54293,3.54293,0,0,1,1.1582-1.57227,2.793,2.793,0,0,1,1.70312-.54883,3.49071,3.49071,0,0,1,1.71387.42578,2.49784,2.49784,0,0,1,1.125,1.3501h-.99609a1.63844,1.63844,0,0,0-.69922-.62695,2.34355,2.34355,0,0,0-1.08887-.249,2.03748,2.03748,0,0,0-1.19726.37207,2.51467,2.51467,0,0,0-.84864,1.17285,5.61121,5.61121,0,0,0-.32422,2.0249,2.30693,2.30693,0,0,1,.957-1.13379,2.932,2.932,0,0,1,1.58105-.41992,2.87488,2.87488,0,0,1,1.46094.375,2.68344,2.68344,0,0,1,1.01953,1.03516,2.96985,2.96985,0,0,1,.36914,1.47558,2.78534,2.78534,0,0,1-1.5,2.51123,3.28338,3.28338,0,0,1-1.57227.375A2.96382,2.96382,0,0,1,684.39886,122.14551Zm2.79882-.64209a1.83893,1.83893,0,0,0,.71387-.708,2.13709,2.13709,0,0,0-.00586-2.0459,1.9176,1.9176,0,0,0-.72851-.72265,2.08314,2.08314,0,0,0-1.04786-.26416,2.05474,2.05474,0,0,0-1.03418.26074,1.891,1.891,0,0,0-.7207.72021,2.03469,2.03469,0,0,0-.26074,1.02295,1.99535,1.99535,0,0,0,.26367,1.023,1.87634,1.87634,0,0,0,.73535.71094,2.16462,2.16462,0,0,0,1.0586.2583A2.05992,2.05992,0,0,0,687.19768,121.50342Z"/><path d="M695.49261,114.50781a3.28132,3.28132,0,0,1,1.14355,1.458,5.6216,5.6216,0,0,1,.40137,2.21094,6.32013,6.32013,0,0,1-.41406,2.38476,3.543,3.543,0,0,1-1.15821,1.57227,2.793,2.793,0,0,1-1.70312.54883,3.488,3.488,0,0,1-1.71387-.42578,2.49784,2.49784,0,0,1-1.125-1.3501h.99609a1.63844,1.63844,0,0,0,.69922.627,2.34355,2.34355,0,0,0,1.08887.249,2.03536,2.03536,0,0,0,1.19727-.37207,2.50807,2.50807,0,0,0,.84863-1.17285,5.61121,5.61121,0,0,0,.32422-2.0249,2.3049,2.3049,0,0,1-.957,1.13379,2.93207,2.93207,0,0,1-1.58106.41992,2.87488,2.87488,0,0,1-1.46094-.375,2.68348,2.68348,0,0,1-1.01953-1.03515,2.96991,2.96991,0,0,1-.36914-1.47559,2.78537,2.78537,0,0,1,1.5-2.51123,3.28338,3.28338,0,0,1,1.57227-.375A2.96385,2.96385,0,0,1,695.49261,114.50781Zm-2.79883.6416a1.84561,1.84561,0,0,0-.71387.708,2.13805,2.13805,0,0,0,.00586,2.04639,1.91762,1.91762,0,0,0,.72852.72265,2.0831,2.0831,0,0,0,1.04785.26416,2.05471,2.05471,0,0,0,1.03418-.26074,1.88421,1.88421,0,0,0,.7207-.72021,2.03469,2.03469,0,0,0,.26074-1.023,1.99535,1.99535,0,0,0-.26367-1.02295,1.8828,1.8828,0,0,0-.73535-.71094,2.16456,2.16456,0,0,0-1.0586-.2583A2.06481,2.06481,0,0,0,692.69378,115.14941Z"/></g><g opacity="0.7"><path d="M667.145,169.11182v-6.27h-1.96777v-.81006H666.185a1.20816,1.20816,0,0,0,.9209-.35694,1.32267,1.32267,0,0,0,.333-.96289h.70215v8.39991Z"/><path d="M670.46331,169.11182V167.792h1.31933v1.31983Z"/><path d="M674.2885,168.74268a3.27278,3.27278,0,0,1-1.14257-1.458,5.6037,5.6037,0,0,1-.40235-2.21094,6.32022,6.32022,0,0,1,.41406-2.38477,3.543,3.543,0,0,1,1.15821-1.57226,2.793,2.793,0,0,1,1.70312-.54883,3.49071,3.49071,0,0,1,1.71387.42578,2.49784,2.49784,0,0,1,1.125,1.3501h-.99609a1.63844,1.63844,0,0,0-.69922-.62695,2.34356,2.34356,0,0,0-1.08887-.249,2.03758,2.03758,0,0,0-1.19727.37207,2.51475,2.51475,0,0,0-.84863,1.17286,5.61121,5.61121,0,0,0-.32422,2.0249,2.307,2.307,0,0,1,.957-1.13379,2.932,2.932,0,0,1,1.58106-.41992,2.87488,2.87488,0,0,1,1.46094.375,2.68348,2.68348,0,0,1,1.01953,1.03515,2.96986,2.96986,0,0,1,.36914,1.47559,2.78537,2.78537,0,0,1-1.5,2.51123,3.28338,3.28338,0,0,1-1.57227.375A2.96385,2.96385,0,0,1,674.2885,168.74268Zm2.79883-.64209a1.83913,1.83913,0,0,0,.71387-.708,2.13709,2.13709,0,0,0-.00586-2.0459,1.91765,1.91765,0,0,0-.72852-.72266,2.0831,2.0831,0,0,0-1.04785-.26416,2.05472,2.05472,0,0,0-1.03418.26075,1.89088,1.89088,0,0,0-.7207.72021,2.03469,2.03469,0,0,0-.26074,1.02295,1.99535,1.99535,0,0,0,.26367,1.023,1.87641,1.87641,0,0,0,.73535.71094,2.16456,2.16456,0,0,0,1.0586.2583A2.06,2.06,0,0,0,677.08733,168.10059Z"/><path d="M682.226,168.9707a2.80724,2.80724,0,0,1-1.04687-.78271,2.2971,2.2971,0,0,1-.50391-1.11621h1.02051a1.43663,1.43663,0,0,0,.35938.65722,1.94239,1.94239,0,0,0,.6875.46778,2.28649,2.28649,0,0,0,.89062.1709,2.00994,2.00994,0,0,0,1.02344-.25489,1.75,1.75,0,0,0,.68359-.71679,2.45456,2.45456,0,0,0,0-2.13038,1.72832,1.72832,0,0,0-.68652-.71386,2.15957,2.15957,0,0,0-1.76465-.1167,2.14648,2.14648,0,0,0-.60254.34765,1.59185,1.59185,0,0,0-.38086.44092h-.96l.17969-4.51172h4.99219v.91211h-4.12207l-.10254,2.66358a1.95778,1.95778,0,0,1,.81933-.63574,2.66978,2.66978,0,0,1,1.10059-.24024,2.83232,2.83232,0,0,1,1.44336.36914,2.61172,2.61172,0,0,1,.999,1.02588,3.0493,3.0493,0,0,1,.36035,1.49121,3.099,3.099,0,0,1-.375,1.53613,2.65381,2.65381,0,0,1-1.05371,1.04688,3.15387,3.15387,0,0,1-1.55371.375A3.42094,3.42094,0,0,1,682.226,168.9707Z"/><path d="M689.68792,168.93164a2.57677,2.57677,0,0,1-1.10449-.83984,2.111,2.111,0,0,1-.17676-2.166,2.12992,2.12992,0,0,1,.6123-.73486,2.33006,2.33006,0,0,1,.90821-.42334,1.81041,1.81041,0,0,1-.76465-.38379,1.93209,1.93209,0,0,1-.51563-.687,2.09478,2.09478,0,0,1-.18359-.873,1.944,1.944,0,0,1,.36328-1.16113,2.381,2.381,0,0,1,1.00488-.78858,3.92176,3.92176,0,0,1,2.91309-.00341,2.33408,2.33408,0,0,1,.999.78906,1.968,1.968,0,0,1,.36035,1.16406,2.12375,2.12375,0,0,1-.18066.873,1.92092,1.92092,0,0,1-.50684.687,1.76115,1.76115,0,0,1-.75293.38379,2.2526,2.2526,0,0,1,.89454.41748,2.12441,2.12441,0,0,1,.60546.73193,2.02313,2.02313,0,0,1,.21582.92676,2.05948,2.05948,0,0,1-.3955,1.24512,2.56634,2.56634,0,0,1-1.09864.84277,4.022,4.022,0,0,1-1.5957.30029A4.065,4.065,0,0,1,689.68792,168.93164Zm2.66406-.75879a1.69328,1.69328,0,0,0,.73145-.55224,1.33327,1.33327,0,0,0,.26464-.813,1.35586,1.35586,0,0,0-.26464-.82178,1.708,1.708,0,0,0-.73145-.55811,2.95849,2.95849,0,0,0-2.127,0,1.72371,1.72371,0,0,0-.73828.55811,1.345,1.345,0,0,0-.26661.82178,1.3226,1.3226,0,0,0,.26661.813,1.70906,1.70906,0,0,0,.73828.55224,2.99989,2.99989,0,0,0,2.127,0Zm-.14453-3.94824a1.49445,1.49445,0,0,0,.63574-.53076,1.38137,1.38137,0,0,0,.22852-.78614,1.29627,1.29627,0,0,0-.22852-.75585,1.48706,1.48706,0,0,0-.63574-.51319,2.22473,2.22473,0,0,0-.918-.18262,2.24853,2.24853,0,0,0-.9209.18262,1.50478,1.50478,0,0,0-.6416.51319,1.28472,1.28472,0,0,0-.23144.75585,1.36873,1.36873,0,0,0,.23144.78614,1.51157,1.51157,0,0,0,.6416.53076,2.18082,2.18082,0,0,0,.9209.189A2.15785,2.15785,0,0,0,692.20745,164.22461Z"/><path d="M703.74456,170.792a5.08415,5.08415,0,0,1-1.00488-1.332,7.32248,7.32248,0,0,1-.66016-1.75537,8.38907,8.38907,0,0,1,0-3.90576,7.31054,7.31054,0,0,1,.66016-1.75488,5.06817,5.06817,0,0,1,1.00488-1.332h.9541a5.977,5.977,0,0,0-1.04394,1.416,7.77436,7.77436,0,0,0-.68653,1.75781,7.2924,7.2924,0,0,0,0,3.73487,7.61663,7.61663,0,0,0,.68945,1.7583,6.06288,6.06288,0,0,0,1.04688,1.41308Z"/><path d="M706.145,166.08789v-.83984h4.02051v.83984Z"/><path d="M713.40862,168.728a3.34262,3.34262,0,0,1-1.13183-1.50635,6.1062,6.1062,0,0,1-.39551-2.29785,6.17394,6.17394,0,0,1,.39551-2.31006,3.36174,3.36174,0,0,1,1.13183-1.51514,3.06729,3.06729,0,0,1,3.44922,0,3.35323,3.35323,0,0,1,1.13086,1.51514,6.154,6.154,0,0,1,.39648,2.31006,6.08652,6.08652,0,0,1-.39648,2.29785,3.33414,3.33414,0,0,1-1.13086,1.50635,3.08137,3.08137,0,0,1-3.44922,0Zm2.90332-.79541a2.59739,2.59739,0,0,0,.77149-1.18457,6.33781,6.33781,0,0,0,0-3.65723,2.63751,2.63751,0,0,0-.77149-1.19385,1.87958,1.87958,0,0,0-2.35742-.00293,2.60925,2.60925,0,0,0-.77148,1.188,6.3459,6.3459,0,0,0,0,3.65967,2.60925,2.60925,0,0,0,.77148,1.188,1.89,1.89,0,0,0,2.35742.00293Z"/><path d="M719.34612,169.11182V167.792h1.31934v1.31983Z"/><path d="M723.17132,168.74268a3.27286,3.27286,0,0,1-1.14258-1.458,5.6037,5.6037,0,0,1-.40235-2.21094,6.32,6.32,0,0,1,.41407-2.38477,3.543,3.543,0,0,1,1.1582-1.57226,2.793,2.793,0,0,1,1.70313-.54883,3.49068,3.49068,0,0,1,1.71386.42578,2.49784,2.49784,0,0,1,1.125,1.3501h-.99609a1.63838,1.63838,0,0,0-.69922-.62695,2.34356,2.34356,0,0,0-1.08887-.249,2.03755,2.03755,0,0,0-1.19726.37207,2.5147,2.5147,0,0,0-.84864,1.17286,5.611,5.611,0,0,0-.32421,2.0249,2.30691,2.30691,0,0,1,.957-1.13379,2.93192,2.93192,0,0,1,1.58105-.41992,2.87488,2.87488,0,0,1,1.46094.375,2.68341,2.68341,0,0,1,1.01953,1.03515,2.96986,2.96986,0,0,1,.36914,1.47559,2.78537,2.78537,0,0,1-1.5,2.51123,3.28337,3.28337,0,0,1-1.57226.375A2.96385,2.96385,0,0,1,723.17132,168.74268Zm2.79882-.64209a1.839,1.839,0,0,0,.71387-.708,2.13709,2.13709,0,0,0-.00586-2.0459,1.91762,1.91762,0,0,0-.72851-.72266,2.08313,2.08313,0,0,0-1.04785-.26416,2.05469,2.05469,0,0,0-1.03418.26075,1.891,1.891,0,0,0-.72071.72021,2.03469,2.03469,0,0,0-.26074,1.02295,1.99535,1.99535,0,0,0,.26367,1.023,1.87641,1.87641,0,0,0,.73535.71094,2.16462,2.16462,0,0,0,1.0586.2583A2.05992,2.05992,0,0,0,725.97014,168.10059Z"/><path d="M731.08245,168.93164a2.57683,2.57683,0,0,1-1.10449-.83984,2.111,2.111,0,0,1-.17676-2.166,2.12992,2.12992,0,0,1,.6123-.73486,2.33006,2.33006,0,0,1,.90821-.42334,1.81041,1.81041,0,0,1-.76465-.38379,1.93209,1.93209,0,0,1-.51563-.687,2.09478,2.09478,0,0,1-.18359-.873,1.944,1.944,0,0,1,.36328-1.16113,2.381,2.381,0,0,1,1.00488-.78858,3.92176,3.92176,0,0,1,2.91309-.00341,2.33408,2.33408,0,0,1,.999.78906,1.968,1.968,0,0,1,.36036,1.16406,2.12376,2.12376,0,0,1-.18067.873,1.921,1.921,0,0,1-.50683.687,1.7612,1.7612,0,0,1-.75293.38379,2.25262,2.25262,0,0,1,.89453.41748,2.12455,2.12455,0,0,1,.60547.73193,2.02326,2.02326,0,0,1,.21582.92676,2.05948,2.05948,0,0,1-.39551,1.24512,2.56624,2.56624,0,0,1-1.09863.84277,4.02206,4.02206,0,0,1-1.59571.30029A4.065,4.065,0,0,1,731.08245,168.93164Zm2.66406-.75879a1.69317,1.69317,0,0,0,.73145-.55224,1.33328,1.33328,0,0,0,.26465-.813,1.35587,1.35587,0,0,0-.26465-.82178,1.70789,1.70789,0,0,0-.73145-.55811,2.95849,2.95849,0,0,0-2.12695,0,1.72377,1.72377,0,0,0-.73828.55811,1.34494,1.34494,0,0,0-.2666.82178,1.32259,1.32259,0,0,0,.2666.813,1.70911,1.70911,0,0,0,.73828.55224,2.99989,2.99989,0,0,0,2.12695,0Zm-.14453-3.94824a1.49439,1.49439,0,0,0,.63574-.53076,1.38137,1.38137,0,0,0,.22852-.78614,1.29627,1.29627,0,0,0-.22852-.75585,1.487,1.487,0,0,0-.63574-.51319,2.2247,2.2247,0,0,0-.918-.18262,2.24853,2.24853,0,0,0-.9209.18262,1.50478,1.50478,0,0,0-.6416.51319,1.28479,1.28479,0,0,0-.23144.75585,1.36881,1.36881,0,0,0,.23144.78614,1.51157,1.51157,0,0,0,.6416.53076,2.18082,2.18082,0,0,0,.9209.189A2.15781,2.15781,0,0,0,733.602,164.22461Z"/><path d="M738.24651,164.3208a1.81784,1.81784,0,0,1-.70508-.71094,2.24142,2.24142,0,0,1,0-2.07617,1.82113,1.82113,0,0,1,.70508-.71094,2.03108,2.03108,0,0,1,1.01953-.25488,2.0655,2.0655,0,0,1,1.0293.25488,1.82189,1.82189,0,0,1,.708.71094,2.24142,2.24142,0,0,1,0,2.07617,1.81861,1.81861,0,0,1-.708.71094,2.0655,2.0655,0,0,1-1.0293.25488A2.03108,2.03108,0,0,1,738.24651,164.3208Zm.37207,4.791h-.91211l6.26367-8.39991h.91211Zm1.23828-5.48389a1.06774,1.06774,0,0,0,.40528-.43213,1.42812,1.42812,0,0,0,0-1.248,1.0709,1.0709,0,0,0-.40528-.43213,1.129,1.129,0,0,0-.59082-.15576,1.10269,1.10269,0,0,0-.582.15576,1.084,1.084,0,0,0-.40234.43213,1.428,1.428,0,0,0,0,1.248,1.08073,1.08073,0,0,0,.40234.43213,1.10269,1.10269,0,0,0,.582.15576A1.129,1.129,0,0,0,739.85686,163.62793Zm2.457,5.37305a1.82757,1.82757,0,0,1-.70507-.71094,2.24134,2.24134,0,0,1,0-2.07617,1.82425,1.82425,0,0,1,.70507-.71094,2.03479,2.03479,0,0,1,1.02051-.25488,2.0939,2.0939,0,0,1,1.03809.25488,1.81324,1.81324,0,0,1,.71094.71094,2.24142,2.24142,0,0,1,0,2.07617,1.81649,1.81649,0,0,1-.71094.71094,2.0939,2.0939,0,0,1-1.03809.25488A2.03479,2.03479,0,0,1,742.31389,169.001Zm1.61426-.69336a1.08713,1.08713,0,0,0,.41114-.43164,1.40246,1.40246,0,0,0,0-1.24805,1.08836,1.08836,0,0,0-.41114-.43213,1.14449,1.14449,0,0,0-.59375-.15576,1.10269,1.10269,0,0,0-.582.15576,1.074,1.074,0,0,0-.40234.43213,1.428,1.428,0,0,0,0,1.24805,1.07274,1.07274,0,0,0,.40234.43164,1.09857,1.09857,0,0,0,.582.15625A1.14018,1.14018,0,0,0,743.92815,168.30762Z"/><path d="M746.37542,170.792a6.03512,6.03512,0,0,0,1.04687-1.41308,7.61893,7.61893,0,0,0,.69043-1.7583,7.29211,7.29211,0,0,0,0-3.73487,7.82056,7.82056,0,0,0-.68652-1.75781,6.00392,6.00392,0,0,0-1.04395-1.416h.95313a5.04987,5.04987,0,0,1,1.00586,1.332,7.30945,7.30945,0,0,1,.65918,1.75488,8.35488,8.35488,0,0,1,0,3.90576,7.32138,7.32138,0,0,1-.65918,1.75537,5.06573,5.06573,0,0,1-1.00586,1.332Z"/></g><g opacity="0.7"><path d="M547.145,215.56934v-6.27h-1.96777v-.81006H546.185a1.20816,1.20816,0,0,0,.9209-.35694,1.32267,1.32267,0,0,0,.333-.96289h.70215v8.39991Z"/><path d="M550.46331,215.56934v-1.31983h1.31933v1.31983Z"/><path d="M553.28948,215.56934v-.86377l3.44922-3.22217a3.69008,3.69008,0,0,0,.76562-.9419,2.03987,2.03987,0,0,0,.23633-.96,1.63864,1.63864,0,0,0-.22168-.8584,1.51652,1.51652,0,0,0-.62109-.57861,1.956,1.956,0,0,0-.915-.207,2.04158,2.04158,0,0,0-.98633.23389,1.69574,1.69574,0,0,0-.67871.65381,1.88171,1.88171,0,0,0-.24316.96h-1.00782a2.65641,2.65641,0,0,1,.38379-1.40967,2.71708,2.71708,0,0,1,1.05664-.99024,3.11212,3.11212,0,0,1,1.49414-.35986,3.0619,3.0619,0,0,1,1.41309.32373,2.51335,2.51335,0,0,1,.99512.89111,2.30306,2.30306,0,0,1,.36328,1.269,2.68964,2.68964,0,0,1-.35352,1.31689,5.8554,5.8554,0,0,1-1.13476,1.3711l-2.59766,2.44189h4.332v.93018Z"/><path d="M560.49554,215.56934l3.72558-7.47608h-4.42773v-.92383h5.53222v.8877l-3.68457,7.51221Z"/><path d="M566.41155,215.56934l3.72559-7.47608H565.7094v-.92383h5.53223v.8877l-3.68457,7.51221Z"/><path d="M580.24065,217.24951a5.08415,5.08415,0,0,1-1.00488-1.332,7.32291,7.32291,0,0,1-.66016-1.75537,8.38907,8.38907,0,0,1,0-3.90576,7.3112,7.3112,0,0,1,.66016-1.75489,5.06828,5.06828,0,0,1,1.00488-1.332h.9541a5.97722,5.97722,0,0,0-1.04394,1.416,7.77433,7.77433,0,0,0-.68652,1.75781,7.29207,7.29207,0,0,0,0,3.73486,7.61653,7.61653,0,0,0,.68945,1.75831,6.06256,6.06256,0,0,0,1.04687,1.41308Z"/><path d="M582.641,212.54541v-.83984h4.02051v.83984Z"/><path d="M591.16155,210.37939a3.15,3.15,0,0,1,1.41895.38379,2.54414,2.54414,0,0,1,.96875.939,2.57857,2.57857,0,0,1,.34863,1.335,2.51865,2.51865,0,0,1-.3877,1.3833,2.62371,2.62371,0,0,1-1.07324.95068,3.70681,3.70681,0,0,1-3.05762.02442,2.68382,2.68382,0,0,1-1.07031-.88526,2.31238,2.31238,0,0,1-.42383-1.28076h1.02051a1.54181,1.54181,0,0,0,.29688.82764,1.80329,1.80329,0,0,0,.71093.57324,2.28386,2.28386,0,0,0,.97852.207,2.20153,2.20153,0,0,0,1.01953-.231,1.71584,1.71584,0,0,0,.9541-1.56934,1.73466,1.73466,0,0,0-.96289-1.58984,2.20036,2.20036,0,0,0-1.02344-.23389h-.88769v-.83984l2.39355-2.31641h-4.01953v-.8877h5.23242v.852Z"/><path d="M596.99749,215.18555a3.34264,3.34264,0,0,1-1.13184-1.50635,6.1064,6.1064,0,0,1-.39551-2.29785,6.17414,6.17414,0,0,1,.39551-2.31006,3.36176,3.36176,0,0,1,1.13184-1.51514,3.06729,3.06729,0,0,1,3.44922,0,3.3533,3.3533,0,0,1,1.13086,1.51514,6.154,6.154,0,0,1,.39648,2.31006,6.08652,6.08652,0,0,1-.39648,2.29785,3.33421,3.33421,0,0,1-1.13086,1.50635,3.08137,3.08137,0,0,1-3.44922,0Zm2.90332-.79541a2.59738,2.59738,0,0,0,.77148-1.18457,6.33781,6.33781,0,0,0,0-3.65723,2.6375,2.6375,0,0,0-.77148-1.19385,1.87958,1.87958,0,0,0-2.35742-.00293,2.60926,2.60926,0,0,0-.77149,1.188,6.34613,6.34613,0,0,0,0,3.65967,2.60926,2.60926,0,0,0,.77149,1.188,1.89,1.89,0,0,0,2.35742.00293Z"/><path d="M602.934,215.56934v-1.31983h1.31934v1.31983Z"/><path d="M605.85589,215.56934l3.72558-7.47608h-4.42773v-.92383H610.686v.8877l-3.68458,7.51221Z"/><path d="M615.80511,207.16943v5.42969h1.30761v.90039h-1.30761v2.06983h-.98438v-2.06983H610.561v-.90039l4.2539-5.42969Zm-.98438,1.28369-3.22754,4.146h3.22754Z"/><path d="M619.30218,210.77832a1.81771,1.81771,0,0,1-.70508-.71094,2.24142,2.24142,0,0,1,0-2.07617,1.821,1.821,0,0,1,.70508-.71094,2.031,2.031,0,0,1,1.01953-.25488,2.06547,2.06547,0,0,1,1.02929.25488,1.82189,1.82189,0,0,1,.708.71094,2.24142,2.24142,0,0,1,0,2.07617,1.81861,1.81861,0,0,1-.708.71094,2.06547,2.06547,0,0,1-1.02929.25488A2.031,2.031,0,0,1,619.30218,210.77832Zm.37207,4.791h-.91211l6.26367-8.39991h.91211Zm1.23828-5.48389a1.06765,1.06765,0,0,0,.40527-.43213,1.428,1.428,0,0,0,0-1.24805,1.07081,1.07081,0,0,0-.40527-.43213,1.129,1.129,0,0,0-.59082-.15576,1.10267,1.10267,0,0,0-.582.15576,1.08393,1.08393,0,0,0-.40235.43213,1.42812,1.42812,0,0,0,0,1.24805,1.08068,1.08068,0,0,0,.40235.43213,1.10267,1.10267,0,0,0,.582.15576A1.129,1.129,0,0,0,620.91253,210.08545Zm2.457,5.373a1.82753,1.82753,0,0,1-.70508-.71094,2.24142,2.24142,0,0,1,0-2.07617,1.82421,1.82421,0,0,1,.70508-.71094,2.03473,2.03473,0,0,1,1.02051-.25488,2.09386,2.09386,0,0,1,1.03808.25488,1.81317,1.81317,0,0,1,.71094.71094,2.24142,2.24142,0,0,1,0,2.07617,1.81643,1.81643,0,0,1-.71094.71094,2.09386,2.09386,0,0,1-1.03808.25488A2.03473,2.03473,0,0,1,623.36956,215.4585Zm1.61426-.69336a1.087,1.087,0,0,0,.41113-.43164,1.40246,1.40246,0,0,0,0-1.248,1.08826,1.08826,0,0,0-.41113-.43213,1.14451,1.14451,0,0,0-.59375-.15576,1.10267,1.10267,0,0,0-.582.15576,1.07394,1.07394,0,0,0-.40235.43213,1.42812,1.42812,0,0,0,0,1.248,1.07269,1.07269,0,0,0,.40235.43164,1.09855,1.09855,0,0,0,.582.15625A1.1402,1.1402,0,0,0,624.98382,214.76514Z"/><path d="M627.43108,217.24951a6.03515,6.03515,0,0,0,1.04688-1.41308,7.61883,7.61883,0,0,0,.69043-1.75831,7.29236,7.29236,0,0,0,0-3.73486,7.82058,7.82058,0,0,0-.68653-1.75781,6.00389,6.00389,0,0,0-1.04394-1.416h.95312a5.04976,5.04976,0,0,1,1.00586,1.332,7.30926,7.30926,0,0,1,.65918,1.75489,8.35452,8.35452,0,0,1,0,3.90576,7.321,7.321,0,0,1-.65918,1.75537,5.06552,5.06552,0,0,1-1.00586,1.332Z"/></g><g opacity="0.7"><path d="M541.0053,262.30664v-6.27051h-1.96777v-.80957h1.00781a1.20848,1.20848,0,0,0,.9209-.35742,1.32118,1.32118,0,0,0,.333-.96289h.70214v8.40039Z"/><path d="M544.32366,262.30664v-1.32031H545.643v1.32031Z"/><path d="M547.14983,262.30664v-.86426l3.44922-3.22168a3.69166,3.69166,0,0,0,.76563-.94238,2.03857,2.03857,0,0,0,.23632-.96,1.63864,1.63864,0,0,0-.22168-.8584,1.51849,1.51849,0,0,0-.62109-.57812,1.94993,1.94993,0,0,0-.915-.207,2.04137,2.04137,0,0,0-.98633.2334,1.697,1.697,0,0,0-.67871.6543,1.88047,1.88047,0,0,0-.24316.96h-1.00781a2.65817,2.65817,0,0,1,.38379-1.41016,2.71685,2.71685,0,0,1,1.05664-.99023,3.11724,3.11724,0,0,1,1.49414-.35937,3.06162,3.06162,0,0,1,1.41308.32324,2.51808,2.51808,0,0,1,.99512.8916,2.30143,2.30143,0,0,1,.36328,1.26855,2.69157,2.69157,0,0,1-.35351,1.31739,5.87534,5.87534,0,0,1-1.13477,1.37109l-2.59766,2.44141h4.332v.93066Z"/><path d="M555.91839,262.165a2.801,2.801,0,0,1-1.04688-.78223,2.29708,2.29708,0,0,1-.5039-1.11621h1.0205a1.4367,1.4367,0,0,0,.35938.65723,1.95535,1.95535,0,0,0,.6875.46777,2.28653,2.28653,0,0,0,.89062.1709,2.00991,2.00991,0,0,0,1.02344-.25488,1.7528,1.7528,0,0,0,.68359-.7168,2.45562,2.45562,0,0,0,0-2.13086,1.72823,1.72823,0,0,0-.68652-.71387,2.15658,2.15658,0,0,0-1.76465-.11621,2.147,2.147,0,0,0-.60254.34766,1.59027,1.59027,0,0,0-.38086.44043h-.96l.17969-4.51172H559.81v.91211h-4.12207l-.10254,2.66406a1.958,1.958,0,0,1,.81934-.63574,2.66969,2.66969,0,0,1,1.10058-.24023,2.83222,2.83222,0,0,1,1.44336.36914,2.61361,2.61361,0,0,1,.999,1.02539,3.05193,3.05193,0,0,1,.36036,1.49121,3.099,3.099,0,0,1-.375,1.53613,2.65077,2.65077,0,0,1-1.05372,1.04688,3.15387,3.15387,0,0,1-1.55371.375A3.413,3.413,0,0,1,555.91839,262.165Z"/><path d="M563.3803,262.126a2.56929,2.56929,0,0,1-1.10449-.83985,2.111,2.111,0,0,1-.17676-2.166,2.12817,2.12817,0,0,1,.61231-.73438,2.33075,2.33075,0,0,1,.9082-.42383,1.79921,1.79921,0,0,1-.76465-.38379,1.9303,1.9303,0,0,1-.51562-.68652,2.098,2.098,0,0,1-.1836-.873,1.942,1.942,0,0,1,.36328-1.16113,2.38566,2.38566,0,0,1,1.00489-.78906,3.91849,3.91849,0,0,1,2.91308-.00293,2.33068,2.33068,0,0,1,.999.78906,1.966,1.966,0,0,1,.36035,1.16406,2.127,2.127,0,0,1-.18067.873,1.91922,1.91922,0,0,1-.50683.68652,1.7504,1.7504,0,0,1-.75293.38379,2.25353,2.25353,0,0,1,.89453.418,2.11846,2.11846,0,0,1,.60547.73145,2.02466,2.02466,0,0,1,.21582.92676,2.05737,2.05737,0,0,1-.39551,1.24511,2.55868,2.55868,0,0,1-1.09863.84278,4.02222,4.02222,0,0,1-1.59571.30078A4.06514,4.06514,0,0,1,563.3803,262.126Zm2.66406-.75879a1.69236,1.69236,0,0,0,.73145-.55176,1.33468,1.33468,0,0,0,.26465-.81348,1.35342,1.35342,0,0,0-.26465-.82129,1.7125,1.7125,0,0,0-.73145-.55859,2.96521,2.96521,0,0,0-2.12695,0,1.72841,1.72841,0,0,0-.73828.55859,1.34252,1.34252,0,0,0-.2666.82129,1.324,1.324,0,0,0,.2666.81348,1.70832,1.70832,0,0,0,.73828.55176,2.993,2.993,0,0,0,2.12695,0Zm-.14453-3.94824a1.49686,1.49686,0,0,0,.63574-.53028,1.38354,1.38354,0,0,0,.22852-.78613,1.29416,1.29416,0,0,0-.22852-.75586,1.48448,1.48448,0,0,0-.63574-.51367,2.23244,2.23244,0,0,0-.918-.18262,2.25631,2.25631,0,0,0-.92089.18262,1.50216,1.50216,0,0,0-.64161.51367,1.2827,1.2827,0,0,0-.23144.75586,1.371,1.371,0,0,0,.23144.78613,1.51407,1.51407,0,0,0,.64161.53028,2.181,2.181,0,0,0,.92089.18945A2.1581,2.1581,0,0,0,565.89983,257.419Z"/><path d="M577.43694,263.98633a5.07637,5.07637,0,0,1-1.00488-1.332,7.3269,7.3269,0,0,1-.66016-1.75489,8.39114,8.39114,0,0,1,0-3.90625,7.327,7.327,0,0,1,.66016-1.75488,5.0762,5.0762,0,0,1,1.00488-1.332h.9541a5.9868,5.9868,0,0,0-1.04394,1.416,7.77464,7.77464,0,0,0-.68653,1.75781,7.29424,7.29424,0,0,0,0,3.73535,7.62181,7.62181,0,0,0,.68946,1.75781,6.05235,6.05235,0,0,0,1.04687,1.41309Z"/><path d="M579.83733,259.28223v-.83985h4.02051v.83985Z"/><path d="M588.35784,257.11621a3.16225,3.16225,0,0,1,1.41895.38379,2.54533,2.54533,0,0,1,.96875.93945,2.57611,2.57611,0,0,1,.34863,1.335,2.51817,2.51817,0,0,1-.3877,1.38282,2.62135,2.62135,0,0,1-1.07324.95117,3.71178,3.71178,0,0,1-3.05762.02441,2.68481,2.68481,0,0,1-1.07031-.88574,2.312,2.312,0,0,1-.42383-1.28027H586.102a1.54027,1.54027,0,0,0,.29688.82715,1.79908,1.79908,0,0,0,.71093.57324,2.27666,2.27666,0,0,0,.97852.207,2.20731,2.20731,0,0,0,1.01953-.23047,1.71723,1.71723,0,0,0,.9541-1.56934,1.7333,1.7333,0,0,0-.96289-1.58984,2.1947,2.1947,0,0,0-1.02344-.23437h-.88769v-.83985l2.39355-2.3164h-4.01953v-.8877h5.23242v.85254Z"/><path d="M592.61272,262.30664v-.86426l3.44922-3.22168a3.69166,3.69166,0,0,0,.76563-.94238,2.03857,2.03857,0,0,0,.23632-.96,1.63873,1.63873,0,0,0-.22167-.8584,1.51858,1.51858,0,0,0-.6211-.57812,1.94993,1.94993,0,0,0-.915-.207,2.04137,2.04137,0,0,0-.98633.2334,1.69705,1.69705,0,0,0-.67871.6543,1.88047,1.88047,0,0,0-.24316.96h-1.00781a2.65817,2.65817,0,0,1,.38379-1.41016,2.71685,2.71685,0,0,1,1.05664-.99023,3.11724,3.11724,0,0,1,1.49414-.35937,3.06162,3.06162,0,0,1,1.41308.32324,2.51808,2.51808,0,0,1,.99512.8916,2.30143,2.30143,0,0,1,.36328,1.26855,2.69157,2.69157,0,0,1-.35351,1.31739,5.87534,5.87534,0,0,1-1.13477,1.37109l-2.59766,2.44141h4.332v.93066Z"/><path d="M599.76507,262.30664v-1.32031h1.31933v1.32031Z"/><path d="M603.59026,261.9375a3.27551,3.27551,0,0,1-1.14258-1.458,5.60557,5.60557,0,0,1-.40234-2.21094,6.31836,6.31836,0,0,1,.41406-2.38476,3.54012,3.54012,0,0,1,1.15821-1.57227,2.78984,2.78984,0,0,1,1.70312-.54882,3.48542,3.48542,0,0,1,1.71387.42578,2.49844,2.49844,0,0,1,1.125,1.34961h-.9961a1.63843,1.63843,0,0,0-.69921-.627,2.34368,2.34368,0,0,0-1.08887-.249,2.03749,2.03749,0,0,0-1.19727.37207,2.51723,2.51723,0,0,0-.84863,1.17285,5.61221,5.61221,0,0,0-.32422,2.02539,2.307,2.307,0,0,1,.957-1.13379,2.92776,2.92776,0,0,1,1.58106-.41992,2.87484,2.87484,0,0,1,1.46093.375,2.68346,2.68346,0,0,1,1.01954,1.03516,2.96853,2.96853,0,0,1,.36914,1.47558,2.78535,2.78535,0,0,1-1.5,2.51075,3.28341,3.28341,0,0,1-1.57227.375A2.967,2.967,0,0,1,603.59026,261.9375Zm2.79883-.64258a1.83571,1.83571,0,0,0,.71387-.708,2.13707,2.13707,0,0,0-.00586-2.04589,1.91758,1.91758,0,0,0-.72852-.72266,2.08783,2.08783,0,0,0-1.04785-.26367,2.05471,2.05471,0,0,0-1.03418.26074,1.88965,1.88965,0,0,0-.7207.71973,2.03781,2.03781,0,0,0-.26074,1.02343,1.99351,1.99351,0,0,0,.26367,1.02246,1.87293,1.87293,0,0,0,.73535.71094,2.1595,2.1595,0,0,0,1.05859.25879A2.05513,2.05513,0,0,0,606.38909,261.29492Z"/><path d="M614.684,254.2998a3.2787,3.2787,0,0,1,1.14356,1.458,5.62012,5.62012,0,0,1,.40136,2.21094,6.32173,6.32173,0,0,1-.41406,2.38477,3.54566,3.54566,0,0,1-1.1582,1.57226,2.79611,2.79611,0,0,1-1.70313.54883,3.49329,3.49329,0,0,1-1.71386-.42578,2.49711,2.49711,0,0,1-1.125-1.35059h.99609a1.6384,1.6384,0,0,0,.69922.627,2.34365,2.34365,0,0,0,1.08887.249,2.03533,2.03533,0,0,0,1.19726-.37207,2.50555,2.50555,0,0,0,.84863-1.17285,5.60987,5.60987,0,0,0,.32422-2.02442,2.30691,2.30691,0,0,1-.957,1.13379,2.93622,2.93622,0,0,1-1.58105.41992,2.87488,2.87488,0,0,1-1.46094-.375,2.68341,2.68341,0,0,1-1.01953-1.03515,2.97107,2.97107,0,0,1-.36914-1.47559,2.7854,2.7854,0,0,1,1.5-2.51172,3.28337,3.28337,0,0,1,1.57226-.375A2.96066,2.96066,0,0,1,614.684,254.2998Zm-2.79883.64161a1.84225,1.84225,0,0,0-.71386.708,2.137,2.137,0,0,0,.00586,2.0459,1.91755,1.91755,0,0,0,.72851.72266,2.07843,2.07843,0,0,0,1.04785.26465,2.05479,2.05479,0,0,0,1.03418-.26074,1.88559,1.88559,0,0,0,.72071-.72071,2.03166,2.03166,0,0,0,.26074-1.02246,1.99715,1.99715,0,0,0-.26367-1.02344,1.88619,1.88619,0,0,0-.73536-.71093,2.16953,2.16953,0,0,0-1.05859-.25782A2.06472,2.06472,0,0,0,611.88518,254.94141Z"/><path d="M618.62347,257.51562a1.82091,1.82091,0,0,1-.70508-.71093,2.24134,2.24134,0,0,1,0-2.07617,1.82086,1.82086,0,0,1,.70508-.71094,2.031,2.031,0,0,1,1.01953-.25488,2.06547,2.06547,0,0,1,1.02929.25488,1.82176,1.82176,0,0,1,.708.71094,2.24142,2.24142,0,0,1,0,2.07617,1.8218,1.8218,0,0,1-.708.71093,2.06537,2.06537,0,0,1-1.02929.25489A2.03093,2.03093,0,0,1,618.62347,257.51562Zm.37207,4.791h-.91211l6.26367-8.40039h.91211Zm1.23828-5.48437a1.06646,1.06646,0,0,0,.40527-.43165,1.4281,1.4281,0,0,0,0-1.248,1.069,1.069,0,0,0-.40527-.43262,1.13332,1.13332,0,0,0-.59082-.15527,1.10683,1.10683,0,0,0-.582.15527,1.082,1.082,0,0,0-.40235.43262,1.4281,1.4281,0,0,0,0,1.248,1.07939,1.07939,0,0,0,.40235.43165,1.09855,1.09855,0,0,0,.582.15625A1.1248,1.1248,0,0,0,620.23382,256.82227Zm2.457,5.373a1.82744,1.82744,0,0,1-.70508-.71093,2.24144,2.24144,0,0,1,0-2.07618,1.82744,1.82744,0,0,1,.70508-.71093,2.03464,2.03464,0,0,1,1.02051-.25489,2.09378,2.09378,0,0,1,1.03808.25489,1.81634,1.81634,0,0,1,.71094.71093,2.24144,2.24144,0,0,1,0,2.07618,1.81634,1.81634,0,0,1-.71094.71093,2.09389,2.09389,0,0,1-1.03808.25489A2.03474,2.03474,0,0,1,622.69085,262.19531Zm1.61426-.69336a1.08064,1.08064,0,0,0,.41113-.43164,1.40243,1.40243,0,0,0,0-1.248,1.087,1.087,0,0,0-.41113-.43165,1.14022,1.14022,0,0,0-.59375-.15624,1.0986,1.0986,0,0,0-.582.15624,1.0727,1.0727,0,0,0-.40234.43165,1.4281,1.4281,0,0,0,0,1.248,1.06645,1.06645,0,0,0,.40234.43164,1.09852,1.09852,0,0,0,.582.15625A1.14013,1.14013,0,0,0,624.30511,261.502Z"/><path d="M626.75237,263.98633a6.02531,6.02531,0,0,0,1.04688-1.41309,7.62409,7.62409,0,0,0,.69043-1.75781,7.29424,7.29424,0,0,0,0-3.73535,7.82039,7.82039,0,0,0-.68653-1.75781,6.01355,6.01355,0,0,0-1.04394-1.416h.95312a5.05763,5.05763,0,0,1,1.00586,1.332,7.325,7.325,0,0,1,.65918,1.75488,8.35659,8.35659,0,0,1,0,3.90625,7.32494,7.32494,0,0,1-.65918,1.75489,5.05779,5.05779,0,0,1-1.00586,1.332Z"/></g><g opacity="0.7"><path d="M76.78948,113.27832h3.14258c1.89453,0,3.1416,1.00781,3.1416,2.6626v.02392c0,1.811-1.51074,2.74659-3.29785,2.74659H77.73675v2.9624h-.94727Zm3.02246,4.56982c1.39063,0,2.30274-.74365,2.30274-1.84716v-.02393c0-1.19922-.89942-1.82324-2.25489-1.82324h-2.123v3.69433Z"/><path d="M84.80511,113.27832h.94726v3.73h4.8457v-3.73h.94727v8.39551h-.94727V117.896h-4.8457v3.77783h-.94726Z"/><path d="M93.92522,113.27832H97.0678c1.89453,0,3.1416,1.00781,3.1416,2.6626v.02392c0,1.811-1.51074,2.74659-3.29785,2.74659H94.87249v2.9624h-.94727Zm3.02246,4.56982c1.39063,0,2.30274-.74365,2.30274-1.84716v-.02393c0-1.19922-.89942-1.82324-2.25488-1.82324H94.87249v3.69433Z"/><path d="M109.78557,114.14209h-4.61718v-.86377h5.69726v.70752l-3.81445,7.688h-1.05469Z"/><path d="M111.21624,120.41455h1.10351v1.25928h-1.10351Z"/><path d="M118.4135,119.68311h-4.4248l-.24023-.6836,4.749-5.78125h.82812v5.67334h1.30762v.79151h-1.30762v1.99072h-.91211Zm0-.79151v-4.33008l-3.52539,4.33008Z"/></g><g opacity="0.7"><path d="M74.894,160.71973h3.14258c1.89453,0,3.1416,1.00781,3.1416,2.66259v.02393c0,1.811-1.51074,2.74658-3.29785,2.74658H75.84124v2.9624H74.894Zm3.02246,4.56982c1.39063,0,2.30274-.74365,2.30274-1.84717v-.02392c0-1.19922-.89942-1.82325-2.25488-1.82325H75.84124v3.69434Z"/><path d="M82.9096,160.71973h.94726v3.73h4.84571v-3.73h.94726v8.3955h-.94726V165.3374H83.85686v3.77783H82.9096Z"/><path d="M92.02972,160.71973h3.14257c1.89453,0,3.1416,1.00781,3.1416,2.66259v.02393c0,1.811-1.51074,2.74658-3.29785,2.74658H92.977v2.9624h-.94726Zm3.02246,4.56982c1.39062,0,2.30273-.74365,2.30273-1.84717v-.02392c0-1.19922-.89941-1.82325-2.25488-1.82325H92.977v3.69434Z"/><path d="M103.08147,166.86035v-.02392a2.261,2.261,0,0,1,1.72657-2.063,2.13741,2.13741,0,0,1-1.43946-1.93067v-.02392c0-1.29541,1.332-2.21875,2.86719-2.21875s2.86621.92334,2.86621,2.21875v.02392a2.13742,2.13742,0,0,1-1.43945,1.93067,2.27622,2.27622,0,0,1,1.72754,2.05127v.02392c0,1.42725-1.36719,2.38672-3.1543,2.38672S103.08147,168.26367,103.08147,166.86035Zm5.34864-.02392v-.02393c0-.93555-.97168-1.59521-2.19434-1.59521-1.22363,0-2.19531.65966-2.19531,1.59521v.02393c0,.85156.81543,1.57128,2.19531,1.57128C107.61468,168.40771,108.43011,167.688,108.43011,166.83643Zm-.27539-3.9336v-.02392c0-.82764-.82813-1.45166-1.91895-1.45166-1.0918,0-1.91895.61181-1.91895,1.45166v.02392c0,.91113.85157,1.53516,1.91895,1.53516S108.15472,163.814,108.15472,162.90283Z"/><path d="M110.92815,167.856h1.10352v1.25927h-1.10352Z"/><path d="M113.44768,164.94141v-.02393c0-2.35059,1.40332-4.34131,3.5625-4.34131s3.52637,1.9668,3.52637,4.31738v.02393c0,2.35059-1.3916,4.3418-3.55078,4.3418C114.81585,169.25928,113.44768,167.292,113.44768,164.94141Zm6.10547,0v-.02393c0-1.835-1.00781-3.478-2.56738-3.478-1.57031,0-2.55469,1.60694-2.55469,3.4541v.02393c0,1.835,1.00781,3.478,2.5791,3.478S119.55315,166.77637,119.55315,164.94141Z"/></g><g opacity="0.7"><path d="M79.53753,207.04541h3.14258c1.89453,0,3.1416,1.00781,3.1416,2.6626v.02392c0,1.811-1.51074,2.74659-3.29785,2.74659H80.48479v2.9624h-.94726ZM82.56,211.61523c1.39062,0,2.30273-.74365,2.30273-1.84716v-.02393c0-1.19922-.89941-1.82324-2.25488-1.82324h-2.123v3.69433Z"/><path d="M87.55315,207.04541h.94727v3.73h4.8457v-3.73h.94727v8.39551h-.94727v-3.77783h-4.8457v3.77783h-.94727Z"/><path d="M96.67327,207.04541h3.14258c1.89453,0,3.1416,1.00781,3.1416,2.6626v.02392c0,1.811-1.51074,2.74659-3.29785,2.74659H97.62054v2.9624h-.94727Zm3.02246,4.56982c1.39063,0,2.30274-.74365,2.30274-1.84716v-.02393c0-1.19922-.89942-1.82324-2.25489-1.82324h-2.123v3.69433Z"/><path d="M107.725,213.186v-.02393a2.26215,2.26215,0,0,1,1.72656-2.063,2.13738,2.13738,0,0,1-1.43945-1.93066v-.02393c0-1.29541,1.332-2.21875,2.86718-2.21875s2.86622.92334,2.86622,2.21875v.02393a2.13739,2.13739,0,0,1-1.43946,1.93066,2.27622,2.27622,0,0,1,1.72754,2.05127v.02393c0,1.42724-1.36816,2.38672-3.1543,2.38672C109.09222,215.561,107.725,214.58936,107.725,213.186Zm5.34863-.02393v-.02393c0-.93554-.97168-1.59521-2.19434-1.59521-1.22363,0-2.19531.65967-2.19531,1.59521v.02393c0,.85156.81543,1.57129,2.19531,1.57129C112.25823,214.7334,113.07366,214.01367,113.07366,213.16211Zm-.27539-3.93359v-.02393c0-.82764-.82813-1.45166-1.91895-1.45166-1.09179,0-1.91894.61182-1.91894,1.45166v.02393c0,.91113.85156,1.53515,1.91894,1.53515S112.79827,210.13965,112.79827,209.22852Z"/><path d="M115.57171,214.18164h1.10351v1.25928h-1.10351Z"/><path d="M119.13518,207.96924l-1.583.4917-.22754-.76758,2.05078-.708h.69531v8.45557h-.93555Z"/></g><g opacity="0.7"><path d="M47.88225,252.25488h3.14258c1.89453,0,3.1416,1.00782,3.1416,2.66211v.02442c0,1.81054-1.51074,2.74609-3.29785,2.74609H48.82952v2.96289h-.94727Zm3.02247,4.56934c1.39062,0,2.30273-.74317,2.30273-1.84668v-.02442c0-1.19921-.89941-1.82324-2.25488-1.82324h-2.123v3.69434Z"/><path d="M55.89788,252.25488h.94726v3.7295h4.84571v-3.7295h.94726v8.39551h-.94726v-3.77832H56.84514v3.77832h-.94726Z"/><path d="M65.018,252.25488h3.14257c1.89454,0,3.14161,1.00782,3.14161,2.66211v.02442c0,1.81054-1.51075,2.74609-3.29786,2.74609H65.96526v2.96289H65.018Zm3.02246,4.56934c1.39062,0,2.30273-.74317,2.30273-1.84668v-.02442c0-1.19921-.89941-1.82324-2.25488-1.82324H65.96526v3.69434Z"/><path d="M76.06975,258.39551v-.02442a2.26045,2.26045,0,0,1,1.72657-2.0625,2.13792,2.13792,0,0,1-1.43946-1.93066v-.02441c0-1.29493,1.332-2.21875,2.86719-2.21875s2.86621.92382,2.86621,2.21875v.02441a2.13791,2.13791,0,0,1-1.43945,1.93066,2.27615,2.27615,0,0,1,1.72754,2.05079v.02441c0,1.42676-1.36719,2.38672-3.1543,2.38672S76.06975,259.79883,76.06975,258.39551Zm5.34864-.02442v-.02343c0-.93555-.97168-1.59571-2.19434-1.59571-1.22363,0-2.19531.66016-2.19531,1.59571v.02343c0,.85157.81543,1.57129,2.19531,1.57129C80.603,259.94238,81.41839,259.22266,81.41839,258.37109ZM81.143,254.4375v-.02344c0-.82812-.82813-1.45215-1.91895-1.45215-1.0918,0-1.91894.61231-1.91894,1.45215v.02344c0,.91113.85156,1.53516,1.91894,1.53516S81.143,255.34863,81.143,254.4375Z"/><path d="M83.91643,259.39062H85.02v1.25977H83.91643Z"/><path d="M87.47991,253.17871l-1.583.49121-.22754-.76758,2.05078-.708h.69532v8.45605h-.93555Z"/><path d="M94.04436,257.208a5.75784,5.75784,0,0,1,3.32227-5.13281l.39551.61132a5.06512,5.06512,0,0,0,0,9.043l-.39551.61133A5.75785,5.75785,0,0,1,94.04436,257.208Z"/><path d="M98.62835,259.2832l.68359-.58789a2.16127,2.16127,0,0,0,1.91895,1.19922c.94726,0,1.64258-.68359,1.64258-2.01465v-5.625h.96v5.61328a3.02819,3.02819,0,0,1-.76758,2.20606,2.57421,2.57421,0,0,1-1.84766.69629A2.8742,2.8742,0,0,1,98.62835,259.2832Z"/><path d="M106.1635,252.25488h.94727v8.39551h-.94727Z"/><path d="M111.75432,253.12988h-2.83007v-.875h6.60839v.875h-2.83105v7.52051h-.94727Z"/><path d="M116.74847,261.72949a5.06512,5.06512,0,0,0,0-9.043l.3955-.61132a5.62616,5.62616,0,0,1,0,10.26562Z"/></g><g opacity="0.7"><path d="M1.516,300.25488H4.65862c1.89453,0,3.1416,1.00782,3.1416,2.66309v.02344c0,1.81152-1.51074,2.74707-3.29785,2.74707H2.46331v2.96191H1.516ZM4.5385,304.8252c1.39063,0,2.30274-.74415,2.30274-1.84766v-.02344c0-1.19922-.89942-1.82324-2.25488-1.82324h-2.123v3.69434Z"/><path d="M9.53167,300.25488h.94726v3.73047h4.84571v-3.73047h.94726v8.39551h-.94726v-3.77734H10.47893v3.77734H9.53167Z"/><path d="M18.65179,300.25488h3.14257c1.89453,0,3.14161,1.00782,3.14161,2.66309v.02344c0,1.81152-1.51075,2.74707-3.29786,2.74707H19.599v2.96191h-.94726Zm3.02246,4.57032c1.39062,0,2.30273-.74415,2.30273-1.84766v-.02344c0-1.19922-.89941-1.82324-2.25488-1.82324H19.599v3.69434Z"/><path d="M29.70354,306.39551v-.02344a2.26273,2.26273,0,0,1,1.72657-2.06348,2.13686,2.13686,0,0,1-1.43946-1.93066v-.02344c0-1.2959,1.332-2.21875,2.86719-2.21875s2.86621.92285,2.86621,2.21875v.02344a2.13687,2.13687,0,0,1-1.43945,1.93066,2.27629,2.27629,0,0,1,1.72754,2.05176v.02344c0,1.42773-1.36817,2.38672-3.1543,2.38672C31.07073,308.77051,29.70354,307.79883,29.70354,306.39551Zm5.34864-.02344v-.02441c0-.93555-.97168-1.59473-2.19434-1.59473-1.22363,0-2.19531.65918-2.19531,1.59473v.02441c0,.85156.81543,1.57129,2.19531,1.57129C34.23675,307.94336,35.05218,307.22363,35.05218,306.37207Zm-.27539-3.93359v-.02442c0-.82715-.82813-1.45117-1.91895-1.45117-1.0918,0-1.919.61133-1.919,1.45117v.02442c0,.91113.85157,1.53515,1.919,1.53515S34.77679,303.34961,34.77679,302.43848Z"/><path d="M37.55022,307.3916h1.10352v1.25879H37.55022Z"/><path d="M41.1137,301.17871l-1.583.49219-.22754-.76758,2.05078-.708h.69532v8.45508H41.1137Z"/><path d="M47.67815,305.209a5.75921,5.75921,0,0,1,3.32227-5.13378l.39551.6123a5.06512,5.06512,0,0,0,0,9.043l-.39551.61133A5.75893,5.75893,0,0,1,47.67815,305.209Z"/><path d="M53.102,302.4502h.92383v1.24707a2.78863,2.78863,0,0,1,2.375-1.37891,3.02414,3.02414,0,0,1,2.96191,3.21387v.02441a3.03509,3.03509,0,0,1-2.96191,3.22559,2.796,2.796,0,0,1-2.375-1.31934v3.10645H53.102Zm5.31348,3.11816V305.544a2.2329,2.2329,0,0,0-2.18262-2.39844,2.31253,2.31253,0,0,0-2.24316,2.38672v.02441a2.30822,2.30822,0,0,0,2.24316,2.39844A2.18817,2.18817,0,0,0,58.41546,305.56836Z"/><path d="M61.06975,302.4502h.92383v1.61914a2.65646,2.65646,0,0,1,2.53028-1.72754v.99609h-.07129c-1.35547,0-2.459.9707-2.459,2.8418v2.4707h-.92383Z"/><path d="M65.28264,305.56836V305.544a3.05884,3.05884,0,0,1,2.97461-3.22559c1.835,0,2.89063,1.46289,2.89063,3.27441a2.28474,2.28474,0,0,1-.0127.29981h-4.917a2.16527,2.16527,0,0,0,2.18262,2.09863,2.56488,2.56488,0,0,0,1.95508-.876l.57617.51563a3.20056,3.20056,0,0,1-2.55469,1.16406A3.08259,3.08259,0,0,1,65.28264,305.56836Zm4.92969-.35938a2.04228,2.04228,0,0,0-1.97949-2.11132,2.13773,2.13773,0,0,0-2.01465,2.11132Z"/><path d="M72.85393,299.89551h.92383v8.75488h-.92383Z"/><path d="M75.54241,305.58008v-.02344a3.23245,3.23245,0,0,1,6.46484-.02441v.02441a3.22,3.22,0,0,1-3.25,3.23828A3.17731,3.17731,0,0,1,75.54241,305.58008Zm5.51758,0v-.02344a2.34652,2.34652,0,0,0-2.30274-2.42285,2.28848,2.28848,0,0,0-2.26757,2.39844v.02441a2.3259,2.3259,0,0,0,2.291,2.41016A2.28792,2.28792,0,0,0,81.06,305.58008Z"/><path d="M83.21038,306.85156v-.02344c0-1.30761,1.08008-2.00292,2.65039-2.00292a6.573,6.573,0,0,1,1.90723.26367v-.21582c0-1.11524-.6836-1.69141-1.84668-1.69141a4.31878,4.31878,0,0,0-1.88282.45606l-.27636-.75586a5.12514,5.12514,0,0,1,2.25488-.51563,2.71936,2.71936,0,0,1,2.00293.68359,2.44685,2.44685,0,0,1,.63574,1.81055v3.79H87.768v-.93555a2.7153,2.7153,0,0,1-2.24317,1.06739A2.08828,2.08828,0,0,1,83.21038,306.85156Zm4.56934-.47949v-.59961a6.46649,6.46649,0,0,0-1.82227-.26367c-1.16406,0-1.81152.50293-1.81152,1.2832v.02344c0,.78027.71972,1.23535,1.55957,1.23535A1.8742,1.8742,0,0,0,87.77972,306.37207Z"/><path d="M90.267,305.56836V305.544a3.042,3.042,0,0,1,2.96191-3.22559,2.796,2.796,0,0,1,2.375,1.31934v-3.74219h.92383v8.75488h-.92383v-1.24707a2.78864,2.78864,0,0,1-2.375,1.37891A3.02358,3.02358,0,0,1,90.267,305.56836Zm5.373-.01172v-.02441a2.305,2.305,0,0,0-2.24317-2.38672,2.18816,2.18816,0,0,0-2.18261,2.38672v.02441a2.23289,2.23289,0,0,0,2.18261,2.39844A2.31571,2.31571,0,0,0,95.64007,305.55664Z"/><path d="M98.61858,300.0752h1.05469v1.01953H98.61858Zm.05957,2.375H99.602v6.20019h-.92383Z"/><path d="M101.75042,302.4502h.92383v1.0791a2.34706,2.34706,0,0,1,2.123-1.21094,2.2642,2.2642,0,0,1,2.374,2.48242v3.84961h-.92285v-3.62207a1.65312,1.65312,0,0,0-1.71583-1.87109,1.82446,1.82446,0,0,0-1.85839,1.94336v3.5498h-.92383Z"/><path d="M109.06975,309.73047l.41993-.71973a3.96427,3.96427,0,0,0,2.38671.791,2.0377,2.0377,0,0,0,2.25489-2.20606v-.73242a2.93809,2.93809,0,0,1-2.43457,1.30762,2.86659,2.86659,0,0,1-2.91407-2.90235v-.02441a2.93554,2.93554,0,0,1,5.33692-1.67871V302.4502h.92383v5.12109a2.98463,2.98463,0,0,1-.792,2.19433,3.25934,3.25934,0,0,1-2.3623.82813A4.86691,4.86691,0,0,1,109.06975,309.73047Zm5.08594-4.47363v-.02442a2.1724,2.1724,0,0,0-2.2793-2.09863,2.05066,2.05066,0,0,0-2.14648,2.08691v.02344a2.09845,2.09845,0,0,0,2.14648,2.11133A2.18836,2.18836,0,0,0,114.15569,305.25684Z"/><path d="M116.75042,309.73047a5.06512,5.06512,0,0,0,0-9.043l.39551-.6123a5.62692,5.62692,0,0,1,0,10.2666Z"/></g><g opacity="0.7"><path d="M544.03753,301.5127l-1.583.49121-.22754-.76758,2.05078-.707h.69531v8.45508h-.93554Z"/><path d="M547.09807,307.72461h1.10352v1.25977h-1.10352Z"/><path d="M549.68987,308.25293l3.04688-2.68652c1.2832-1.15137,1.751-1.79883,1.751-2.63868a1.60465,1.60465,0,0,0-1.6914-1.60742,2.69459,2.69459,0,0,0-2.25489,1.43946l-.69531-.50391a3.32556,3.32556,0,0,1,3.02246-1.78711,2.41806,2.41806,0,0,1,2.60254,2.375v.02441c0,1.22266-.64746,1.97852-2.12305,3.26172l-2.24218,1.99121h4.44922v.86329h-5.86524Z"/><path d="M561.59222,301.45215H556.975v-.86328h5.69726v.708l-3.81445,7.6875h-1.05469Z"/><path d="M563.81487,304.81055v-.02344c0-2.35156,1.40332-4.3418,3.5625-4.3418s3.52637,1.9668,3.52637,4.31739v.02441c0,2.35059-1.3916,4.34082-3.55078,4.34082C565.18206,309.12793,563.81487,307.16113,563.81487,304.81055Zm6.10547,0v-.02344c0-1.835-1.00781-3.47852-2.56738-3.47852-1.57032,0-2.55371,1.60743-2.55371,3.45411v.02441c0,1.835,1.00683,3.47754,2.57812,3.47754S569.92034,306.64551,569.92034,304.81055Z"/><path d="M579.66643,305.542a5.75892,5.75892,0,0,1,3.32227-5.13281l.39551.61133a5.06512,5.06512,0,0,0,0,9.043l-.39551.6123A5.75923,5.75923,0,0,1,579.66643,305.542Z"/><path d="M584.83831,304.89453h3.334v.97168h-3.334Z"/><path d="M589.434,307.62891l.6836-.61133a3.04731,3.04731,0,0,0,2.459,1.24707,1.68615,1.68615,0,0,0,1.835-1.63086v-.02441c0-1.043-.97168-1.61915-2.35058-1.61915h-.54l-.19239-.56347,2.65137-2.98633h-4.10254v-.85156h5.36133v.69531L592.6,304.21094c1.46386.12011,2.77051.82715,2.77051,2.3623v.02442a2.60916,2.60916,0,0,1-2.80665,2.53027A3.8109,3.8109,0,0,1,589.434,307.62891Z"/><path d="M598.33636,301.5127l-1.583.49121-.22754-.76758,2.05078-.707h.69531v8.45508h-.93554Z"/><path d="M601.3969,307.72461h1.10352v1.25977H601.3969Z"/><path d="M608.59417,306.99316h-4.42481l-.24023-.68359,4.749-5.78027h.82813v5.67285h1.30761v.791h-1.30761v1.99122h-.91211Zm0-.791v-4.33008l-3.52539,4.33008Z"/><path d="M612.08929,306.72949v-.02344a2.26269,2.26269,0,0,1,1.72656-2.06347,2.13689,2.13689,0,0,1-1.43946-1.93067v-.02441c0-1.29492,1.332-2.21875,2.86719-2.21875s2.86621.92383,2.86621,2.21875v.02441a2.13688,2.13688,0,0,1-1.43945,1.93067,2.27614,2.27614,0,0,1,1.72754,2.05078v.02441c0,1.42676-1.36816,2.38672-3.1543,2.38672C613.45647,309.10449,612.08929,308.13281,612.08929,306.72949Zm5.34863-.02344v-.02441c0-.93555-.97168-1.59473-2.19434-1.59473-1.22363,0-2.19531.65918-2.19531,1.59473v.02441c0,.85157.81543,1.57032,2.19531,1.57032C616.62249,308.27637,617.43792,307.55762,617.43792,306.70605Zm-.27539-3.93457v-.02343c0-.82813-.82813-1.45117-1.91895-1.45117-1.09179,0-1.91894.61132-1.91894,1.45117v.02343c0,.91211.85156,1.53516,1.91894,1.53516S617.16253,303.68359,617.16253,302.77148Z"/><path d="M619.64886,302.66406v-.02441a2.01071,2.01071,0,0,1,1.91894-2.14649,1.98414,1.98414,0,0,1,1.88281,2.12305v.02344a2.01,2.01,0,0,1-1.90722,2.14746A1.98567,1.98567,0,0,1,619.64886,302.66406Zm.80273-.04785v.02344c0,.83984.49219,1.47558,1.11621,1.47558.64746,0,1.09082-.64746,1.09082-1.45117v-.02441c0-.83887-.5039-1.47461-1.11523-1.47461C620.88421,301.165,620.45159,301.82422,620.45159,302.61621Zm6.22461-2.02734h.85156l-3.23828,4.40136-2.91406,3.99415h-.86328l3.23828-4.37793ZM624.602,306.957v-.02344a2.009,2.009,0,0,1,1.90625-2.14648,1.97649,1.97649,0,0,1,1.88379,2.12207v.02441a1.90852,1.90852,0,1,1-3.79.02344Zm2.998,0v-.02344c0-.83984-.49121-1.47558-1.11524-1.47558-.64746,0-1.09179.66015-1.09179,1.45117v.02441c0,.83985.49218,1.47461,1.11523,1.47461C627.16839,308.4082,627.6,307.76074,627.6,306.957Z"/><path d="M629.70452,310.06348a5.06512,5.06512,0,0,0,0-9.043l.39551-.61133a5.62692,5.62692,0,0,1,0,10.2666Z"/></g></svg>