<?xml version="1.0" encoding="utf-8"?>
<!-- Generator: Adobe Illustrator 24.3.0, SVG Export Plug-In . SVG Version: 6.00 Build 0)  -->
<svg version="1.1" id="Слой_2" xmlns="http://www.w3.org/2000/svg" xmlns:xlink="http://www.w3.org/1999/xlink" x="0px" y="0px"
	 viewBox="0 0 790 450" enable-background="new 0 0 790 450" xml:space="preserve">
<rect x="121.478722" y="97.135445" opacity="0.6" fill="#979797" width="462.952148" height="12"/>
<rect x="121.478722" y="109.135445" fill="#505C90" width="596.449707" height="12"/>
<rect x="121.478722" y="135.498566" opacity="0.6" fill="#979797" width="322.576111" height="12"/>
<rect x="121.478722" y="147.498566" fill="#505C90" width="380.762604" height="12"/>
<rect x="121.478722" y="173.861694" opacity="0.6" fill="#979797" width="439.627045" height="12"/>
<rect x="121.478722" y="185.861694" fill="#505C90" width="621.895447" height="12"/>
<rect x="121.478722" y="212.224823" opacity="0.6" fill="#979797" width="455.334808" height="12"/>
<rect x="121.478722" y="224.224823" fill="#505C90" width="630.694641" height="12"/>
<rect x="121.478722" y="250.587952" opacity="0.6" fill="#979797" width="298.224854" height="12"/>
<rect x="121.478722" y="262.587952" fill="#505C90" width="452.777771" height="12"/>
<rect x="121.478722" y="288.95108" opacity="0.6" fill="#979797" width="283.924103" height="12"/>
<rect x="121.478722" y="300.95108" fill="#505C90" width="326.710419" height="12"/>
<rect x="121.478722" y="327.314209" opacity="0.6" fill="#979797" width="212.2854" height="12"/>
<rect x="121.478722" y="339.314209" fill="#505C90" width="224.712296" height="12"/>
<rect x="121.478722" y="365.677338" opacity="0.6" fill="#979797" width="215.699677" height="12"/>
<rect x="121.478722" y="377.677338" fill="#505C90" width="250.894989" height="12"/>
<rect x="121.478722" y="404.040466" opacity="0.6" fill="#979797" width="195.001694" height="12"/>
<rect x="121.478722" y="416.040466" fill="#505C90" width="215.699677" height="12"/>
<g opacity="0.7">
	<path fill="#27282C" d="M39.098633,112.322861h-0.109375v1.175781h-1.121094V103.20372h1.175781v4.087891h0.109375
		c0.40332-0.792969,1.298828-1.291992,2.310547-1.291992c1.873047,0,3.089844,1.49707,3.089844,3.814453
		c0,2.303711-1.223633,3.814453-3.089844,3.814453C40.438477,113.628525,39.563477,113.143173,39.098633,112.322861z
		 M39.016602,109.814072c0,1.702148,0.833984,2.754883,2.173828,2.754883c1.34668,0,2.146484-1.032227,2.146484-2.754883
		s-0.799805-2.754883-2.146484-2.754883C39.850586,107.059189,39.016602,108.111923,39.016602,109.814072z"/>
	<path fill="#27282C" d="M52.456055,111.591415c-0.341797,1.257812-1.490234,2.037109-3.103516,2.037109
		c-2.043945,0-3.322266-1.476562-3.322266-3.807617c0-2.317383,1.298828-3.821289,3.322266-3.821289
		c1.989258,0,3.199219,1.415039,3.199219,3.705078v0.451172h-5.297852v0.054688c0.061523,1.456055,0.875,2.378906,2.125977,2.378906
		c0.950195,0,1.592773-0.348633,1.900391-0.998047H52.456055z M47.253906,109.205673h4.060547
		c-0.027344-1.305664-0.806641-2.166992-1.975586-2.166992C48.163086,107.038681,47.342773,107.900009,47.253906,109.205673z"/>
	<path fill="#27282C" d="M54.397461,106.129501h1.121094v1.162109h0.109375c0.369141-0.813477,1.086914-1.291992,2.214844-1.291992
		c1.654297,0,2.577148,0.977539,2.577148,2.727539v4.771484h-1.175781v-4.484375c0-1.326172-0.560547-1.955078-1.736328-1.955078
		s-1.93457,0.786133-1.93457,2.078125v4.361328h-1.175781V106.129501z"/>
	<path fill="#27282C" d="M67.474609,108.385361c-0.191406-0.731445-0.84082-1.326172-1.900391-1.326172
		c-1.326172,0-2.160156,1.05957-2.160156,2.727539c0,1.702148,0.847656,2.782227,2.160156,2.782227
		c0.991211,0,1.681641-0.458008,1.900391-1.291992h1.189453c-0.211914,1.353516-1.3125,2.351562-3.083008,2.351562
		c-2.064453,0-3.383789-1.49707-3.383789-3.841797c0-2.296875,1.3125-3.787109,3.376953-3.787109
		c1.791016,0,2.884766,1.073242,3.089844,2.385742H67.474609z"/>
	<path fill="#27282C" d="M70.46875,103.20372h1.175781v4.087891h0.109375c0.369141-0.813477,1.141602-1.291992,2.269531-1.291992
		c1.558594,0,2.542969,0.998047,2.542969,2.727539v4.771484h-1.175781v-4.484375c0-1.305664-0.587891-1.955078-1.702148-1.955078
		c-1.319336,0-2.043945,0.833984-2.043945,2.078125v4.361328H70.46875V103.20372z"/>
	<path fill="#27282C" d="M78.794922,112.678329c0-0.492188,0.40332-0.888672,0.888672-0.888672
		c0.492188,0,0.888672,0.396484,0.888672,0.888672c0,0.485352-0.396484,0.888672-0.888672,0.888672
		C79.198242,113.567001,78.794922,113.163681,78.794922,112.678329z"/>
	<path fill="#27282C" d="M89.554688,109.814072c0,2.303711-1.223633,3.814453-3.09668,3.814453
		c-1.052734,0-1.900391-0.458008-2.303711-1.237305h-0.109375v3.568359h-1.175781v-9.830078h1.121094v1.230469h0.109375
		c0.47168-0.847656,1.353516-1.360352,2.358398-1.360352C88.337891,105.999619,89.554688,107.496689,89.554688,109.814072z
		 M88.337891,109.814072c0-1.722656-0.806641-2.754883-2.15332-2.754883c-1.333008,0-2.173828,1.05957-2.173828,2.754883
		c0,1.688477,0.84082,2.754883,2.166992,2.754883C87.53125,112.568954,88.337891,111.536728,88.337891,109.814072z"/>
	<path fill="#27282C" d="M91.46875,103.20372h1.175781v4.087891h0.109375c0.369141-0.813477,1.141602-1.291992,2.269531-1.291992
		c1.558594,0,2.542969,0.998047,2.542969,2.727539v4.771484h-1.175781v-4.484375c0-1.305664-0.587891-1.955078-1.702148-1.955078
		c-1.319336,0-2.043945,0.833984-2.043945,2.078125v4.361328H91.46875V103.20372z"/>
	<path fill="#27282C" d="M106.398438,109.814072c0,2.303711-1.223633,3.814453-3.09668,3.814453
		c-1.052734,0-1.900391-0.458008-2.303711-1.237305h-0.109375v3.568359h-1.175781v-9.830078h1.121094v1.230469h0.109375
		c0.47168-0.847656,1.353516-1.360352,2.358398-1.360352C105.181641,105.999619,106.398438,107.496689,106.398438,109.814072z
		 M105.181641,109.814072c0-1.722656-0.806641-2.754883-2.15332-2.754883c-1.333008,0-2.173828,1.05957-2.173828,2.754883
		c0,1.688477,0.84082,2.754883,2.166992,2.754883C104.375,112.568954,105.181641,111.536728,105.181641,109.814072z"/>
	<path fill="#27282C" d="M3.052734,144.129501h1.121094v1.162109h0.109375c0.334961-0.820312,1.073242-1.291992,2.057617-1.291992
		c0.998047,0,1.695312,0.526367,2.037109,1.291992h0.109375c0.396484-0.779297,1.237305-1.291992,2.255859-1.291992
		c1.503906,0,2.344727,0.861328,2.344727,2.40625v5.092773h-1.175781v-4.819336c0-1.086914-0.512695-1.620117-1.551758-1.620117
		c-1.025391,0-1.708984,0.765625-1.708984,1.702148v4.737305H7.475586v-5.003906c0-0.875-0.608398-1.435547-1.538086-1.435547
		c-0.963867,0-1.708984,0.833984-1.708984,1.873047v4.566406H3.052734V144.129501z"/>
	<path fill="#27282C" d="M15.029297,141.887314c0-0.451172,0.369141-0.820312,0.820312-0.820312
		s0.820312,0.369141,0.820312,0.820312s-0.369141,0.820312-0.820312,0.820312S15.029297,142.338486,15.029297,141.887314z
		 M15.261719,144.129501H16.4375v7.369141h-1.175781V144.129501z"/>
	<path fill="#27282C" d="M23.587891,146.385361c-0.191406-0.731445-0.84082-1.326172-1.900391-1.326172
		c-1.326172,0-2.160156,1.05957-2.160156,2.727539c0,1.702148,0.847656,2.782227,2.160156,2.782227
		c0.991211,0,1.681641-0.458008,1.900391-1.291992h1.189453c-0.211914,1.353516-1.3125,2.351562-3.083008,2.351562
		c-2.064453,0-3.383789-1.49707-3.383789-3.841797c0-2.296875,1.3125-3.787109,3.376953-3.787109
		c1.791016,0,2.884766,1.073242,3.089844,2.385742H23.587891z"/>
	<path fill="#27282C" d="M26.513672,144.129501h1.121094v1.09375h0.109375c0.21875-0.717773,1.066406-1.223633,2.043945-1.223633
		c0.191406,0,0.4375,0.013672,0.587891,0.03418v1.175781c-0.095703-0.027344-0.519531-0.068359-0.751953-0.068359
		c-1.121094,0-1.93457,0.751953-1.93457,1.791016v4.566406h-1.175781V144.129501z"/>
	<path fill="#27282C" d="M31.271484,147.814072c0-2.37207,1.298828-3.814453,3.397461-3.814453s3.397461,1.442383,3.397461,3.814453
		c0,2.365234-1.298828,3.814453-3.397461,3.814453S31.271484,150.179306,31.271484,147.814072z M36.849609,147.814072
		c0-1.75-0.786133-2.754883-2.180664-2.754883s-2.180664,1.004883-2.180664,2.754883
		c0,1.743164,0.786133,2.754883,2.180664,2.754883S36.849609,149.557236,36.849609,147.814072z"/>
	<path fill="#27282C" d="M38.53125,153.105087v-0.875h6.398438v0.875H38.53125z"/>
	<path fill="#27282C" d="M47.267578,150.322861h-0.109375v1.175781h-1.121094V141.20372h1.175781v4.087891h0.109375
		c0.40332-0.792969,1.298828-1.291992,2.310547-1.291992c1.873047,0,3.089844,1.49707,3.089844,3.814453
		c0,2.303711-1.223633,3.814453-3.089844,3.814453C48.607422,151.628525,47.732422,151.143173,47.267578,150.322861z
		 M47.185547,147.814072c0,1.702148,0.833984,2.754883,2.173828,2.754883c1.34668,0,2.146484-1.032227,2.146484-2.754883
		s-0.799805-2.754883-2.146484-2.754883C48.019531,145.059189,47.185547,146.111923,47.185547,147.814072z"/>
	<path fill="#27282C" d="M60.625,149.591415c-0.341797,1.257812-1.490234,2.037109-3.103516,2.037109
		c-2.043945,0-3.322266-1.476562-3.322266-3.807617c0-2.317383,1.298828-3.821289,3.322266-3.821289
		c1.989258,0,3.199219,1.415039,3.199219,3.705078v0.451172h-5.297852v0.054688c0.061523,1.456055,0.875,2.378906,2.125977,2.378906
		c0.950195,0,1.592773-0.348633,1.900391-0.998047H60.625z M55.422852,147.205673h4.060547
		c-0.027344-1.305664-0.806641-2.166992-1.975586-2.166992C56.332031,145.038681,55.511719,145.900009,55.422852,147.205673z"/>
	<path fill="#27282C" d="M67.474609,146.385361c-0.191406-0.731445-0.84082-1.326172-1.900391-1.326172
		c-1.326172,0-2.160156,1.05957-2.160156,2.727539c0,1.702148,0.847656,2.782227,2.160156,2.782227
		c0.991211,0,1.681641-0.458008,1.900391-1.291992h1.189453c-0.211914,1.353516-1.3125,2.351562-3.083008,2.351562
		c-2.064453,0-3.383789-1.49707-3.383789-3.841797c0-2.296875,1.3125-3.787109,3.376953-3.787109
		c1.791016,0,2.884766,1.073242,3.089844,2.385742H67.474609z"/>
	<path fill="#27282C" d="M70.46875,141.20372h1.175781v4.087891h0.109375c0.369141-0.813477,1.141602-1.291992,2.269531-1.291992
		c1.558594,0,2.542969,0.998047,2.542969,2.727539v4.771484h-1.175781v-4.484375c0-1.305664-0.587891-1.955078-1.702148-1.955078
		c-1.319336,0-2.043945,0.833984-2.043945,2.078125v4.361328H70.46875V141.20372z"/>
	<path fill="#27282C" d="M78.794922,150.678329c0-0.492188,0.40332-0.888672,0.888672-0.888672
		c0.492188,0,0.888672,0.396484,0.888672,0.888672c0,0.485352-0.396484,0.888672-0.888672,0.888672
		C79.198242,151.567001,78.794922,151.163681,78.794922,150.678329z"/>
	<path fill="#27282C" d="M89.554688,147.814072c0,2.303711-1.223633,3.814453-3.09668,3.814453
		c-1.052734,0-1.900391-0.458008-2.303711-1.237305h-0.109375v3.568359h-1.175781v-9.830078h1.121094v1.230469h0.109375
		c0.47168-0.847656,1.353516-1.360352,2.358398-1.360352C88.337891,143.999619,89.554688,145.496689,89.554688,147.814072z
		 M88.337891,147.814072c0-1.722656-0.806641-2.754883-2.15332-2.754883c-1.333008,0-2.173828,1.05957-2.173828,2.754883
		c0,1.688477,0.84082,2.754883,2.166992,2.754883C87.53125,150.568954,88.337891,149.536728,88.337891,147.814072z"/>
	<path fill="#27282C" d="M91.46875,141.20372h1.175781v4.087891h0.109375c0.369141-0.813477,1.141602-1.291992,2.269531-1.291992
		c1.558594,0,2.542969,0.998047,2.542969,2.727539v4.771484h-1.175781v-4.484375c0-1.305664-0.587891-1.955078-1.702148-1.955078
		c-1.319336,0-2.043945,0.833984-2.043945,2.078125v4.361328H91.46875V141.20372z"/>
	<path fill="#27282C" d="M106.398438,147.814072c0,2.303711-1.223633,3.814453-3.09668,3.814453
		c-1.052734,0-1.900391-0.458008-2.303711-1.237305h-0.109375v3.568359h-1.175781v-9.830078h1.121094v1.230469h0.109375
		c0.47168-0.847656,1.353516-1.360352,2.358398-1.360352C105.181641,143.999619,106.398438,145.496689,106.398438,147.814072z
		 M105.181641,147.814072c0-1.722656-0.806641-2.754883-2.15332-2.754883c-1.333008,0-2.173828,1.05957-2.173828,2.754883
		c0,1.688477,0.84082,2.754883,2.166992,2.754883C104.375,150.568954,105.181641,149.536728,105.181641,147.814072z"/>
	<path fill="#27282C" d="M58.328125,189.498642v-9.864258h1.196289l5.352539,7.676758h0.109375v-7.676758h1.216797v9.864258
		h-1.196289l-5.352539-7.649414h-0.109375v7.649414H58.328125z"/>
	<path fill="#27282C" d="M68.520508,186.087509v-1.114258h4.484375v1.114258H68.520508z"/>
	<path fill="#27282C" d="M76.470703,188.322861h-0.109375v1.175781h-1.121094V179.20372h1.175781v4.087891h0.109375
		c0.40332-0.792969,1.298828-1.291992,2.310547-1.291992c1.873047,0,3.089844,1.49707,3.089844,3.814453
		c0,2.303711-1.223633,3.814453-3.089844,3.814453C77.810547,189.628525,76.935547,189.143173,76.470703,188.322861z
		 M76.388672,185.814072c0,1.702148,0.833984,2.754883,2.173828,2.754883c1.34668,0,2.146484-1.032227,2.146484-2.754883
		s-0.799805-2.754883-2.146484-2.754883C77.222656,183.059189,76.388672,184.111923,76.388672,185.814072z"/>
	<path fill="#27282C" d="M83.402344,185.814072c0-2.37207,1.298828-3.814453,3.397461-3.814453s3.397461,1.442383,3.397461,3.814453
		c0,2.365234-1.298828,3.814453-3.397461,3.814453S83.402344,188.179306,83.402344,185.814072z M88.980469,185.814072
		c0-1.75-0.786133-2.754883-2.180664-2.754883s-2.180664,1.004883-2.180664,2.754883
		c0,1.743164,0.786133,2.754883,2.180664,2.754883S88.980469,187.557236,88.980469,185.814072z"/>
	<path fill="#27282C" d="M91.673828,185.814072c0-2.310547,1.223633-3.814453,3.09668-3.814453
		c1.025391,0,1.893555,0.485352,2.310547,1.291992h0.102539v-4.087891h1.175781v10.294922h-1.121094v-1.175781h-0.109375
		c-0.464844,0.820312-1.339844,1.305664-2.358398,1.305664C92.883789,189.628525,91.673828,188.131454,91.673828,185.814072z
		 M92.890625,185.814072c0,1.722656,0.806641,2.754883,2.15332,2.754883c1.339844,0,2.166992-1.052734,2.166992-2.754883
		c0-1.688477-0.833984-2.754883-2.166992-2.754883C93.704102,183.059189,92.890625,184.098251,92.890625,185.814072z"/>
	<path fill="#27282C" d="M100.745117,192.123642v-1.004883c0.143555,0.027344,0.328125,0.03418,0.492188,0.03418
		c0.676758,0,1.045898-0.321289,1.353516-1.209961l0.136719-0.4375L100,182.129501h1.271484l2.023438,6.063477h0.109375
		l2.016602-6.063477h1.250977l-2.87793,7.820312c-0.628906,1.708984-1.216797,2.214844-2.522461,2.214844
		C101.114258,192.164658,100.90918,192.150986,100.745117,192.123642z"/>
	<path fill="#27282C" d="M39.823242,227.498154v-7.533203h-0.082031l-3.110352,7.533203h-1.039062l-3.110352-7.533203h-0.082031
		v7.533203h-1.148438v-9.864258h1.428711l3.376953,8.230469h0.109375l3.376953-8.230469h1.428711v9.864258H39.823242z"/>
	<path fill="#27282C" d="M42.899414,225.433701c0-1.319336,0.970703-2.078125,2.686523-2.180664l2.125977-0.129883v-0.669922
		c0-0.90918-0.567383-1.408203-1.667969-1.408203c-0.881836,0-1.49707,0.334961-1.661133,0.916016h-1.189453
		c0.157227-1.182617,1.319336-1.961914,2.891602-1.961914c1.797852,0,2.802734,0.922852,2.802734,2.454102v5.044922h-1.121094
		v-1.086914h-0.109375c-0.478516,0.786133-1.285156,1.216797-2.269531,1.216797
		C43.958984,227.628036,42.899414,226.78038,42.899414,225.433701z M47.711914,224.750107v-0.676758l-1.982422,0.129883
		c-1.121094,0.075195-1.613281,0.464844-1.613281,1.203125c0,0.751953,0.635742,1.189453,1.490234,1.189453
		C46.816406,226.59581,47.711914,225.802841,47.711914,224.750107z"/>
	<path fill="#27282C" d="M51.061523,220.129013h1.121094v1.162109h0.109375c0.369141-0.813477,1.086914-1.291992,2.214844-1.291992
		c1.654297,0,2.577148,0.977539,2.577148,2.727539v4.771484h-1.175781v-4.484375c0-1.326172-0.560547-1.955078-1.736328-1.955078
		s-1.93457,0.786133-1.93457,2.078125v4.361328h-1.175781V220.129013z"/>
	<path fill="#27282C" d="M58.861328,223.813583c0-2.310547,1.223633-3.814453,3.09668-3.814453
		c1.025391,0,1.893555,0.485352,2.310547,1.291992h0.102539v-4.087891h1.175781v10.294922h-1.121094v-1.175781h-0.109375
		c-0.464844,0.820312-1.339844,1.305664-2.358398,1.305664C60.071289,227.628036,58.861328,226.130966,58.861328,223.813583z
		 M60.078125,223.813583c0,1.722656,0.806641,2.754883,2.15332,2.754883c1.339844,0,2.166992-1.052734,2.166992-2.754883
		c0-1.688477-0.833984-2.754883-2.166992-2.754883C60.891602,221.058701,60.078125,222.097763,60.078125,223.813583z"/>
	<path fill="#27282C" d="M73.886719,225.590927c-0.341797,1.257812-1.490234,2.037109-3.103516,2.037109
		c-2.043945,0-3.322266-1.476562-3.322266-3.807617c0-2.317383,1.298828-3.821289,3.322266-3.821289
		c1.989258,0,3.199219,1.415039,3.199219,3.705078v0.451172H68.68457v0.054688c0.061523,1.456055,0.875,2.378906,2.125977,2.378906
		c0.950195,0,1.592773-0.348633,1.900391-0.998047H73.886719z M68.68457,223.205185h4.060547
		c-0.027344-1.305664-0.806641-2.166992-1.975586-2.166992C69.59375,221.038193,68.773438,221.899521,68.68457,223.205185z"/>
	<path fill="#27282C" d="M75.828125,220.129013h1.121094v1.09375h0.109375c0.21875-0.717773,1.066406-1.223633,2.043945-1.223633
		c0.191406,0,0.4375,0.013672,0.587891,0.03418v1.175781c-0.095703-0.027344-0.519531-0.068359-0.751953-0.068359
		c-1.121094,0-1.93457,0.751953-1.93457,1.791016v4.566406h-1.175781V220.129013z"/>
	<path fill="#27282C" d="M82.458984,226.322372h-0.109375v1.175781h-1.121094v-10.294922h1.175781v4.087891h0.109375
		c0.40332-0.792969,1.298828-1.291992,2.310547-1.291992c1.873047,0,3.089844,1.49707,3.089844,3.814453
		c0,2.303711-1.223633,3.814453-3.089844,3.814453C83.798828,227.628036,82.923828,227.142685,82.458984,226.322372z
		 M82.376953,223.813583c0,1.702148,0.833984,2.754883,2.173828,2.754883c1.34668,0,2.146484-1.032227,2.146484-2.754883
		s-0.799805-2.754883-2.146484-2.754883C83.210938,221.058701,82.376953,222.111435,82.376953,223.813583z"/>
	<path fill="#27282C" d="M89.759766,220.129013h1.121094v1.09375h0.109375c0.21875-0.717773,1.066406-1.223633,2.043945-1.223633
		c0.191406,0,0.4375,0.013672,0.587891,0.03418v1.175781c-0.095703-0.027344-0.519531-0.068359-0.751953-0.068359
		c-1.121094,0-1.93457,0.751953-1.93457,1.791016v4.566406h-1.175781V220.129013z"/>
	<path fill="#27282C" d="M94.517578,223.813583c0-2.37207,1.298828-3.814453,3.397461-3.814453s3.397461,1.442383,3.397461,3.814453
		c0,2.365234-1.298828,3.814453-3.397461,3.814453S94.517578,226.178818,94.517578,223.813583z M100.095703,223.813583
		c0-1.75-0.786133-2.754883-2.180664-2.754883s-2.180664,1.004883-2.180664,2.754883
		c0,1.743164,0.786133,2.754883,2.180664,2.754883S100.095703,225.556747,100.095703,223.813583z"/>
	<path fill="#27282C" d="M104.826172,218.221786v1.907227h1.640625v0.984375h-1.640625v4.169922
		c0,0.868164,0.328125,1.237305,1.09375,1.237305c0.211914,0,0.328125-0.006836,0.546875-0.027344v0.991211
		c-0.232422,0.041016-0.458008,0.068359-0.69043,0.068359c-1.517578,0-2.125977-0.560547-2.125977-1.96875v-4.470703h-1.189453
		v-0.984375h1.189453v-1.907227H104.826172z"/>
	<path fill="#27282C" d="M35.140625,255.633896c1.866211,0,3.158203,1.312515,3.158203,3.192398
		c0,1.845703-1.319336,3.151367-3.171875,3.151367h-2.481445v3.520508h-1.230469v-9.864273H35.140625z M32.645508,260.883911
		h2.173828c1.401367,0,2.214844-0.751953,2.214844-2.057617c0-1.353516-0.786133-2.098633-2.214844-2.098633h-2.173828V260.883911z"
		/>
	<path fill="#27282C" d="M46.953125,265.498169v-4.491211h-5.414062v4.491211h-1.230469v-9.864273h1.230469v4.26564h5.414062
		v-4.26564h1.230469v9.864273H46.953125z"/>
	<path fill="#27282C" d="M54.424805,255.633896c1.866211,0,3.158203,1.312515,3.158203,3.192398
		c0,1.845703-1.319336,3.151367-3.171875,3.151367h-2.481445v3.520508h-1.230469v-9.864273H54.424805z M51.929688,260.883911
		h2.173828c1.401367,0,2.214844-0.751953,2.214844-2.057617c0-1.353516-0.786133-2.098633-2.214844-2.098633h-2.173828V260.883911z"
		/>
	<path fill="#27282C" d="M59.394531,262.087036v-1.114258h4.484375v1.114258H59.394531z"/>
	<path fill="#27282C" d="M69.921875,255.633896c1.866211,0,3.158203,1.312515,3.158203,3.192398
		c0,1.845703-1.319336,3.151367-3.171875,3.151367h-2.481445v3.520508h-1.230469v-9.864273H69.921875z M67.426758,260.883911
		h2.173828c1.401367,0,2.214844-0.751953,2.214844-2.057617c0-1.353516-0.786133-2.098633-2.214844-2.098633h-2.173828V260.883911z"
		/>
	<path fill="#27282C" d="M74.228516,263.433716c0-1.319336,0.970703-2.078125,2.686523-2.180664l2.125977-0.129883v-0.669922
		c0-0.90918-0.567383-1.408203-1.667969-1.408203c-0.881836,0-1.49707,0.334961-1.661133,0.916016h-1.189453
		c0.157227-1.182617,1.319336-1.961914,2.891602-1.961914c1.797852,0,2.802734,0.922852,2.802734,2.454102v5.044922h-1.121094
		v-1.086914h-0.109375c-0.478516,0.786133-1.285156,1.216797-2.269531,1.216797
		C75.288086,265.628052,74.228516,264.780396,74.228516,263.433716z M79.041016,262.750122v-0.676758l-1.982422,0.129883
		c-1.121094,0.075195-1.613281,0.464844-1.613281,1.203125c0,0.751953,0.635742,1.189453,1.490234,1.189453
		C78.145508,264.595825,79.041016,263.802856,79.041016,262.750122z"/>
	<path fill="#27282C" d="M82.390625,258.129028h1.121094v1.09375h0.109375c0.21875-0.717773,1.066406-1.223633,2.043945-1.223633
		c0.191406,0,0.4375,0.013672,0.587891,0.03418v1.175781c-0.095703-0.027344-0.519531-0.068359-0.751953-0.068359
		c-1.121094,0-1.93457,0.751953-1.93457,1.791016v4.566406h-1.175781V258.129028z"/>
	<path fill="#27282C" d="M90.163086,257.999146c1.544922,0,2.618164,0.765625,2.775391,1.975586h-1.162109
		c-0.157227-0.587891-0.731445-0.977539-1.620117-0.977539c-0.875,0-1.558594,0.444336-1.558594,1.100586
		c0,0.505859,0.410156,0.820312,1.27832,1.032227l1.134766,0.273438c1.387695,0.334961,2.057617,0.936523,2.057617,1.996094
		c0,1.319336-1.27832,2.228516-2.953125,2.228516c-1.640625,0-2.768555-0.786133-2.898438-2.009766h1.209961
		c0.198242,0.62207,0.786133,1.018555,1.729492,1.018555c0.991211,0,1.702148-0.47168,1.702148-1.148438
		c0-0.505859-0.382812-0.847656-1.168945-1.039062l-1.264648-0.307617c-1.380859-0.334961-2.009766-0.929688-2.009766-1.996094
		C87.415039,258.921997,88.597656,257.999146,90.163086,257.999146z"/>
	<path fill="#27282C" d="M100.970703,263.590942c-0.341797,1.257812-1.490234,2.037109-3.103516,2.037109
		c-2.043945,0-3.322266-1.476562-3.322266-3.807617c0-2.317383,1.298828-3.821289,3.322266-3.821289
		c1.989258,0,3.199219,1.415039,3.199219,3.705078v0.451172h-5.297852v0.054688c0.061523,1.456055,0.875,2.378906,2.125977,2.378906
		c0.950195,0,1.592773-0.348633,1.900391-0.998047H100.970703z M95.768555,261.2052h4.060547
		c-0.027344-1.305664-0.806641-2.166992-1.975586-2.166992C96.677734,259.038208,95.857422,259.899536,95.768555,261.2052z"/>
	<path fill="#27282C" d="M102.912109,258.129028h1.121094v1.09375h0.109375c0.21875-0.717773,1.066406-1.223633,2.043945-1.223633
		c0.191406,0,0.4375,0.013672,0.587891,0.03418v1.175781c-0.095703-0.027344-0.519531-0.068359-0.751953-0.068359
		c-1.121094,0-1.93457,0.751953-1.93457,1.791016v4.566406h-1.175781V258.129028z"/>
	<path fill="#27282C" d="M62.525391,301.433716c0-1.319336,0.970703-2.078125,2.686523-2.180664l2.125977-0.129883v-0.669922
		c0-0.90918-0.567383-1.408203-1.667969-1.408203c-0.881836,0-1.49707,0.334961-1.661133,0.916016h-1.189453
		c0.157227-1.182617,1.319336-1.961914,2.891602-1.961914c1.797852,0,2.802734,0.922852,2.802734,2.454102v5.044922h-1.121094
		v-1.086914h-0.109375c-0.478516,0.786133-1.285156,1.216797-2.269531,1.216797
		C63.584961,303.628052,62.525391,302.780396,62.525391,301.433716z M67.337891,300.750122v-0.676758l-1.982422,0.129883
		c-1.121094,0.075195-1.613281,0.464844-1.613281,1.203125c0,0.751953,0.635742,1.189453,1.490234,1.189453
		C66.442383,302.595825,67.337891,301.802856,67.337891,300.750122z"/>
	<path fill="#27282C" d="M70.6875,296.129028h1.121094v1.162109h0.109375c0.334961-0.820312,1.073242-1.291992,2.057617-1.291992
		c0.998047,0,1.695312,0.526367,2.037109,1.291992h0.109375c0.396484-0.779297,1.237305-1.291992,2.255859-1.291992
		c1.503906,0,2.344727,0.861328,2.344727,2.40625v5.092773h-1.175781v-4.819336c0-1.086914-0.512695-1.620117-1.551758-1.620117
		c-1.025391,0-1.708984,0.765625-1.708984,1.702148v4.737305h-1.175781v-5.003906c0-0.875-0.608398-1.435547-1.538086-1.435547
		c-0.963867,0-1.708984,0.833984-1.708984,1.873047v4.566406H70.6875V296.129028z"/>
	<path fill="#27282C" d="M89.554688,299.813599c0,2.303711-1.223633,3.814453-3.09668,3.814453
		c-1.052734,0-1.900391-0.458008-2.303711-1.237305h-0.109375v3.568359h-1.175781v-9.830078h1.121094v1.230469h0.109375
		c0.47168-0.847656,1.353516-1.360352,2.358398-1.360352C88.337891,295.999146,89.554688,297.496216,89.554688,299.813599z
		 M88.337891,299.813599c0-1.722656-0.806641-2.754883-2.15332-2.754883c-1.333008,0-2.173828,1.05957-2.173828,2.754883
		c0,1.688477,0.84082,2.754883,2.166992,2.754883C87.53125,302.568481,88.337891,301.536255,88.337891,299.813599z"/>
	<path fill="#27282C" d="M91.46875,293.203247h1.175781v4.087891h0.109375c0.369141-0.813477,1.141602-1.291992,2.269531-1.291992
		c1.558594,0,2.542969,0.998047,2.542969,2.727539v4.771484h-1.175781v-4.484375c0-1.305664-0.587891-1.955078-1.702148-1.955078
		c-1.319336,0-2.043945,0.833984-2.043945,2.078125v4.361328H91.46875V293.203247z"/>
	<path fill="#27282C" d="M106.398438,299.813599c0,2.303711-1.223633,3.814453-3.09668,3.814453
		c-1.052734,0-1.900391-0.458008-2.303711-1.237305h-0.109375v3.568359h-1.175781v-9.830078h1.121094v1.230469h0.109375
		c0.47168-0.847656,1.353516-1.360352,2.358398-1.360352C105.181641,295.999146,106.398438,297.496216,106.398438,299.813599z
		 M105.181641,299.813599c0-1.722656-0.806641-2.754883-2.15332-2.754883c-1.333008,0-2.173828,1.05957-2.173828,2.754883
		c0,1.688477,0.84082,2.754883,2.166992,2.754883C104.375,302.568481,105.181641,301.536255,105.181641,299.813599z"/>
	<path fill="#27282C" d="M40.561523,341.498169h-1.162109l-2.686523-9.864258h1.285156l1.961914,8.018555h0.082031L42.25,331.633911
		h1.244141l2.208008,8.018555h0.082031l1.961914-8.018555h1.285156l-2.686523,9.864258h-1.162109l-2.269531-7.786133h-0.082031
		L40.561523,341.498169z"/>
	<path fill="#27282C" d="M49.701172,337.813599c0-2.37207,1.298828-3.814453,3.397461-3.814453s3.397461,1.442383,3.397461,3.814453
		c0,2.365234-1.298828,3.814453-3.397461,3.814453S49.701172,340.178833,49.701172,337.813599z M55.279297,337.813599
		c0-1.75-0.786133-2.754883-2.180664-2.754883s-2.180664,1.004883-2.180664,2.754883
		c0,1.743164,0.786133,2.754883,2.180664,2.754883S55.279297,339.556763,55.279297,337.813599z"/>
	<path fill="#27282C" d="M58.341797,334.129028h1.121094v1.09375h0.109375c0.21875-0.717773,1.066406-1.223633,2.043945-1.223633
		c0.191406,0,0.4375,0.013672,0.587891,0.03418v1.175781c-0.095703-0.027344-0.519531-0.068359-0.751953-0.068359
		c-1.121094,0-1.93457,0.751953-1.93457,1.791016v4.566406h-1.175781V334.129028z"/>
	<path fill="#27282C" d="M63.099609,337.813599c0-2.310547,1.223633-3.814453,3.09668-3.814453
		c1.025391,0,1.893555,0.485352,2.310547,1.291992h0.102539v-4.087891h1.175781v10.294922h-1.121094v-1.175781h-0.109375
		c-0.464844,0.820312-1.339844,1.305664-2.358398,1.305664C64.30957,341.628052,63.099609,340.130981,63.099609,337.813599z
		 M64.316406,337.813599c0,1.722656,0.806641,2.754883,2.15332,2.754883c1.339844,0,2.166992-1.052734,2.166992-2.754883
		c0-1.688477-0.833984-2.754883-2.166992-2.754883C65.129883,335.058716,64.316406,336.097778,64.316406,337.813599z"/>
	<path fill="#27282C" d="M78.753906,337.813599c0,2.303711-1.223633,3.814453-3.09668,3.814453
		c-1.052734,0-1.900391-0.458008-2.303711-1.237305h-0.109375v3.568359h-1.175781v-9.830078h1.121094v1.230469h0.109375
		c0.47168-0.847656,1.353516-1.360352,2.358398-1.360352C77.537109,333.999146,78.753906,335.496216,78.753906,337.813599z
		 M77.537109,337.813599c0-1.722656-0.806641-2.754883-2.15332-2.754883c-1.333008,0-2.173828,1.05957-2.173828,2.754883
		c0,1.688477,0.84082,2.754883,2.166992,2.754883C76.730469,340.568481,77.537109,339.536255,77.537109,337.813599z"/>
	<path fill="#27282C" d="M80.599609,334.129028h1.121094v1.09375h0.109375c0.21875-0.717773,1.066406-1.223633,2.043945-1.223633
		c0.191406,0,0.4375,0.013672,0.587891,0.03418v1.175781c-0.095703-0.027344-0.519531-0.068359-0.751953-0.068359
		c-1.121094,0-1.93457,0.751953-1.93457,1.791016v4.566406h-1.175781V334.129028z"/>
	<path fill="#27282C" d="M91.783203,339.590942c-0.341797,1.257812-1.490234,2.037109-3.103516,2.037109
		c-2.043945,0-3.322266-1.476562-3.322266-3.807617c0-2.317383,1.298828-3.821289,3.322266-3.821289
		c1.989258,0,3.199219,1.415039,3.199219,3.705078v0.451172h-5.297852v0.054688c0.061523,1.456055,0.875,2.378906,2.125977,2.378906
		c0.950195,0,1.592773-0.348633,1.900391-0.998047H91.783203z M86.581055,337.2052h4.060547
		c-0.027344-1.305664-0.806641-2.166992-1.975586-2.166992C87.490234,335.038208,86.669922,335.899536,86.581055,337.2052z"/>
	<path fill="#27282C" d="M96.301758,333.999146c1.544922,0,2.618164,0.765625,2.775391,1.975586h-1.162109
		c-0.157227-0.587891-0.731445-0.977539-1.620117-0.977539c-0.875,0-1.558594,0.444336-1.558594,1.100586
		c0,0.505859,0.410156,0.820312,1.27832,1.032227l1.134766,0.273438c1.387695,0.334961,2.057617,0.936523,2.057617,1.996094
		c0,1.319336-1.27832,2.228516-2.953125,2.228516c-1.640625,0-2.768555-0.786133-2.898438-2.009766h1.209961
		c0.198242,0.62207,0.786133,1.018555,1.729492,1.018555c0.991211,0,1.702148-0.47168,1.702148-1.148438
		c0-0.505859-0.382812-0.847656-1.168945-1.039062l-1.264648-0.307617c-1.380859-0.334961-2.009766-0.929688-2.009766-1.996094
		C93.553711,334.921997,94.736328,333.999146,96.301758,333.999146z"/>
	<path fill="#27282C" d="M103.493164,333.999146c1.544922,0,2.618164,0.765625,2.775391,1.975586h-1.162109
		c-0.157227-0.587891-0.731445-0.977539-1.620117-0.977539c-0.875,0-1.558594,0.444336-1.558594,1.100586
		c0,0.505859,0.410156,0.820312,1.27832,1.032227l1.134766,0.273438c1.387695,0.334961,2.057617,0.936523,2.057617,1.996094
		c0,1.319336-1.27832,2.228516-2.953125,2.228516c-1.640625,0-2.768555-0.786133-2.898438-2.009766h1.209961
		c0.198242,0.62207,0.786133,1.018555,1.729492,1.018555c0.991211,0,1.702148-0.47168,1.702148-1.148438
		c0-0.505859-0.382812-0.847656-1.168945-1.039062l-1.264648-0.307617c-1.380859-0.334961-2.009766-0.929688-2.009766-1.996094
		C100.745117,334.921997,101.927734,333.999146,103.493164,333.999146z"/>
	<path fill="#27282C" d="M49.605469,379.498169v-7.533203h-0.082031l-3.110352,7.533203h-1.039062l-3.110352-7.533203h-0.082031
		v7.533203h-1.148438v-9.864258h1.428711l3.376953,8.230469h0.109375l3.376953-8.230469h1.428711v9.864258H49.605469z"/>
	<path fill="#27282C" d="M59.175781,377.590942c-0.341797,1.257812-1.490234,2.037109-3.103516,2.037109
		c-2.043945,0-3.322266-1.476562-3.322266-3.807617c0-2.317383,1.298828-3.821289,3.322266-3.821289
		c1.989258,0,3.199219,1.415039,3.199219,3.705078v0.451172h-5.297852v0.054688c0.061523,1.456055,0.875,2.378906,2.125977,2.378906
		c0.950195,0,1.592773-0.348633,1.900391-0.998047H59.175781z M53.973633,375.2052h4.060547
		c-0.027344-1.305664-0.806641-2.166992-1.975586-2.166992C54.882812,373.038208,54.0625,373.899536,53.973633,375.2052z"/>
	<path fill="#27282C" d="M60.748047,375.813599c0-2.310547,1.223633-3.814453,3.09668-3.814453
		c1.025391,0,1.893555,0.485352,2.310547,1.291992h0.102539v-4.087891h1.175781v10.294922H66.3125v-1.175781h-0.109375
		c-0.464844,0.820312-1.339844,1.305664-2.358398,1.305664C61.958008,379.628052,60.748047,378.130981,60.748047,375.813599z
		 M61.964844,375.813599c0,1.722656,0.806641,2.754883,2.15332,2.754883c1.339844,0,2.166992-1.052734,2.166992-2.754883
		c0-1.688477-0.833984-2.754883-2.166992-2.754883C62.77832,373.058716,61.964844,374.097778,61.964844,375.813599z"/>
	<path fill="#27282C" d="M69.511719,369.886841c0-0.451172,0.369141-0.820312,0.820312-0.820312
		s0.820312,0.369141,0.820312,0.820312s-0.369141,0.820312-0.820312,0.820312S69.511719,370.338013,69.511719,369.886841z
		 M69.744141,372.129028h1.175781v7.369141h-1.175781V372.129028z"/>
	<path fill="#27282C" d="M72.724609,377.433716c0-1.319336,0.970703-2.078125,2.686523-2.180664l2.125977-0.129883v-0.669922
		c0-0.90918-0.567383-1.408203-1.667969-1.408203c-0.881836,0-1.49707,0.334961-1.661133,0.916016h-1.189453
		c0.157227-1.182617,1.319336-1.961914,2.891602-1.961914c1.797852,0,2.802734,0.922852,2.802734,2.454102v5.044922h-1.121094
		v-1.086914h-0.109375c-0.478516,0.786133-1.285156,1.216797-2.269531,1.216797
		C73.78418,379.628052,72.724609,378.780396,72.724609,377.433716z M77.537109,376.750122v-0.676758l-1.982422,0.129883
		c-1.121094,0.075195-1.613281,0.464844-1.613281,1.203125c0,0.751953,0.635742,1.189453,1.490234,1.189453
		C76.641602,378.595825,77.537109,377.802856,77.537109,376.750122z"/>
	<path fill="#27282C" d="M83.55957,379.498169h-1.162109l-2.686523-9.864258h1.285156l1.961914,8.018555h0.082031l2.208008-8.018555
		h1.244141l2.208008,8.018555h0.082031l1.961914-8.018555h1.285156l-2.686523,9.864258h-1.162109l-2.269531-7.786133h-0.082031
		L83.55957,379.498169z"/>
	<path fill="#27282C" d="M93.546875,369.886841c0-0.451172,0.369141-0.820312,0.820312-0.820312
		s0.820312,0.369141,0.820312,0.820312s-0.369141,0.820312-0.820312,0.820312S93.546875,370.338013,93.546875,369.886841z
		 M93.779297,372.129028h1.175781v7.369141h-1.175781V372.129028z"/>
	<path fill="#27282C" d="M101.75,372.129028h1.442383l-3.171875,3.158203l3.383789,4.210938h-1.49707l-2.761719-3.452148
		l-0.704102,0.65625v2.795898h-1.175781v-10.294922h1.175781v6.145508h0.109375L101.75,372.129028z"/>
	<path fill="#27282C" d="M104.59375,369.886841c0-0.451172,0.369141-0.820312,0.820312-0.820312
		s0.820312,0.369141,0.820312,0.820312s-0.369141,0.820312-0.820312,0.820312S104.59375,370.338013,104.59375,369.886841z
		 M104.826172,372.129028h1.175781v7.369141h-1.175781V372.129028z"/>
	<path fill="#27282C" d="M10.93457,414.921021c0.150391,1.032227,1.134766,1.688477,2.536133,1.688477
		c1.326172,0,2.303711-0.717773,2.303711-1.695312c0-0.84082-0.615234-1.374023-1.975586-1.71582l-1.264648-0.328125
		c-1.78418-0.451172-2.556641-1.257812-2.556641-2.65918c0-1.674805,1.401367-2.80957,3.486328-2.80957
		c1.907227,0,3.329102,1.134766,3.431641,2.727539h-1.237305c-0.170898-1.011719-1.004883-1.613281-2.235352-1.613281
		c-1.3125,0-2.180664,0.65625-2.180664,1.654297c0,0.772461,0.540039,1.216797,1.900391,1.56543l1.032227,0.273438
		c2.043945,0.512695,2.864258,1.305664,2.864258,2.754883c0,1.811523-1.428711,2.966797-3.68457,2.966797
		c-2.091797,0-3.53418-1.107422-3.664062-2.80957H10.93457z"/>
	<path fill="#27282C" d="M19.035156,420.123169v-1.004883c0.143555,0.027344,0.328125,0.03418,0.492188,0.03418
		c0.676758,0,1.045898-0.321289,1.353516-1.209961l0.136719-0.4375l-2.727539-7.375977h1.271484l2.023438,6.063477h0.109375
		l2.016602-6.063477h1.250977l-2.87793,7.820312c-0.628906,1.708984-1.216797,2.214844-2.522461,2.214844
		C19.404297,420.164185,19.199219,420.150513,19.035156,420.123169z"/>
	<path fill="#27282C" d="M26.53418,410.129028h1.121094v1.162109h0.109375c0.334961-0.820312,1.073242-1.291992,2.057617-1.291992
		c0.998047,0,1.695312,0.526367,2.037109,1.291992h0.109375c0.396484-0.779297,1.237305-1.291992,2.255859-1.291992
		c1.503906,0,2.344727,0.861328,2.344727,2.40625v5.092773h-1.175781v-4.819336c0-1.086914-0.512695-1.620117-1.551758-1.620117
		c-1.025391,0-1.708984,0.765625-1.708984,1.702148v4.737305h-1.175781v-5.003906c0-0.875-0.608398-1.435547-1.538086-1.435547
		c-0.963867,0-1.708984,0.833984-1.708984,1.873047v4.566406H26.53418V410.129028z"/>
	<path fill="#27282C" d="M39.208008,411.113403h-1.223633v-0.984375h1.223633v-0.820312
		c0-1.469727,0.738281-2.173828,2.139648-2.173828c0.287109,0,0.546875,0.020508,0.792969,0.068359v0.957031
		c-0.143555-0.027344-0.341797-0.03418-0.553711-0.03418c-0.847656,0-1.203125,0.410156-1.203125,1.216797v0.786133h1.688477
		v0.984375h-1.688477v6.384766h-1.175781V411.113403z"/>
	<path fill="#27282C" d="M43.104492,413.813599c0-2.37207,1.298828-3.814453,3.397461-3.814453s3.397461,1.442383,3.397461,3.814453
		c0,2.365234-1.298828,3.814453-3.397461,3.814453S43.104492,416.178833,43.104492,413.813599z M48.682617,413.813599
		c0-1.75-0.786133-2.754883-2.180664-2.754883s-2.180664,1.004883-2.180664,2.754883
		c0,1.743164,0.786133,2.754883,2.180664,2.754883S48.682617,415.556763,48.682617,413.813599z"/>
	<path fill="#27282C" d="M51.745117,410.129028h1.121094v1.162109h0.109375c0.369141-0.813477,1.086914-1.291992,2.214844-1.291992
		c1.654297,0,2.577148,0.977539,2.577148,2.727539v4.771484h-1.175781v-4.484375c0-1.326172-0.560547-1.955078-1.736328-1.955078
		s-1.93457,0.786133-1.93457,2.078125v4.361328h-1.175781V410.129028z"/>
	<path fill="#27282C" d="M59.743164,420.123169v-1.004883c0.143555,0.027344,0.328125,0.03418,0.492188,0.03418
		c0.676758,0,1.045898-0.321289,1.353516-1.209961l0.136719-0.4375l-2.727539-7.375977h1.271484l2.023438,6.063477h0.109375
		l2.016602-6.063477h1.250977l-2.87793,7.820312c-0.628906,1.708984-1.216797,2.214844-2.522461,2.214844
		C60.112305,420.164185,59.907227,420.150513,59.743164,420.123169z"/>
	<path fill="#27282C" d="M70.824219,413.813599c0-2.310547,1.223633-3.814453,3.09668-3.814453
		c1.025391,0,1.893555,0.485352,2.310547,1.291992h0.102539v-4.087891h1.175781v10.294922h-1.121094v-1.175781h-0.109375
		c-0.464844,0.820312-1.339844,1.305664-2.358398,1.305664C72.03418,417.628052,70.824219,416.130981,70.824219,413.813599z
		 M72.041016,413.813599c0,1.722656,0.806641,2.754883,2.15332,2.754883c1.339844,0,2.166992-1.052734,2.166992-2.754883
		c0-1.688477-0.833984-2.754883-2.166992-2.754883C72.854492,411.058716,72.041016,412.097778,72.041016,413.813599z"/>
	<path fill="#27282C" d="M85.849609,415.590942c-0.341797,1.257812-1.490234,2.037109-3.103516,2.037109
		c-2.043945,0-3.322266-1.476562-3.322266-3.807617c0-2.317383,1.298828-3.821289,3.322266-3.821289
		c1.989258,0,3.199219,1.415039,3.199219,3.705078v0.451172h-5.297852v0.054688c0.061523,1.456055,0.875,2.378906,2.125977,2.378906
		c0.950195,0,1.592773-0.348633,1.900391-0.998047H85.849609z M80.647461,413.2052h4.060547
		c-0.027344-1.305664-0.806641-2.166992-1.975586-2.166992C81.556641,411.038208,80.736328,411.899536,80.647461,413.2052z"/>
	<path fill="#27282C" d="M87.791016,410.129028h1.121094v1.162109h0.109375c0.334961-0.820312,1.073242-1.291992,2.057617-1.291992
		c0.998047,0,1.695312,0.526367,2.037109,1.291992h0.109375c0.396484-0.779297,1.237305-1.291992,2.255859-1.291992
		c1.503906,0,2.344727,0.861328,2.344727,2.40625v5.092773h-1.175781v-4.819336c0-1.086914-0.512695-1.620117-1.551758-1.620117
		c-1.025391,0-1.708984,0.765625-1.708984,1.702148v4.737305h-1.175781v-5.003906c0-0.875-0.608398-1.435547-1.538086-1.435547
		c-0.963867,0-1.708984,0.833984-1.708984,1.873047v4.566406h-1.175781V410.129028z"/>
	<path fill="#27282C" d="M99.603516,413.813599c0-2.37207,1.298828-3.814453,3.397461-3.814453s3.397461,1.442383,3.397461,3.814453
		c0,2.365234-1.298828,3.814453-3.397461,3.814453S99.603516,416.178833,99.603516,413.813599z M105.181641,413.813599
		c0-1.75-0.786133-2.754883-2.180664-2.754883s-2.180664,1.004883-2.180664,2.754883
		c0,1.743164,0.786133,2.754883,2.180664,2.754883S105.181641,415.556763,105.181641,413.813599z"/>
</g>
<g opacity="0.7">
	<path fill="#27282C" d="M595.619629,94.944931c1.722656,0,3.041992,1.168945,3.041992,2.768555
		c0,1.134766-0.492188,1.955078-2.269531,3.793945l-2.242188,2.317383v0.109375h4.675781v1.107422h-6.384766v-0.847656
		l3.335938-3.609375c1.257812-1.360352,1.626953-1.873047,1.626953-2.741211c0-1.045898-0.704102-1.825195-1.866211-1.825195
		c-1.182617,0-1.96875,0.772461-1.96875,1.941406h-1.189453C592.379395,96.202744,593.73291,94.944931,595.619629,94.944931z"/>
	<path fill="#27282C" d="M600.780762,104.221298c0-0.492188,0.40332-0.888672,0.888672-0.888672
		c0.492188,0,0.888672,0.396484,0.888672,0.888672c0,0.485352-0.396484,0.888672-0.888672,0.888672
		C601.184082,105.10997,600.780762,104.70665,600.780762,104.221298z"/>
	<path fill="#27282C" d="M606.728027,96.54454h-0.109375l-2.508789,1.818359v-1.298828l2.625-1.886719h1.223633v9.864258h-1.230469
		V96.54454z"/>
	<path fill="#27282C" d="M610.672363,100.276962c0-3.390625,1.462891-5.332031,3.793945-5.332031
		c1.797852,0,2.980469,0.991211,3.233398,2.522461h-1.264648c-0.205078-0.916016-0.929688-1.428711-1.927734-1.428711
		c-1.640625,0-2.597656,1.367188-2.638672,4.046875h0.109375c0.485352-0.957031,1.449219-1.517578,2.625-1.517578
		c1.879883,0,3.240234,1.387695,3.240234,3.301758c0,1.982422-1.435547,3.397461-3.458984,3.397461
		C612.237793,105.267197,610.672363,103.599228,610.672363,100.276962z M616.599121,101.910751
		c0-1.34668-0.90918-2.276367-2.214844-2.276367s-2.242188,0.929688-2.242188,2.235352
		c0,1.319336,0.963867,2.317383,2.228516,2.317383S616.599121,103.202744,616.599121,101.910751z"/>
</g>
<g opacity="0.7">
	<path fill="#27282C" d="M729.266113,109.038681c1.722656,0,3.041992,1.168945,3.041992,2.768555
		c0,1.134766-0.492188,1.955078-2.269531,3.793945l-2.242188,2.317383v0.109375h4.675781v1.107422h-6.384766v-0.847656
		l3.335938-3.609375c1.257812-1.360352,1.626953-1.873047,1.626953-2.741211c0-1.045898-0.704102-1.825195-1.866211-1.825195
		c-1.182617,0-1.96875,0.772461-1.96875,1.941406h-1.189453C726.025879,110.296494,727.379395,109.038681,729.266113,109.038681z"/>
	<path fill="#27282C" d="M734.427246,118.315048c0-0.492188,0.40332-0.888672,0.888672-0.888672
		c0.492188,0,0.888672,0.396484,0.888672,0.888672c0,0.485352-0.396484,0.888672-0.888672,0.888672
		C734.830566,119.20372,734.427246,118.8004,734.427246,118.315048z"/>
	<path fill="#27282C" d="M743.334473,110.467392v-0.095703h-5.277344v-1.100586h6.52832v1.141602l-4.388672,8.722656h-1.291992
		L743.334473,110.467392z"/>
	<path fill="#27282C" d="M746.08252,116.496689c0-1.285156,0.813477-2.283203,2.050781-2.515625v-0.109375
		c-1.004883-0.273438-1.647461-1.12793-1.647461-2.201172c0-1.538086,1.305664-2.631836,3.151367-2.631836
		s3.151367,1.09375,3.151367,2.631836c0,1.080078-0.628906,1.920898-1.647461,2.201172v0.109375
		c1.237305,0.232422,2.050781,1.230469,2.050781,2.515625c0,1.688477-1.462891,2.871094-3.554688,2.871094
		S746.08252,118.185165,746.08252,116.496689z M751.947754,116.407822c0-1.12793-0.943359-1.907227-2.310547-1.907227
		s-2.310547,0.779297-2.310547,1.907227s0.943359,1.907227,2.310547,1.907227S751.947754,117.535751,751.947754,116.407822z
		 M751.578613,111.786728c0-1.018555-0.772461-1.695312-1.941406-1.695312s-1.941406,0.676758-1.941406,1.695312
		c0,1.004883,0.779297,1.674805,1.941406,1.674805S751.578613,112.791611,751.578613,111.786728z"/>
</g>
<g opacity="0.7">
	<path fill="#27282C" d="M143.702637,14.189563V5.432727h-3.178711V4.325305h7.587891v1.107422h-3.178711v8.756836H143.702637z"/>
	<path fill="#27282C" d="M148.836426,6.820422h1.121094v1.09375h0.109375c0.21875-0.717773,1.066406-1.223633,2.043945-1.223633
		c0.191406,0,0.4375,0.013672,0.587891,0.03418V7.9005c-0.095703-0.027344-0.519531-0.068359-0.751953-0.068359
		c-1.121094,0-1.93457,0.751953-1.93457,1.791016v4.566406h-1.175781V6.820422z"/>
	<path fill="#27282C" d="M153.730957,12.12511c0-1.319336,0.970703-2.078125,2.686523-2.180664l2.125977-0.129883V9.144641
		c0-0.90918-0.567383-1.408203-1.667969-1.408203c-0.881836,0-1.49707,0.334961-1.661133,0.916016h-1.189453
		c0.157227-1.182617,1.319336-1.961914,2.891602-1.961914c1.797852,0,2.802734,0.922852,2.802734,2.454102v5.044922h-1.121094
		v-1.086914h-0.109375c-0.478516,0.786133-1.285156,1.216797-2.269531,1.216797
		C154.790527,14.319446,153.730957,13.471789,153.730957,12.12511z M158.543457,11.441516v-0.676758l-1.982422,0.129883
		c-1.121094,0.075195-1.613281,0.464844-1.613281,1.203125c0,0.751953,0.635742,1.189453,1.490234,1.189453
		C157.647949,13.287219,158.543457,12.49425,158.543457,11.441516z"/>
	<path fill="#27282C" d="M166.80127,9.076282c-0.191406-0.731445-0.84082-1.326172-1.900391-1.326172
		c-1.326172,0-2.160156,1.05957-2.160156,2.727539c0,1.702148,0.847656,2.782227,2.160156,2.782227
		c0.991211,0,1.681641-0.458008,1.900391-1.291992h1.189453c-0.211914,1.353516-1.3125,2.351562-3.083008,2.351562
		c-2.064453,0-3.383789-1.49707-3.383789-3.841797c0-2.296875,1.3125-3.787109,3.376953-3.787109
		c1.791016,0,2.884766,1.073242,3.089844,2.385742H166.80127z"/>
	<path fill="#27282C" d="M169.521973,4.578235c0-0.451172,0.369141-0.820312,0.820312-0.820312s0.820312,0.369141,0.820312,0.820312
		s-0.369141,0.820312-0.820312,0.820312S169.521973,5.029407,169.521973,4.578235z M169.754395,6.820422h1.175781v7.369141
		h-1.175781V6.820422z"/>
	<path fill="#27282C" d="M173.172363,6.820422h1.121094v1.162109h0.109375c0.369141-0.813477,1.086914-1.291992,2.214844-1.291992
		c1.654297,0,2.577148,0.977539,2.577148,2.727539v4.771484h-1.175781V9.705188c0-1.326172-0.560547-1.955078-1.736328-1.955078
		s-1.93457,0.786133-1.93457,2.078125v4.361328h-1.175781V6.820422z"/>
	<path fill="#27282C" d="M181.286621,15.003039h1.244141c0.129883,0.601562,0.786133,0.991211,1.845703,0.991211
		c1.319336,0,2.105469-0.649414,2.105469-1.736328v-1.449219h-0.109375c-0.464844,0.813477-1.298828,1.271484-2.310547,1.271484
		c-1.907227,0-3.089844-1.476562-3.089844-3.68457s1.196289-3.705078,3.089844-3.705078
		c1.032227,0,1.941406,0.505859,2.365234,1.298828h0.109375V6.820422h1.121094v7.499023
		c0,1.647461-1.271484,2.700196-3.28125,2.700196C182.599121,17.019642,181.464355,16.219837,181.286621,15.003039z
		 M186.509277,10.395617c0-1.606445-0.827148-2.645508-2.1875-2.645508c-1.367188,0-2.132812,1.039062-2.132812,2.645508
		s0.765625,2.645508,2.132812,2.645508S186.509277,12.002063,186.509277,10.395617z"/>
	<path fill="#27282C" d="M194.527832,11.885852c0.027344,0.827148,0.65625,1.401367,1.585938,1.401367
		c1.052734,0,1.647461-0.642578,1.647461-1.852539V4.325305h1.230469v7.116211c0,1.879883-1.086914,2.980469-2.871094,2.980469
		c-1.654297,0-2.816406-1.025391-2.816406-2.536133H194.527832z"/>
	<path fill="#27282C" d="M201.507324,14.189563V4.325305h1.230469v9.864258H201.507324z"/>
	<path fill="#27282C" d="M207.816895,14.189563V5.432727h-3.178711V4.325305h7.587891v1.107422h-3.178711v8.756836H207.816895z"/>
</g>
<g opacity="0.7">
	<path fill="#27282C" d="M141.13916,37.713001v-9.864258h5.988281v1.107422h-4.757812v3.390625h4.368164v1.09375h-4.368164v4.272461
		H141.13916z"/>
	<path fill="#27282C" d="M154.961426,37.713001h-1.121094v-1.155273h-0.109375
		c-0.369141,0.820312-1.155273,1.285156-2.283203,1.285156c-1.654297,0-2.515625-0.984375-2.515625-2.727539v-4.771484h1.175781
		v4.484375c0,1.326172,0.492188,1.941406,1.667969,1.941406c1.298828,0,2.009766-0.772461,2.009766-2.064453v-4.361328h1.175781
		V37.713001z"/>
	<path fill="#27282C" d="M157.17627,30.343861h1.121094v1.162109h0.109375c0.369141-0.813477,1.086914-1.291992,2.214844-1.291992
		c1.654297,0,2.577148,0.977539,2.577148,2.727539v4.771484h-1.175781v-4.484375c0-1.326172-0.560547-1.955078-1.736328-1.955078
		s-1.93457,0.786133-1.93457,2.078125v4.361328h-1.175781V30.343861z"/>
	<path fill="#27282C" d="M170.253418,32.59972c-0.191406-0.731445-0.84082-1.326172-1.900391-1.326172
		c-1.326172,0-2.160156,1.05957-2.160156,2.727539c0,1.702148,0.847656,2.782227,2.160156,2.782227
		c0.991211,0,1.681641-0.458008,1.900391-1.291992h1.189453c-0.211914,1.353516-1.3125,2.351562-3.083008,2.351562
		c-2.064453,0-3.383789-1.49707-3.383789-3.841797c0-2.296875,1.3125-3.787109,3.376953-3.787109
		c1.791016,0,2.884766,1.073242,3.089844,2.385742H170.253418z"/>
	<path fill="#27282C" d="M174.983887,28.436634v1.907227h1.640625v0.984375h-1.640625v4.169922
		c0,0.868164,0.328125,1.237305,1.09375,1.237305c0.211914,0,0.328125-0.006836,0.546875-0.027344v0.991211
		c-0.232422,0.041016-0.458008,0.068359-0.69043,0.068359c-1.517578,0-2.125977-0.560547-2.125977-1.96875v-4.470703h-1.189453
		v-0.984375h1.189453v-1.907227H174.983887z"/>
	<path fill="#27282C" d="M178.196777,28.101673c0-0.451172,0.369141-0.820312,0.820312-0.820312
		s0.820312,0.369141,0.820312,0.820312s-0.369141,0.820312-0.820312,0.820312S178.196777,28.552845,178.196777,28.101673z
		 M178.429199,30.343861h1.175781v7.369141h-1.175781V30.343861z"/>
	<path fill="#27282C" d="M181.478027,34.028431c0-2.37207,1.298828-3.814453,3.397461-3.814453s3.397461,1.442383,3.397461,3.814453
		c0,2.365234-1.298828,3.814453-3.397461,3.814453S181.478027,36.393665,181.478027,34.028431z M187.056152,34.028431
		c0-1.75-0.786133-2.754883-2.180664-2.754883s-2.180664,1.004883-2.180664,2.754883
		c0,1.743164,0.786133,2.754883,2.180664,2.754883S187.056152,35.771595,187.056152,34.028431z"/>
	<path fill="#27282C" d="M190.118652,30.343861h1.121094v1.162109h0.109375c0.369141-0.813477,1.086914-1.291992,2.214844-1.291992
		c1.654297,0,2.577148,0.977539,2.577148,2.727539v4.771484h-1.175781v-4.484375c0-1.326172-0.560547-1.955078-1.736328-1.955078
		s-1.93457,0.786133-1.93457,2.078125v4.361328h-1.175781V30.343861z"/>
	<path fill="#27282C" d="M202.942871,35.40929c0.027344,0.827148,0.65625,1.401367,1.585938,1.401367
		c1.052734,0,1.647461-0.642578,1.647461-1.852539v-7.109375h1.230469v7.116211c0,1.879883-1.086914,2.980469-2.871094,2.980469
		c-1.654297,0-2.816406-1.025391-2.816406-2.536133H202.942871z"/>
	<path fill="#27282C" d="M209.922363,37.713001v-9.864258h1.230469v9.864258H209.922363z"/>
	<path fill="#27282C" d="M216.231934,37.713001v-8.756836h-3.178711v-1.107422h7.587891v1.107422h-3.178711v8.756836H216.231934z"/>
</g>
<g opacity="0.7">
	<path fill="#27282C" d="M452.648438,136.001572h-0.109375l-2.508789,1.818359v-1.298828l2.625-1.886719h1.223633v9.864258
		h-1.230469V136.001572z"/>
	<path fill="#27282C" d="M456.56543,143.678329c0-0.492188,0.40332-0.888672,0.888672-0.888672
		c0.492188,0,0.888672,0.396484,0.888672,0.888672c0,0.485352-0.396484,0.888672-0.888672,0.888672
		C456.96875,144.567001,456.56543,144.163681,456.56543,143.678329z"/>
	<path fill="#27282C" d="M460.154297,141.89415h1.209961c0.109375,1.052734,0.957031,1.756836,2.119141,1.756836
		c1.291992,0,2.146484-0.929688,2.146484-2.310547c0-1.333008-0.854492-2.228516-2.098633-2.228516
		c-0.936523,0-1.674805,0.430664-2.064453,1.162109h-1.155273l0.567383-5.639648h5.475586v1.100586h-4.511719l-0.307617,3.212891
		h0.109375c0.478516-0.594727,1.209961-0.895508,2.194336-0.895508c1.654297,0,3.021484,1.298828,3.021484,3.253906
		c0,2.030273-1.374023,3.424805-3.390625,3.424805C461.603516,144.731064,460.263672,143.582626,460.154297,141.89415z"/>
	<path fill="#27282C" d="M468.665039,139.563095c0-3.253906,1.291992-5.161133,3.5-5.161133
		c2.194336,0,3.486328,1.914062,3.486328,5.181641c0,3.274414-1.271484,5.147461-3.486328,5.147461
		C469.943359,144.731064,468.665039,142.844345,468.665039,139.563095z M474.414062,139.563095
		c0-2.618164-0.806641-4.081055-2.249023-4.081055s-2.262695,1.476562-2.262695,4.081055
		c0,2.638672,0.806641,4.094727,2.262695,4.094727S474.414062,142.208603,474.414062,139.563095z"/>
</g>
<g opacity="0.7">
	<path fill="#27282C" d="M511.396484,149.001572h-0.109375l-2.508789,1.818359v-1.298828l2.625-1.886719h1.223633v9.864258
		h-1.230469V149.001572z"/>
	<path fill="#27282C" d="M515.313477,156.678329c0-0.492188,0.40332-0.888672,0.888672-0.888672
		c0.492188,0,0.888672,0.396484,0.888672,0.888672c0,0.485352-0.396484,0.888672-0.888672,0.888672
		C515.716797,157.567001,515.313477,157.163681,515.313477,156.678329z"/>
	<path fill="#27282C" d="M524.220703,148.830673v-0.095703h-5.277344v-1.100586h6.52832v1.141602l-4.388672,8.722656h-1.291992
		L524.220703,148.830673z"/>
	<path fill="#27282C" d="M532.47168,148.830673v-0.095703h-5.277344v-1.100586h6.52832v1.141602l-4.388672,8.722656h-1.291992
		L532.47168,148.830673z"/>
</g>
<g opacity="0.7">
	<path fill="#27282C" d="M571.87207,172.765244c1.722656,0,3.041992,1.168945,3.041992,2.768555
		c0,1.134766-0.492188,1.955078-2.269531,3.793945l-2.242188,2.317383v0.109375h4.675781v1.107422h-6.384766v-0.847656
		l3.335938-3.609375c1.257812-1.360352,1.626953-1.873047,1.626953-2.741211c0-1.045898-0.704102-1.825195-1.866211-1.825195
		c-1.182617,0-1.96875,0.772461-1.96875,1.941406h-1.189453C568.631836,174.023056,569.985352,172.765244,571.87207,172.765244z"/>
	<path fill="#27282C" d="M577.033203,182.041611c0-0.492188,0.40332-0.888672,0.888672-0.888672
		c0.492188,0,0.888672,0.396484,0.888672,0.888672c0,0.485352-0.396484,0.888672-0.888672,0.888672
		C577.436523,182.930283,577.033203,182.526962,577.033203,182.041611z"/>
	<path fill="#27282C" d="M580.369141,177.926376c0-3.253906,1.291992-5.161133,3.5-5.161133
		c2.194336,0,3.486328,1.914062,3.486328,5.181641c0,3.274414-1.271484,5.147461-3.486328,5.147461
		C581.647461,183.094345,580.369141,181.207626,580.369141,177.926376z M586.118164,177.926376
		c0-2.618164-0.806641-4.081055-2.249023-4.081055s-2.262695,1.476562-2.262695,4.081055
		c0,2.638672,0.806641,4.094727,2.262695,4.094727S586.118164,180.571884,586.118164,177.926376z"/>
	<path fill="#27282C" d="M589.337891,180.257431h1.209961c0.109375,1.052734,0.957031,1.756836,2.119141,1.756836
		c1.291992,0,2.146484-0.929688,2.146484-2.310547c0-1.333008-0.854492-2.228516-2.098633-2.228516
		c-0.936523,0-1.674805,0.430664-2.064453,1.162109h-1.155273l0.567383-5.639648h5.475586v1.100586h-4.511719l-0.307617,3.212891
		h0.109375c0.478516-0.594727,1.209961-0.895508,2.194336-0.895508c1.654297,0,3.021484,1.298828,3.021484,3.253906
		c0,2.030273-1.374023,3.424805-3.390625,3.424805C590.787109,183.094345,589.447266,181.945908,589.337891,180.257431z"/>
</g>
<g opacity="0.7">
	<path fill="#27282C" d="M754.675293,185.748154c1.722656,0,3.041992,1.168945,3.041992,2.768555
		c0,1.134766-0.492188,1.955078-2.269531,3.793945l-2.242188,2.317383v0.109375h4.675781v1.107422h-6.384766v-0.847656
		l3.335938-3.609375c1.257812-1.360352,1.626953-1.873047,1.626953-2.741211c0-1.045898-0.704102-1.825195-1.866211-1.825195
		c-1.182617,0-1.96875,0.772461-1.96875,1.941406h-1.189453C751.435059,187.005966,752.788574,185.748154,754.675293,185.748154z"/>
	<path fill="#27282C" d="M759.836426,195.024521c0-0.492188,0.40332-0.888672,0.888672-0.888672
		c0.492188,0,0.888672,0.396484,0.888672,0.888672c0,0.485352-0.396484,0.888672-0.888672,0.888672
		C760.239746,195.913193,759.836426,195.509872,759.836426,195.024521z"/>
	<path fill="#27282C" d="M763.274902,193.547958h1.264648c0.259766,0.888672,1.011719,1.428711,1.982422,1.428711
		c1.606445,0,2.515625-1.421875,2.583984-4.046875h-0.109375c-0.485352,0.957031-1.449219,1.517578-2.625,1.517578
		c-1.879883,0-3.240234-1.387695-3.240234-3.301758c0-1.982422,1.435547-3.397461,3.458984-3.397461
		c2.125977,0,3.711914,1.633789,3.711914,4.990234c0,3.390625-1.380859,5.332031-3.793945,5.332031
		C764.833496,196.070419,763.58252,195.099716,763.274902,193.547958z M768.83252,189.145615
		c0-1.319336-0.963867-2.317383-2.228516-2.317383s-2.228516,0.984375-2.228516,2.276367
		c0,1.34668,0.90918,2.276367,2.214844,2.276367S768.83252,190.451279,768.83252,189.145615z"/>
	<path fill="#27282C" d="M772.093262,190.909286c0-3.253906,1.291992-5.161133,3.5-5.161133
		c2.194336,0,3.486328,1.914062,3.486328,5.181641c0,3.274414-1.271484,5.147461-3.486328,5.147461
		C773.371582,196.077255,772.093262,194.190536,772.093262,190.909286z M777.842285,190.909286
		c0-2.618164-0.806641-4.081055-2.249023-4.081055s-2.262695,1.476562-2.262695,4.081055
		c0,2.638672,0.806641,4.094727,2.262695,4.094727S777.842285,193.554794,777.842285,190.909286z"/>
</g>
<g opacity="0.7">
	<path fill="#27282C" d="M587.710449,210.957138c1.722656,0,3.041992,1.168945,3.041992,2.768555
		c0,1.134766-0.492188,1.955078-2.269531,3.793945l-2.242188,2.317383v0.109375h4.675781v1.107422h-6.384766v-0.847656
		l3.335938-3.609375c1.257812-1.360352,1.626953-1.873047,1.626953-2.741211c0-1.045898-0.704102-1.825195-1.866211-1.825195
		c-1.182617,0-1.96875,0.772461-1.96875,1.941406h-1.189453C584.470215,212.214951,585.82373,210.957138,587.710449,210.957138z"/>
	<path fill="#27282C" d="M592.871582,220.233505c0-0.492188,0.40332-0.888672,0.888672-0.888672
		c0.492188,0,0.888672,0.396484,0.888672,0.888672c0,0.485352-0.396484,0.888672-0.888672,0.888672
		C593.274902,221.122177,592.871582,220.718857,592.871582,220.233505z"/>
	<path fill="#27282C" d="M598.818848,212.556747h-0.109375l-2.508789,1.818359v-1.298828l2.625-1.886719h1.223633v9.864258
		h-1.230469V212.556747z"/>
	<path fill="#27282C" d="M606.16748,210.957138c1.722656,0,3.041992,1.168945,3.041992,2.768555
		c0,1.134766-0.492188,1.955078-2.269531,3.793945l-2.242188,2.317383v0.109375h4.675781v1.107422h-6.384766v-0.847656
		l3.335938-3.609375c1.257812-1.360352,1.626953-1.873047,1.626953-2.741211c0-1.045898-0.704102-1.825195-1.866211-1.825195
		c-1.182617,0-1.96875,0.772461-1.96875,1.941406h-1.189453C602.927246,212.214951,604.280762,210.957138,606.16748,210.957138z"/>
</g>
<g opacity="0.7">
	<path fill="#27282C" d="M763.049316,224.128036c1.722656,0,3.041992,1.168945,3.041992,2.768555
		c0,1.134766-0.492188,1.955078-2.269531,3.793945l-2.242188,2.317383v0.109375h4.675781v1.107422h-6.384766v-0.847656
		l3.335938-3.609375c1.257812-1.360352,1.626953-1.873047,1.626953-2.741211c0-1.045898-0.704102-1.825195-1.866211-1.825195
		c-1.182617,0-1.96875,0.772461-1.96875,1.941406h-1.189453C759.809082,225.385849,761.162598,224.128036,763.049316,224.128036z"/>
	<path fill="#27282C" d="M768.210449,233.404404c0-0.492188,0.40332-0.888672,0.888672-0.888672
		c0.492188,0,0.888672,0.396484,0.888672,0.888672c0,0.485352-0.396484,0.888672-0.888672,0.888672
		C768.61377,234.293076,768.210449,233.889755,768.210449,233.404404z"/>
	<path fill="#27282C" d="M771.648926,231.927841h1.264648c0.259766,0.888672,1.011719,1.428711,1.982422,1.428711
		c1.606445,0,2.515625-1.421875,2.583984-4.046875h-0.109375c-0.485352,0.957031-1.449219,1.517578-2.625,1.517578
		c-1.879883,0-3.240234-1.387695-3.240234-3.301758c0-1.982422,1.435547-3.397461,3.458984-3.397461
		c2.125977,0,3.711914,1.633789,3.711914,4.990234c0,3.390625-1.380859,5.332031-3.793945,5.332031
		C773.20752,234.450302,771.956543,233.479599,771.648926,231.927841z M777.206543,227.525497
		c0-1.319336-0.963867-2.317383-2.228516-2.317383s-2.228516,0.984375-2.228516,2.276367
		c0,1.34668,0.90918,2.276367,2.214844,2.276367S777.206543,228.831161,777.206543,227.525497z"/>
	<path fill="#27282C" d="M785.156738,232.180771h-4.805664v-1.121094c1.333008-2.235352,2.84375-4.641602,4.224609-6.699219h1.78418
		v6.719727h1.401367v1.100586h-1.401367v2.043945h-1.203125V232.180771z M781.608887,231.087021h3.554688v-5.584961h-0.082031
		c-1.107422,1.654297-2.399414,3.691406-3.472656,5.50293V231.087021z"/>
</g>
<g opacity="0.7">
	<path fill="#27282C" d="M429.561035,251.090927h-0.109375l-2.508789,1.818359v-1.298828l2.625-1.886719h1.223633v9.864273
		h-1.230469V251.090927z"/>
	<path fill="#27282C" d="M433.478027,258.7677c0-0.492188,0.40332-0.888672,0.888672-0.888672
		c0.492188,0,0.888672,0.396484,0.888672,0.888672c0,0.485352-0.396484,0.888672-0.888672,0.888672
		C433.881348,259.656372,433.478027,259.253052,433.478027,258.7677z"/>
	<path fill="#27282C" d="M439.206543,253.989365h1.168945c1.134766,0,1.941406-0.724609,1.941406-1.75
		c0-0.922852-0.704102-1.674805-1.893555-1.674805s-1.961914,0.608398-2.064453,1.71582h-1.196289
		c0.123047-1.606445,1.34668-2.789062,3.342773-2.789062c1.948242,0,3.069336,1.230469,3.0625,2.611328
		c-0.006836,1.189453-0.745117,1.975586-1.756836,2.269531v0.109375c1.27832,0.205078,2.125977,1.073242,2.125977,2.447281
		c0,1.654297-1.510742,2.891602-3.472656,2.891602c-2.00293,0-3.383789-1.100586-3.472656-2.775391h1.189453
		c0.109375,1.039062,0.998047,1.702148,2.269531,1.702148c1.298828,0,2.22168-0.745117,2.22168-1.852539
		c0-1.141617-0.854492-1.852554-2.242188-1.852554h-1.223633V253.989365z"/>
	<path fill="#27282C" d="M445.830566,257.291138h1.264648c0.259766,0.888672,1.011719,1.428711,1.982422,1.428711
		c1.606445,0,2.515625-1.421875,2.583984-4.04689h-0.109375c-0.485352,0.957031-1.449219,1.517593-2.625,1.517593
		c-1.879883,0-3.240234-1.387711-3.240234-3.301773c0-1.982422,1.435547-3.397461,3.458984-3.397461
		c2.125977,0,3.711914,1.633789,3.711914,4.990234c0,3.39064-1.380859,5.332047-3.793945,5.332047
		C447.38916,259.813599,446.138184,258.842896,445.830566,257.291138z M451.388184,252.888779
		c0-1.319336-0.963867-2.317383-2.228516-2.317383s-2.228516,0.984375-2.228516,2.276367
		c0,1.34668,0.90918,2.276367,2.214844,2.276367S451.388184,254.194443,451.388184,252.888779z"/>
</g>
<g opacity="0.7">
	<path fill="#27282C" d="M583.583008,263.491333c1.722656,0,3.041992,1.168945,3.041992,2.768555
		c0,1.134766-0.492188,1.955078-2.269531,3.793945l-2.242188,2.317383v0.109375h4.675781v1.107422h-6.384766v-0.847656
		l3.335938-3.609375c1.257812-1.360352,1.626953-1.873047,1.626953-2.741211c0-1.045898-0.704102-1.825195-1.866211-1.825195
		c-1.182617,0-1.96875,0.772461-1.96875,1.941406h-1.189453C580.342773,264.749146,581.696289,263.491333,583.583008,263.491333z"/>
	<path fill="#27282C" d="M588.744141,272.7677c0-0.492188,0.40332-0.888672,0.888672-0.888672
		c0.492188,0,0.888672,0.396484,0.888672,0.888672c0,0.485352-0.396484,0.888672-0.888672,0.888672
		C589.147461,273.656372,588.744141,273.253052,588.744141,272.7677z"/>
	<path fill="#27282C" d="M594.691406,265.090942h-0.109375l-2.508789,1.818359v-1.298828l2.625-1.886719h1.223633v9.864258
		h-1.230469V265.090942z"/>
	<path fill="#27282C" d="M601.219727,265.090942h-0.109375l-2.508789,1.818359v-1.298828l2.625-1.886719h1.223633v9.864258
		h-1.230469V265.090942z"/>
</g>
<g opacity="0.7">
	<path fill="#27282C" d="M412.999023,289.453735h-0.109375l-2.508789,1.818359v-1.298828l2.625-1.886719h1.223633v9.864258
		h-1.230469V289.453735z"/>
	<path fill="#27282C" d="M416.916016,297.130493c0-0.492188,0.40332-0.888672,0.888672-0.888672
		c0.492188,0,0.888672,0.396484,0.888672,0.888672c0,0.485352-0.396484,0.888672-0.888672,0.888672
		C417.319336,298.019165,416.916016,297.615845,416.916016,297.130493z"/>
	<path fill="#27282C" d="M422.644531,292.352173h1.168945c1.134766,0,1.941406-0.724609,1.941406-1.75
		c0-0.922852-0.704102-1.674805-1.893555-1.674805s-1.961914,0.608398-2.064453,1.71582h-1.196289
		c0.123047-1.606445,1.34668-2.789062,3.342773-2.789062c1.948242,0,3.069336,1.230469,3.0625,2.611328
		c-0.006836,1.189453-0.745117,1.975586-1.756836,2.269531v0.109375c1.27832,0.205078,2.125977,1.073242,2.125977,2.447266
		c0,1.654297-1.510742,2.891602-3.472656,2.891602c-2.00293,0-3.383789-1.100586-3.472656-2.775391h1.189453
		c0.109375,1.039062,0.998047,1.702148,2.269531,1.702148c1.298828,0,2.22168-0.745117,2.22168-1.852539
		c0-1.141602-0.854492-1.852539-2.242188-1.852539h-1.223633V292.352173z"/>
	<path fill="#27282C" d="M432.529297,287.854126c1.722656,0,3.041992,1.168945,3.041992,2.768555
		c0,1.134766-0.492188,1.955078-2.269531,3.793945l-2.242188,2.317383v0.109375h4.675781v1.107422h-6.384766v-0.847656
		l3.335938-3.609375c1.257812-1.360352,1.626953-1.873047,1.626953-2.741211c0-1.045898-0.704102-1.825195-1.866211-1.825195
		c-1.182617,0-1.96875,0.772461-1.96875,1.941406h-1.189453C429.289062,289.111938,430.642578,287.854126,432.529297,287.854126z"/>
</g>
<g opacity="0.7">
	<path fill="#27282C" d="M457.316895,303.454224h-0.109375l-2.508789,1.818359v-1.298828l2.625-1.886719h1.223633v9.864258
		h-1.230469V303.454224z"/>
	<path fill="#27282C" d="M461.233887,311.130981c0-0.492188,0.40332-0.888672,0.888672-0.888672
		c0.492188,0,0.888672,0.396484,0.888672,0.888672c0,0.485352-0.396484,0.888672-0.888672,0.888672
		C461.637207,312.019653,461.233887,311.616333,461.233887,311.130981z"/>
	<path fill="#27282C" d="M464.822754,309.346802h1.209961c0.109375,1.052734,0.957031,1.756836,2.119141,1.756836
		c1.291992,0,2.146484-0.929688,2.146484-2.310547c0-1.333008-0.854492-2.228516-2.098633-2.228516
		c-0.936523,0-1.674805,0.430664-2.064453,1.162109h-1.155273l0.567383-5.639648h5.475586v1.100586h-4.511719l-0.307617,3.212891
		h0.109375c0.478516-0.594727,1.209961-0.895508,2.194336-0.895508c1.654297,0,3.021484,1.298828,3.021484,3.253906
		c0,2.030273-1.374023,3.424805-3.390625,3.424805C466.271973,312.183716,464.932129,311.035278,464.822754,309.346802z"/>
	<path fill="#27282C" d="M476.696777,301.854614c1.722656,0,3.041992,1.168945,3.041992,2.768555
		c0,1.134766-0.492188,1.955078-2.269531,3.793945l-2.242188,2.317383v0.109375h4.675781v1.107422h-6.384766v-0.847656
		l3.335938-3.609375c1.257812-1.360352,1.626953-1.873047,1.626953-2.741211c0-1.045898-0.704102-1.825195-1.866211-1.825195
		c-1.182617,0-1.96875,0.772461-1.96875,1.941406h-1.189453C473.456543,303.112427,474.810059,301.854614,476.696777,301.854614z"/>
</g>
<g opacity="0.7">
	<path fill="#27282C" d="M344.208496,331.463989c0-3.253906,1.291992-5.161133,3.5-5.161133
		c2.194336,0,3.486328,1.914062,3.486328,5.181641c0,3.274414-1.271484,5.147461-3.486328,5.147461
		C345.486816,336.631958,344.208496,334.745239,344.208496,331.463989z M349.95752,331.463989
		c0-2.618164-0.806641-4.081055-2.249023-4.081055s-2.262695,1.476562-2.262695,4.081055
		c0,2.638672,0.806641,4.094727,2.262695,4.094727S349.95752,334.109497,349.95752,331.463989z"/>
	<path fill="#27282C" d="M352.753418,335.579224c0-0.492188,0.40332-0.888672,0.888672-0.888672
		c0.492188,0,0.888672,0.396484,0.888672,0.888672c0,0.485352-0.396484,0.888672-0.888672,0.888672
		C353.156738,336.467896,352.753418,336.064575,352.753418,335.579224z"/>
	<path fill="#27282C" d="M356.191895,334.102661h1.264648c0.259766,0.888672,1.011719,1.428711,1.982422,1.428711
		c1.606445,0,2.515625-1.421875,2.583984-4.046875h-0.109375c-0.485352,0.957031-1.449219,1.517578-2.625,1.517578
		c-1.879883,0-3.240234-1.387695-3.240234-3.301758c0-1.982422,1.435547-3.397461,3.458984-3.397461
		c2.125977,0,3.711914,1.633789,3.711914,4.990234c0,3.390625-1.380859,5.332031-3.793945,5.332031
		C357.750488,336.625122,356.499512,335.654419,356.191895,334.102661z M361.749512,329.700317
		c0-1.319336-0.963867-2.317383-2.228516-2.317383s-2.228516,0.984375-2.228516,2.276367
		c0,1.34668,0.90918,2.276367,2.214844,2.276367S361.749512,331.005981,361.749512,329.700317z"/>
	<path fill="#27282C" d="M365.112793,334.102661h1.264648c0.259766,0.888672,1.011719,1.428711,1.982422,1.428711
		c1.606445,0,2.515625-1.421875,2.583984-4.046875h-0.109375c-0.485352,0.957031-1.449219,1.517578-2.625,1.517578
		c-1.879883,0-3.240234-1.387695-3.240234-3.301758c0-1.982422,1.435547-3.397461,3.458984-3.397461
		c2.125977,0,3.711914,1.633789,3.711914,4.990234c0,3.390625-1.380859,5.332031-3.793945,5.332031
		C366.671387,336.625122,365.42041,335.654419,365.112793,334.102661z M370.67041,329.700317
		c0-1.319336-0.963867-2.317383-2.228516-2.317383s-2.228516,0.984375-2.228516,2.276367
		c0,1.34668,0.90918,2.276367,2.214844,2.276367S370.67041,331.005981,370.67041,329.700317z"/>
</g>
<g opacity="0.7">
	<path fill="#27282C" d="M356.414062,341.844849h-0.109375l-2.508789,1.818359v-1.298828l2.625-1.886719h1.223633v9.864258
		h-1.230469V341.844849z"/>
	<path fill="#27282C" d="M360.331055,349.521606c0-0.492188,0.40332-0.888672,0.888672-0.888672
		c0.492188,0,0.888672,0.396484,0.888672,0.888672c0,0.485352-0.396484,0.888672-0.888672,0.888672
		C360.734375,350.410278,360.331055,350.006958,360.331055,349.521606z"/>
	<path fill="#27282C" d="M363.666992,345.406372c0-3.253906,1.291992-5.161133,3.5-5.161133
		c2.194336,0,3.486328,1.914062,3.486328,5.181641c0,3.274414-1.271484,5.147461-3.486328,5.147461
		C364.945312,350.574341,363.666992,348.687622,363.666992,345.406372z M369.416016,345.406372
		c0-2.618164-0.806641-4.081055-2.249023-4.081055s-2.262695,1.476562-2.262695,4.081055
		c0,2.638672,0.806641,4.094727,2.262695,4.094727S369.416016,348.05188,369.416016,345.406372z"/>
	<path fill="#27282C" d="M372.635742,347.737427h1.209961c0.109375,1.052734,0.957031,1.756836,2.119141,1.756836
		c1.291992,0,2.146484-0.929688,2.146484-2.310547c0-1.333008-0.854492-2.228516-2.098633-2.228516
		c-0.936523,0-1.674805,0.430664-2.064453,1.162109h-1.155273l0.567383-5.639648h5.475586v1.100586h-4.511719l-0.307617,3.212891
		h0.109375c0.478516-0.594727,1.209961-0.895508,2.194336-0.895508c1.654297,0,3.021484,1.298828,3.021484,3.253906
		c0,2.030273-1.374023,3.424805-3.390625,3.424805C374.084961,350.574341,372.745117,349.425903,372.635742,347.737427z"/>
</g>
<g opacity="0.7">
	<path fill="#27282C" d="M346.751465,366.17981h-0.109375l-2.508789,1.818359v-1.298828l2.625-1.886719h1.223633v9.864258h-1.230469
		V366.17981z"/>
	<path fill="#27282C" d="M350.668457,373.856567c0-0.492188,0.40332-0.888672,0.888672-0.888672
		c0.492188,0,0.888672,0.396484,0.888672,0.888672c0,0.485352-0.396484,0.888672-0.888672,0.888672
		C351.071777,374.745239,350.668457,374.341919,350.668457,373.856567z"/>
	<path fill="#27282C" d="M354.004395,369.741333c0-3.253906,1.291992-5.161133,3.5-5.161133
		c2.194336,0,3.486328,1.914062,3.486328,5.181641c0,3.274414-1.271484,5.147461-3.486328,5.147461
		C355.282715,374.909302,354.004395,373.022583,354.004395,369.741333z M359.753418,369.741333
		c0-2.618164-0.806641-4.081055-2.249023-4.081055s-2.262695,1.476562-2.262695,4.081055
		c0,2.638672,0.806641,4.094727,2.262695,4.094727S359.753418,372.386841,359.753418,369.741333z"/>
	<path fill="#27282C" d="M362.822754,369.741333c0-3.253906,1.291992-5.161133,3.5-5.161133
		c2.194336,0,3.486328,1.914062,3.486328,5.181641c0,3.274414-1.271484,5.147461-3.486328,5.147461
		C364.101074,374.909302,362.822754,373.022583,362.822754,369.741333z M368.571777,369.741333
		c0-2.618164-0.806641-4.081055-2.249023-4.081055s-2.262695,1.476562-2.262695,4.081055
		c0,2.638672,0.806641,4.094727,2.262695,4.094727S368.571777,372.386841,368.571777,369.741333z"/>
</g>
<g opacity="0.7">
	<path fill="#27282C" d="M346.666992,419.543091h-0.109375l-2.508789,1.818359v-1.298828l2.625-1.886719h1.223633v9.864258
		h-1.230469V419.543091z"/>
	<path fill="#27282C" d="M350.583984,427.219849c0-0.492188,0.40332-0.888672,0.888672-0.888672
		c0.492188,0,0.888672,0.396484,0.888672,0.888672c0,0.485352-0.396484,0.888672-0.888672,0.888672
		C350.987305,428.108521,350.583984,427.7052,350.583984,427.219849z"/>
	<path fill="#27282C" d="M353.919922,423.104614c0-3.253906,1.291992-5.161133,3.5-5.161133
		c2.194336,0,3.486328,1.914062,3.486328,5.181641c0,3.274414-1.271484,5.147461-3.486328,5.147461
		C355.198242,428.272583,353.919922,426.385864,353.919922,423.104614z M359.668945,423.104614
		c0-2.618164-0.806641-4.081055-2.249023-4.081055s-2.262695,1.476562-2.262695,4.081055
		c0,2.638672,0.806641,4.094727,2.262695,4.094727S359.668945,425.750122,359.668945,423.104614z"/>
	<path fill="#27282C" d="M362.738281,423.104614c0-3.253906,1.291992-5.161133,3.5-5.161133
		c2.194336,0,3.486328,1.914062,3.486328,5.181641c0,3.274414-1.271484,5.147461-3.486328,5.147461
		C364.016602,428.272583,362.738281,426.385864,362.738281,423.104614z M368.487305,423.104614
		c0-2.618164-0.806641-4.081055-2.249023-4.081055s-2.262695,1.476562-2.262695,4.081055
		c0,2.638672,0.806641,4.094727,2.262695,4.094727S368.487305,425.750122,368.487305,423.104614z"/>
</g>
<g opacity="0.7">
	<path fill="#27282C" d="M382.800293,380.071411h-0.109375l-2.508789,1.818359v-1.298828l2.625-1.886719h1.223633v9.864258
		h-1.230469V380.071411z"/>
	<path fill="#27282C" d="M386.717285,387.748169c0-0.492188,0.40332-0.888672,0.888672-0.888672
		c0.492188,0,0.888672,0.396484,0.888672,0.888672c0,0.485352-0.396484,0.888672-0.888672,0.888672
		C387.120605,388.636841,386.717285,388.233521,386.717285,387.748169z"/>
	<path fill="#27282C" d="M392.664551,380.071411h-0.109375l-2.508789,1.818359v-1.298828l2.625-1.886719h1.223633v9.864258
		h-1.230469V380.071411z"/>
	<path fill="#27282C" d="M401.674316,379.900513v-0.095703h-5.277344v-1.100586h6.52832v1.141602l-4.388672,8.722656h-1.291992
		L401.674316,379.900513z"/>
</g>
<g opacity="0.7">
	<path fill="#27282C" d="M323.916016,408.735474c0-3.253906,1.291992-5.161133,3.5-5.161133
		c2.194336,0,3.486328,1.914062,3.486328,5.181641c0,3.274414-1.271484,5.147461-3.486328,5.147461
		C325.194336,413.903442,323.916016,412.016724,323.916016,408.735474z M329.665039,408.735474
		c0-2.618164-0.806641-4.081055-2.249023-4.081055s-2.262695,1.476562-2.262695,4.081055
		c0,2.638672,0.806641,4.094727,2.262695,4.094727S329.665039,411.380981,329.665039,408.735474z"/>
	<path fill="#27282C" d="M332.460938,412.850708c0-0.492188,0.40332-0.888672,0.888672-0.888672
		c0.492188,0,0.888672,0.396484,0.888672,0.888672c0,0.485352-0.396484,0.888672-0.888672,0.888672
		C332.864258,413.73938,332.460938,413.33606,332.460938,412.850708z"/>
	<path fill="#27282C" d="M335.899414,411.374146h1.264648c0.259766,0.888672,1.011719,1.428711,1.982422,1.428711
		c1.606445,0,2.515625-1.421875,2.583984-4.046875h-0.109375c-0.485352,0.957031-1.449219,1.517578-2.625,1.517578
		c-1.879883,0-3.240234-1.387695-3.240234-3.301758c0-1.982422,1.435547-3.397461,3.458984-3.397461
		c2.125977,0,3.711914,1.633789,3.711914,4.990234c0,3.390625-1.380859,5.332031-3.793945,5.332031
		C337.458008,413.896606,336.207031,412.925903,335.899414,411.374146z M341.457031,406.971802
		c0-1.319336-0.963867-2.317383-2.228516-2.317383S337,405.638794,337,406.930786c0,1.34668,0.90918,2.276367,2.214844,2.276367
		S341.457031,408.277466,341.457031,406.971802z"/>
	<path fill="#27282C" d="M347.260742,405.17395h-0.109375l-2.508789,1.818359v-1.298828l2.625-1.886719h1.223633v9.864258h-1.230469
		V405.17395z"/>
</g>
<g>
	<path fill="#27282C" d="M266.435059,53.629505c2.320312,0,3.90625,1.554688,3.90625,3.898438
		c0,2.320312-1.648438,3.875-4.023438,3.875h-2.226562v3.499996h-2.359375V53.629505H266.435059z M264.091309,59.48888h1.710938
		c1.351562,0,2.140625-0.6875,2.140625-1.953125c0-1.28125-0.773438-1.96875-2.132812-1.96875h-1.71875V59.48888z"/>
	<path fill="#27282C" d="M279.950684,64.902939v-4.710934h-5.078125v4.710934h-2.359375V53.629505h2.359375v4.546875h5.078125
		v-4.546875h2.359375v11.273434H279.950684z"/>
	<path fill="#27282C" d="M289.747559,53.629505c2.320312,0,3.90625,1.554688,3.90625,3.898438
		c0,2.320312-1.648438,3.875-4.023438,3.875h-2.226562v3.499996h-2.359375V53.629505H289.747559z M287.403809,59.48888h1.710938
		c1.351562,0,2.140625-0.6875,2.140625-1.953125c0-1.28125-0.773438-1.96875-2.132812-1.96875h-1.71875V59.48888z"/>
	<path fill="#27282C" d="M299.583496,61.89513c0-1.414062,0.976562-2.546875,2.484375-2.882812v-0.140625
		c-1.226562-0.28125-2.03125-1.257812-2.03125-2.453125c0-1.796875,1.703125-3.078125,4.101562-3.078125
		c2.390625,0,4.09375,1.28125,4.09375,3.078125c0,1.203125-0.796875,2.164062-2.03125,2.453125v0.140625
		c1.5,0.28125,2.492188,1.421875,2.492188,2.859375c0,1.976562-1.851562,3.320309-4.5625,3.320309
		S299.583496,63.856068,299.583496,61.89513z M306.231934,61.67638c0-1.03125-0.859375-1.742188-2.101562-1.742188
		c-1.234375,0-2.09375,0.710938-2.09375,1.742188c0,1.023438,0.859375,1.734375,2.09375,1.734375
		C305.372559,63.410755,306.231934,62.699818,306.231934,61.67638z M305.903809,56.64513
		c0-0.914062-0.726562-1.554688-1.773438-1.554688s-1.765625,0.640625-1.765625,1.554688
		c0,0.90625,0.726562,1.546875,1.765625,1.546875C305.177246,58.192005,305.903809,57.55138,305.903809,56.64513z"/>
	<path fill="#27282C" d="M324.599121,64.902939h-2.421875l-1.539062-5.945309h-0.140625l-1.523438,5.945309h-2.390625
		l-2.296875-8.617184h2.304688l1.28125,6.179688h0.140625l1.507812-6.179688h2.171875l1.515625,6.179688h0.140625l1.28125-6.179688
		h2.257812L324.599121,64.902939z"/>
	<path fill="#27282C" d="M328.372559,53.692005c0-0.726562,0.585938-1.296875,1.289062-1.296875
		c0.710938,0,1.289062,0.570312,1.289062,1.296875s-0.578125,1.304688-1.289062,1.304688
		C328.958496,54.996693,328.372559,54.418568,328.372559,53.692005z M328.520996,56.285755h2.273438v8.617184h-2.273438V56.285755z"
		/>
	<path fill="#27282C" d="M336.013184,54.23888v2.132812h1.789062v1.789062h-1.789062v3.875c0,0.75,0.34375,1.09375,1.117188,1.09375
		c0.296875,0,0.453125-0.007812,0.671875-0.03125v1.734371c-0.28125,0.054688-0.703125,0.101562-1.140625,0.101562
		c-2.09375,0-2.921875-0.679688-2.921875-2.359371v-4.414062h-1.34375v-1.789062h1.34375V54.23888H336.013184z"/>
	<path fill="#27282C" d="M339.770996,52.996693h2.234375v4.703125h0.140625c0.398438-0.984375,1.335938-1.578125,2.601562-1.578125
		c1.851562,0,2.953125,1.164062,2.953125,3.234375v5.546871h-2.273438V59.89513c0-1.195312-0.554688-1.8125-1.585938-1.8125
		c-1.140625,0-1.796875,0.757812-1.796875,1.875v4.945309h-2.273438V52.996693z"/>
	<path fill="#27282C" d="M349.481934,60.590443c0-2.789062,1.617188-4.492188,4.242188-4.492188
		s4.242188,1.695312,4.242188,4.492188c0,2.820312-1.59375,4.499996-4.242188,4.499996S349.481934,63.410755,349.481934,60.590443z
		 M355.630371,60.590443c0-1.65625-0.703125-2.632812-1.90625-2.632812c-1.210938,0-1.90625,0.976562-1.90625,2.632812
		c0,1.679688,0.6875,2.640625,1.90625,2.640625C354.935059,63.231068,355.630371,62.262318,355.630371,60.590443z"/>
	<path fill="#27282C" d="M367.614746,64.902939h-2.203125V63.52013h-0.140625
		c-0.40625,0.999996-1.210938,1.570309-2.515625,1.570309c-1.859375,0-3.015625-1.187496-3.015625-3.187496v-5.617188h2.273438
		v5.03125c0,1.1875,0.539062,1.796875,1.585938,1.796875c1.132812,0,1.742188-0.710938,1.742188-1.859375v-4.96875h2.273438
		V64.902939z"/>
	<path fill="#27282C" d="M372.817871,54.23888v2.132812h1.789062v1.789062h-1.789062v3.875c0,0.75,0.34375,1.09375,1.117188,1.09375
		c0.296875,0,0.453125-0.007812,0.671875-0.03125v1.734371c-0.28125,0.054688-0.703125,0.101562-1.140625,0.101562
		c-2.09375,0-2.921875-0.679688-2.921875-2.359371v-4.414062h-1.34375v-1.789062h1.34375V54.23888H372.817871z"/>
	<path fill="#27282C" d="M382.356934,61.590443c0.015625,0.90625,0.609375,1.492188,1.515625,1.492188
		c0.96875,0,1.5-0.585938,1.5-1.695312v-7.757812h2.359375v7.773438c0,2.429688-1.4375,3.789059-3.828125,3.789059
		c-2.3125,0-3.828125-1.390621-3.828125-3.601559H382.356934z"/>
	<path fill="#27282C" d="M390.466309,64.902939V53.629505h2.359375v11.273434H390.466309z"/>
	<path fill="#27282C" d="M398.294434,64.902939V55.64513h-3.382812v-2.015625h9.125v2.015625h-3.382812v9.257809H398.294434z"/>
</g>
<rect x="336.678223" y="71.753036" fill="#27282C" width="1" height="326.943359"/>
<rect x="336.678223" y="416.040161" fill="#27282C" width="1" height="25.120117"/>
<rect x="121.478722" y="3.086093" fill="#505C90" width="12" height="12"/>
<rect x="121.478722" y="27.713093" opacity="0.6" fill="#979797" width="12" height="12"/>
</svg>
