<?xml version="1.0" encoding="utf-8"?>
<!-- Generator: Adobe Illustrator 24.3.0, SVG Export Plug-In . SVG Version: 6.00 Build 0)  -->
<svg version="1.1" id="Layer_1" xmlns="http://www.w3.org/2000/svg" xmlns:xlink="http://www.w3.org/1999/xlink" x="0px" y="0px"
	 viewBox="0 0 530.9 81.2" style="enable-background:new 0 0 530.9 81.2;" xml:space="preserve">
<style type="text/css">
	.st0{fill-rule:evenodd;clip-rule:evenodd;}
	.st1{fill-rule:evenodd;clip-rule:evenodd;fill:#FC7032;}
	.st2{fill:none;}
	.st3{fill:#FFFFFF;}
</style>
<g>
	<g>
		<polygon class="st0" points="120.4,12.5 123.5,12.5 123.5,27 120.9,27 114.2,17.9 114.2,27 111.2,27 111.2,12.5 114,12.5
			120.4,21.3 		"/>
	</g>
	<g>
		<path class="st0" d="M131.5,18.1c-0.7,0-1.2,0.2-1.7,0.6s-0.8,0.9-1,1.6h5.4c-0.2-0.7-0.6-1.2-1-1.6
			C132.8,18.2,132.2,18.1,131.5,18.1 M137.3,21.4c0,0.3,0,0.6-0.1,0.9h-8.5c0.1,0.8,0.4,1.4,0.9,1.8s1.1,0.6,1.8,0.6
			c0.5,0,1-0.1,1.4-0.3c0.4-0.2,0.7-0.5,1-1h3.2c-0.4,1.2-1.1,2.2-2.1,2.9c-1,0.7-2.2,1.1-3.5,1.1c-1.1,0-2.1-0.3-3-0.8
			c-0.9-0.5-1.6-1.2-2.1-2.1s-0.8-1.9-0.8-3s0.3-2.1,0.8-3s1.2-1.6,2.1-2.1c0.9-0.5,1.9-0.8,3-0.8s2.1,0.3,3,0.8s1.6,1.2,2.1,2.1
			C137.1,19.3,137.3,20.3,137.3,21.4 M145.1,24.3h1.4V27h-2.2c-1.2,0-2.2-0.4-2.9-1.1s-1.1-1.7-1.1-2.9v-4.8h-2v-0.6l4.4-4.7h0.6
			v2.9h3.1v2.4h-3v4.4c0,0.5,0.1,1,0.4,1.3C144.2,24.2,144.6,24.3,145.1,24.3 M154,24c0.8,0,1.5-0.3,2.1-0.8
			c0.5-0.6,0.8-1.2,0.8-2.1c0-0.8-0.3-1.5-0.8-2.1c-0.5-0.5-1.2-0.8-2.1-0.8c-0.8,0-1.5,0.3-2.1,0.8c-0.5,0.5-0.8,1.2-0.8,2.1
			c0,0.8,0.3,1.5,0.8,2.1C152.5,23.8,153.1,24,154,24L154,24z M157.8,15.8h2v9.9c0,1.8-0.5,3.1-1.5,4.2c-1,1-2.4,1.5-4.2,1.5
			c-1.5,0-2.8-0.4-3.8-1.1s-1.7-1.7-1.9-3h3c0.2,0.5,0.5,0.9,1,1.1c0.5,0.3,1.1,0.4,1.7,0.4c0.8,0,1.5-0.2,2-0.7s0.8-1.1,0.8-1.9
			v-0.4c-1,0.7-2,1-3.2,1c-1,0-2-0.2-2.8-0.7c-0.9-0.5-1.5-1.2-2-2c-0.5-0.9-0.7-1.8-0.7-2.9c0-1,0.2-2,0.7-2.8c0.5-0.9,1.2-1.5,2-2
			c0.9-0.5,1.8-0.8,2.8-0.8c1.5,0,2.7,0.5,3.7,1.4L157.8,15.8z M167.8,18.1c-0.7,0-1.2,0.2-1.7,0.6s-0.8,0.9-1,1.6h5.4
			c-0.2-0.7-0.6-1.2-1-1.6C169.1,18.2,168.5,18.1,167.8,18.1 M173.6,21.4c0,0.3,0,0.6-0.1,0.9H165c0.1,0.8,0.4,1.4,0.9,1.8
			s1.1,0.6,1.8,0.6c0.5,0,1-0.1,1.4-0.3c0.4-0.2,0.7-0.5,1-1h3.2c-0.4,1.2-1.1,2.2-2.1,2.9c-1,0.7-2.2,1.1-3.5,1.1
			c-1.1,0-2.1-0.3-3-0.8s-1.6-1.2-2.1-2.1s-0.8-1.9-0.8-3s0.3-2.1,0.8-3s1.2-1.6,2.1-2.1c0.9-0.5,1.9-0.8,3-0.8s2.1,0.3,3,0.8
			s1.6,1.2,2.1,2.1C173.4,19.3,173.6,20.3,173.6,21.4 M182.2,15.5c1.3,0,2.3,0.4,3,1.3c0.8,0.9,1.1,2,1.1,3.4V27h-3v-6.3
			c0-1.7-0.7-2.5-2-2.5c-0.8,0-1.4,0.3-1.8,0.8c-0.5,0.5-0.7,1.2-0.7,2.1V27h-3V15.8h2.1l0.6,1.4c0.4-0.5,1-0.9,1.6-1.2
			C180.7,15.7,181.4,15.5,182.2,15.5 M191.4,22.2c1.4,0,2.5,1.1,2.5,2.5s-1.1,2.5-2.5,2.5s-2.5-1.1-2.5-2.5
			C188.9,23.4,190,22.2,191.4,22.2"/>
	</g>
	<g>
		<path d="M146.1,40.2h2.1l-8.7,27.3h-1.7l-8.3-22.3l-8.2,22.3h-1.7l-8.9-27.3h2.1l7.7,24l8.5-23.1h0.9l8.7,23.1L146.1,40.2z"/>
		<path d="M157.3,65.7h13.4v1.9h-15.4V40.2h14.9v1.9h-12.9v10.3h11.9v1.8h-11.9V65.7z"/>
		<path d="M192.4,53.2c1.4,0.5,2.6,1.4,3.5,2.6c0.9,1.3,1.3,2.7,1.3,4.3c0,2.1-0.8,3.9-2.3,5.3s-3.5,2.1-5.8,2.1h-10.6V40.2H189
			c2.2,0,3.9,0.6,5.3,1.9c1.4,1.3,2.1,2.9,2.1,4.8c0,1.4-0.4,2.6-1.1,3.8S193.6,52.7,192.4,53.2z M189.2,42.2h-8.7v10.1h8.8
			c1.4,0,2.6-0.5,3.6-1.5s1.5-2.2,1.5-3.6c0-1.4-0.5-2.6-1.5-3.6C191.9,42.7,190.6,42.2,189.2,42.2z M189.3,65.6
			c1.7,0,3.1-0.5,4.2-1.6s1.7-2.4,1.7-4.1c0-1.6-0.6-2.9-1.7-4c-1.1-1.1-2.5-1.6-4.1-1.6h-8.9v11.4h8.8V65.6z"/>
		<path d="M225.9,67.9c-2.9,0-5.3-0.8-7.1-2.3s-2.7-3.6-2.7-6.2h2c0,2,0.7,3.6,2.1,4.8c1.4,1.2,3.3,1.8,5.6,1.8
			c2.1,0,3.8-0.5,5.2-1.6c1.3-1.1,2-2.5,2-4.2c0-0.4,0-0.8-0.1-1.2s-0.2-0.7-0.3-1s-0.3-0.6-0.6-0.8c-0.3-0.3-0.5-0.5-0.8-0.7
			s-0.5-0.4-1-0.5c-0.4-0.2-0.8-0.3-1-0.4c-0.3-0.1-0.7-0.2-1.2-0.4c-0.5-0.1-0.9-0.2-1.2-0.3s-0.7-0.2-1.3-0.3
			c-1.1-0.3-2-0.5-2.6-0.6c-0.6-0.2-1.4-0.4-2.3-0.8c-0.9-0.4-1.6-0.8-2.1-1.3s-0.9-1.1-1.3-1.8c-0.4-0.8-0.6-1.7-0.6-2.6
			c0-2.2,0.8-4,2.4-5.4c1.6-1.3,3.8-2,6.5-2s4.8,0.7,6.3,2.1c1.6,1.4,2.4,3.3,2.4,5.6h-2c0-1.8-0.6-3.2-1.9-4.3
			c-1.2-1.1-2.9-1.6-4.9-1.6c-2.1,0-3.8,0.5-5,1.5c-1.3,1-1.9,2.3-1.9,3.9c0,0.4,0,0.8,0.1,1.2s0.2,0.7,0.3,1s0.3,0.5,0.6,0.8
			s0.5,0.5,0.7,0.6c0.2,0.2,0.5,0.4,1,0.5c0.4,0.2,0.8,0.3,1,0.4c0.3,0.1,0.7,0.2,1.2,0.4c0.5,0.1,0.9,0.2,1.2,0.3s0.7,0.2,1.3,0.3
			c0.8,0.2,1.5,0.3,1.9,0.4c0.4,0.1,1,0.3,1.8,0.5c0.7,0.2,1.3,0.5,1.7,0.7s0.9,0.5,1.4,0.9s0.9,0.8,1.2,1.2s0.5,1,0.7,1.6
			s0.3,1.3,0.3,2.1c0,2.4-0.9,4.3-2.6,5.7C230.8,67.2,228.6,67.9,225.9,67.9z"/>
		<path d="M253.1,67.9c-3,0-5.5-1-7.4-3s-2.9-4.5-2.9-7.5V40.2h2v17.1c0,2.6,0.8,4.6,2.4,6.3c1.6,1.6,3.6,2.4,6,2.4
			c2.5,0,4.5-0.8,6-2.4c1.6-1.6,2.4-3.7,2.4-6.3V40.2h2v17.2c0,3-1,5.6-2.9,7.5C258.6,66.9,256.1,67.9,253.1,67.9z"/>
		<path d="M304.1,67.5h-2L298,43.8l-10.1,22.7h-0.6l-10.1-22.6L273,67.5h-2l4.8-27.3h1.8l9.9,22.5l10-22.5h1.9L304.1,67.5z"/>
		<path d="M343,67.5h-2l-4.1-23.7l-10.1,22.7h-0.6L316,43.8l-4.2,23.7h-2l4.8-27.3h1.8l9.9,22.5l10-22.5h1.9L343,67.5z"/>
		<path d="M352.9,65.7h13.4v1.9h-15.4V40.2h14.9v1.9h-12.9v10.3h11.9v1.8h-11.9V65.7z"/>
		<path d="M390.6,67.5L383.8,56h-7.7v11.5h-2V40.2h10.1c2.5,0,4.5,0.7,6.1,2.2s2.4,3.4,2.4,5.7c0,2-0.6,3.7-1.9,5.1
			c-1.2,1.4-2.9,2.3-4.9,2.6l6.9,11.6L390.6,67.5L390.6,67.5z M376.1,42.1v12.1h8c1.9,0,3.5-0.6,4.7-1.7c1.2-1.1,1.8-2.6,1.8-4.3
			c0-1.8-0.6-3.2-1.8-4.4c-1.2-1.1-2.8-1.7-4.7-1.7C384.1,42.1,376.1,42.1,376.1,42.1z"/>
		<path d="M425.5,67.9c-2,0-3.9-0.3-5.6-1s-3.2-1.7-4.4-2.9c-1.2-1.2-2.2-2.7-2.9-4.5c-0.7-1.7-1-3.6-1-5.6s0.3-3.9,1-5.6
			s1.7-3.2,2.9-4.5c1.2-1.2,2.7-2.2,4.4-2.9c1.7-0.7,3.6-1.1,5.6-1.1c3,0,5.7,0.8,8,2.4c2.3,1.6,3.8,3.8,4.7,6.5h-2
			c-0.9-2.2-2.2-3.9-4.1-5.2s-4.1-1.9-6.6-1.9c-2.3,0-4.3,0.5-6.2,1.6c-1.8,1-3.2,2.5-4.3,4.3c-1,1.8-1.5,3.9-1.5,6.3
			s0.5,4.4,1.5,6.3c1,1.8,2.4,3.3,4.3,4.3c1.8,1,3.9,1.5,6.2,1.5c2.6,0,4.8-0.7,6.8-2c1.9-1.3,3.3-3.1,4.1-5.5h2
			c-0.9,2.9-2.5,5.2-4.8,6.9C431.3,67.1,428.6,67.9,425.5,67.9z"/>
		<path d="M464.9,67.5l-3.2-7.5h-14.4l-3.1,7.5h-2.1l11.4-27.3h1.8l11.8,27.3H464.9z M454.4,43L448,58.3h13L454.4,43z"/>
		<path d="M504.9,67.5h-2l-4.1-23.7l-10.1,22.7H488l-10-22.7l-4.2,23.7h-2l4.8-27.3h1.8l9.9,22.5l10-22.5h1.9L504.9,67.5z"/>
		<path d="M522.2,40.2c2.5,0,4.5,0.8,6.2,2.4c1.7,1.6,2.5,3.6,2.5,6s-0.8,4.4-2.5,6s-3.7,2.4-6.2,2.4h-7.4v10.5h-2V40.2H522.2z
			 M522.1,55.1c2,0,3.6-0.6,4.9-1.9c1.3-1.2,1.9-2.8,1.9-4.6s-0.6-3.4-1.9-4.6c-1.3-1.2-2.9-1.8-4.9-1.8h-7.3v12.9H522.1z"/>
	</g>
	<g>
		<g>
			<path class="st1" d="M81.2,40.6C81.2,63,63,81.2,40.6,81.2S0,63,0,40.6S18.2,0,40.6,0S81.2,18.2,81.2,40.6"/>
		</g>
		<g>
			<path class="st2" d="M81.2,40.6C81.2,63,63,81.2,40.6,81.2S0,63,0,40.6S18.2,0,40.6,0S81.2,18.2,81.2,40.6"/>
		</g>
		<g>
			<path class="st2" d="M81.2,40.6C81.2,63,63,81.2,40.6,81.2S0,63,0,40.6S18.2,0,40.6,0S81.2,18.2,81.2,40.6"/>
		</g>
		<g>
			<g>
				<path class="st3" d="M5.6,61.2c2.2,3.8,5,7.1,8.3,10h53.3c3.3-2.9,6.1-6.2,8.3-10C75.5,61.2,5.6,61.2,5.6,61.2z"/>
			</g>
			<g>
				<path class="st3" d="M0.9,49.1c0.4,2.1,1,4.1,1.8,6h75.8c0.7-1.9,1.3-3.9,1.8-6H0.9z"/>
			</g>
		</g>
		<g>
			<g>
				<path d="M64.3,29v-2.7h8.8v6.4c0,2.5-0.9,4.6-2.6,6.4c-1.7,1.8-3.9,2.6-6.4,2.6H48.7c-1,0-1.9,0.4-2.6,1.1
					c-0.7,0.7-1.1,1.6-1.1,2.7v3.6h-8.2v-3.6c0-1-0.4-1.9-1.1-2.7c-0.7-0.7-1.6-1.1-2.7-1.1H17c-2.5,0-4.6-0.9-6.3-2.6
					c-1.7-1.8-2.6-3.9-2.6-6.3v-6.4h8.8V29c0,0.8,0.3,1.5,0.8,2s1.2,0.8,2,0.8h12.8c1.9,0,3.6,0.5,5.2,1.5c1.5,1,2.6,2.3,3.3,3.9
					c0.6-1.6,1.7-2.9,3.2-3.9s3.3-1.5,5.2-1.5h12.3c0.8,0,1.5-0.3,2-0.8C64,30.5,64.3,29.8,64.3,29z"/>
			</g>
		</g>
		<g>
			<path class="st2" d="M81.2,40.6C81.2,63,63,81.2,40.6,81.2S0,63,0,40.6S18.2,0,40.6,0S81.2,18.2,81.2,40.6"/>
		</g>
	</g>
</g>
</svg>
