<svg xmlns="http://www.w3.org/2000/svg" width="100" height="31"><path fill="#084887" d="M34.359.007a.34.34 0 01.294.51L24.45 18.19l-.004.004-3.398 5.888-3.4 5.891a.34.34 0 01-.295.17H10.55a.339.339 0 01-.295-.51l3.402-5.891 3.401-5.891 3.401-5.892v-.002l3.401-5.889.006-.01L27.262.178a.34.34 0 01.294-.17h6.803zm13.606 0a.34.34 0 01.294.51l-3.401 5.89-3.402 5.892-3.4 5.891-3.402 5.892-3.402 5.891a.339.339 0 01-.223.163l-.071.007h-6.803a.339.339 0 01-.294-.51l3.401-5.891 3.401-5.891 3.402-5.892v-.002l3.401-5.889L40.868.177a.34.34 0 01.294-.17h6.803zM58.46 22.933c1.093 0 1.845.462 2.356 1.043.08.1.13.23.13.351a.56.56 0 01-.57.552c-.151 0-.312-.06-.432-.19a2.016 2.016 0 00-1.484-.693c-1.314 0-2.286 1.003-2.286 2.397 0 1.383.972 2.396 2.286 2.396a1.97 1.97 0 001.484-.682c.12-.12.28-.19.441-.19a.548.548 0 01.431.892c-.511.582-1.263 1.043-2.356 1.043-1.976 0-3.51-1.404-3.51-3.46 0-2.055 1.534-3.459 3.51-3.459zm18.833.843V29.2c0 .321-.271.592-.612.592a.592.592 0 01-.592-.592v-4.472l-1.975 4.853a.349.349 0 01-.642 0l-1.965-4.853V29.2c0 .321-.27.592-.612.592a.59.59 0 01-.581-.592v-5.424c0-.412.34-.752.752-.752.511-.04.962.11 1.153.561l1.574 3.88 1.584-3.88a.91.91 0 01.853-.561c.541-.06 1.063.21 1.063.752zm5.125-.732c1.403 0 2.186.962 2.186 2.105 0 1.134-.793 2.096-2.186 2.096h-1.765V29.2c0 .321-.271.592-.612.592a.59.59 0 01-.581-.592v-5.434c0-.392.32-.722.722-.722h2.236zm-16.988-.06c.43-.02.842.23 1.002.631l2.096 5.314c.02.07.04.151.04.221 0 .311-.25.642-.642.642a.63.63 0 01-.581-.391l-.351-.933h-3.049l-.36.933a.62.62 0 01-.582.39.64.64 0 01-.642-.64c0-.071.01-.151.05-.222l2.086-5.314c.15-.381.522-.632.933-.632zm-37.875 1.608l-2.812 4.87h5.625l-.03-.05-1.766-3.058-1.017-1.762zm-13.605 0l-2.812 4.87h5.624l-2.812-4.87zm19.82-.34h-5.625l2.812 4.87 2.812-4.87zm-13.607 0H14.54l.853 1.479 1.96 3.392 2.811-4.871zm45.307-.005l-1.194 3.159h2.377l-1.183-3.16zm16.787-.15h-1.604v2.095h1.604c.652 0 1.123-.421 1.123-1.043 0-.642-.471-1.053-1.123-1.053zm-81.912.155a.34.34 0 01-.295-.51l3.402-5.891a.34.34 0 01.294-.17h6.803a.34.34 0 01.294.51l-3.4 5.89a.34.34 0 01-.295.17H.346zM17.352 18.7l-2.812 4.87h5.625l-.028-.046-.776-1.343-2.009-3.481zm13.606 0l-2.812 4.87h5.624l-2.812-4.87zm-27.211 0L.935 23.57h5.624l-2.812-4.87zm33.425-.34h-5.625l2.812 4.87 2.813-4.87zm-13.606 0H17.94l.164.284 2.649 4.586 2.812-4.87zm-13.605 0H4.336l2.813 4.87 2.812-4.87zm57.224-6.584c.331 0 .592.27.592.591v3.51c0 1.664-.953 2.767-2.908 2.767-1.945 0-2.898-1.113-2.898-2.757v-3.52c0-.32.26-.591.612-.591.33 0 .591.27.591.591v3.48c0 1.043.592 1.734 1.695 1.734 1.113 0 1.694-.691 1.694-1.734v-3.48c0-.32.271-.591.622-.591zm-9.717-.04c.803 0 1.805.25 2.246.731.08.09.12.211.12.322 0 .31-.29.55-.58.55-.111 0-.222-.03-.322-.1a2.837 2.837 0 00-1.564-.45c-.682 0-1.113.33-1.113.822 0 1.233 3.88.461 3.88 2.958 0 1.123-.782 2.075-2.587 2.075-.982 0-2.025-.32-2.476-.852a.518.518 0 01-.12-.331c0-.311.27-.571.57-.571.111 0 .232.03.322.1a2.867 2.867 0 001.755.602c.942 0 1.323-.472 1.323-.903 0-1.384-3.89-.521-3.89-2.988 0-1.113.962-1.965 2.436-1.965zm19.454.832v5.424c0 .322-.27.592-.611.592a.592.592 0 01-.592-.592v-4.471l-1.975 4.853a.349.349 0 01-.642 0l-1.965-4.853v4.471c0 .322-.271.592-.612.592a.59.59 0 01-.582-.592V12.57c0-.412.341-.752.752-.752.512-.04.963.11 1.153.561l1.575 3.88 1.584-3.88a.91.91 0 01.852-.561c.542-.06 1.063.21 1.063.752zm20.82-.732c1.323 0 2.185.862 2.185 2.105 0 1.184-.772 1.836-1.564 1.966l1.113 1.805c.05.09.08.19.08.29 0 .281-.24.582-.591.582-.2 0-.392-.1-.502-.29l-1.333-2.257h-1.154v1.955c0 .322-.27.592-.611.592a.59.59 0 01-.582-.592V12.56c0-.391.321-.722.722-.722h2.236zm-11.674.732v5.424c0 .322-.27.592-.612.592a.592.592 0 01-.591-.592v-4.471l-1.975 4.853a.349.349 0 01-.642 0l-1.966-4.853v4.471c0 .322-.27.592-.611.592a.59.59 0 01-.582-.592V12.57c0-.412.341-.752.752-.752.511-.04.963.11 1.153.561l1.575 3.88 1.584-3.88a.91.91 0 01.852-.561c.541-.06 1.063.21 1.063.752zm6.308-.732c.28 0 .512.23.512.531 0 .291-.231.522-.512.522h-2.948v1.704h2.878c.28 0 .511.231.511.532 0 .29-.23.521-.511.521h-2.878v1.825h2.948c.28 0 .512.23.512.512 0 .31-.231.54-.512.54h-3.42a.725.725 0 01-.721-.721v-5.244c0-.391.32-.722.722-.722h3.42zm-71.623.973l-2.812 4.87h5.625l-2.813-4.87zm13.606 0l-2.812 4.87h5.625l-.009-.014-1.492-2.584-1.312-2.272zm-7.392-.34h-5.624l1.166 2.02 1.633 2.828.013.022 2.812-4.87zm13.606 0h-5.625l1.22 2.112 1.593 2.758 2.812-4.87zm56.998.42h-1.595v2.095h1.595c.651 0 1.133-.41 1.133-1.043 0-.641-.482-1.052-1.133-1.052zM17.352 5.898a.34.34 0 01.295.51l-3.401 5.891a.338.338 0 01-.223.163l-.072.007H7.148a.34.34 0 01-.294-.51l3.401-5.891.043-.058.052-.048a.34.34 0 01.2-.064h6.802zm6.803 1.02l-2.812 4.871h5.624l-.003-.005-1.404-2.43-1.405-2.436zm-13.605 0L7.737 11.79h5.625l-.003-.005-1.404-2.43-1.405-2.436zm27.21 0l-2.812 4.871h5.625l-.003-.005-1.404-2.43-1.405-2.436zm6.214-.34H38.35l2.812 4.87 2.812-4.87zm-13.606 0h-5.624l2.812 4.87 2.812-4.87zm-13.605 0H11.14l2.812 4.87 2.812-4.87zM55.403.53c.29 0 .551.19.631.49l1.193 4.724 1.264-4.733a.62.62 0 01.602-.44c.26 0 .49.19.561.44l1.263 4.733 1.184-4.723a.648.648 0 01.641-.481c.371 0 .632.28.632.611 0 .06-.01.12-.02.171L61.79 6.787a.816.816 0 01-.783.591h-.02a.777.777 0 01-.762-.591l-1.153-4.372-1.153 4.372c-.08.35-.4.591-.762.591h-.02a.789.789 0 01-.772-.581l-1.564-5.485a.456.456 0 01-.03-.16c0-.311.26-.622.631-.622zm13.818.1c.28 0 .511.23.511.531 0 .291-.23.522-.51.522h-2.949v1.705h2.878c.28 0 .511.23.511.531 0 .29-.23.521-.511.521h-2.878v1.825h2.948c.28 0 .511.23.511.511 0 .311-.23.542-.51.542h-3.42a.725.725 0 01-.722-.722V1.352c0-.391.32-.722.722-.722h3.42zm5.716 0c1.234 0 1.905.772 1.905 1.704 0 .843-.541 1.404-1.163 1.534.712.11 1.294.823 1.294 1.645 0 1.033-.692 1.805-1.946 1.805H72.35a.725.725 0 01-.722-.722V1.352c0-.391.321-.722.722-.722h2.587zm-.2 3.8h-1.915v1.845h1.915c.631 0 1.013-.35 1.013-.922 0-.492-.351-.923-1.013-.923zM27.556 1.027l-2.812 4.87h5.625l-.014-.022-1.522-2.635-1.277-2.213zm13.606 0l-2.812 4.87h5.624l-2.812-4.87zM33.77.687h-5.625l1.066 1.848 1.747 3.023L33.77.687zm13.606 0H41.75l1.303 2.259 1.46 2.526.05.086L47.375.687zm27.31.986h-1.864v1.715h1.865c.591 0 .932-.361.932-.853 0-.491-.34-.862-.932-.862z"/></svg>