<svg xmlns="http://www.w3.org/2000/svg" xmlns:xlink="http://www.w3.org/1999/xlink" preserveAspectRatio="xMidYMid" width="137" height="30" viewBox="0 0 137 30">
  <defs>
    <style>
      .cls-1 {
        fill: #fff;
        fill-rule: evenodd;
      }
    </style>
  </defs>
  <path d="M135.750,5.577 L128.428,5.577 L129.681,0.000 L137.003,0.000 L135.750,5.577 ZM130.375,29.516 L123.053,29.516 L124.908,21.252 L129.939,17.070 L126.561,13.471 L127.854,8.134 L135.176,8.134 L130.375,29.516 ZM122.747,14.134 L118.717,14.134 L117.016,21.709 C116.811,22.620 116.754,23.223 116.844,23.517 C116.981,23.973 117.350,24.201 117.949,24.201 C118.489,24.201 119.284,24.027 120.334,23.678 L119.603,29.335 C117.693,29.778 115.952,29.999 114.381,29.999 C112.557,29.999 111.273,29.738 110.527,29.215 C109.781,28.692 109.320,27.898 109.146,26.832 C108.971,25.766 109.152,24.041 109.688,21.654 L111.377,14.134 L108.678,14.134 L110.025,8.134 L112.724,8.134 L113.606,4.208 L121.891,0.000 L120.064,8.134 L124.094,8.134 L122.747,14.134 ZM98.111,13.963 C97.645,13.500 96.933,13.268 95.973,13.268 C94.762,13.268 93.672,13.754 92.705,14.725 C91.737,15.697 91.032,17.167 90.590,19.137 C90.195,20.892 90.268,22.225 90.807,23.136 C91.346,24.047 92.191,24.503 93.343,24.503 C94.302,24.503 95.170,24.228 95.948,23.677 C96.725,23.127 97.403,22.281 97.984,21.140 L104.747,22.026 C103.998,23.650 103.053,25.056 101.911,26.244 C100.768,27.432 99.443,28.355 97.934,29.013 C96.425,29.670 94.621,29.999 92.522,29.999 C90.495,29.999 88.854,29.788 87.600,29.366 C86.345,28.943 85.339,28.259 84.579,27.314 C83.820,26.368 83.308,25.259 83.042,23.985 C82.777,22.711 82.880,21.021 83.353,18.916 C83.847,16.716 84.594,14.886 85.594,13.424 C86.326,12.351 87.214,11.389 88.257,10.538 C89.300,9.686 90.317,9.052 91.310,8.637 C92.885,7.980 94.788,7.651 97.019,7.651 C100.137,7.651 102.375,8.275 103.732,9.523 C105.088,10.772 105.827,12.597 105.947,15.000 L98.826,16.027 C98.815,15.114 98.577,14.426 98.111,13.963 ZM80.434,20.858 L65.754,20.858 C65.590,22.174 65.688,23.154 66.047,23.798 C66.547,24.724 67.366,25.187 68.506,25.187 C69.225,25.187 69.954,24.986 70.692,24.583 C71.145,24.328 71.672,23.879 72.273,23.234 L79.319,23.979 C77.734,26.127 76.056,27.667 74.288,28.600 C72.519,29.532 70.178,29.999 67.263,29.999 C64.732,29.999 62.831,29.600 61.559,28.801 C60.287,28.003 59.370,26.734 58.807,24.996 C58.244,23.258 58.226,21.214 58.753,18.865 C59.504,15.523 61.067,12.819 63.445,10.751 C65.822,8.685 68.696,7.651 72.066,7.651 C74.801,7.651 76.855,8.114 78.231,9.040 C79.606,9.966 80.510,11.309 80.942,13.067 C81.375,14.825 81.275,17.114 80.642,19.932 L80.434,20.858 ZM73.489,13.530 C73.025,12.845 72.290,12.503 71.282,12.503 C70.119,12.503 69.073,13.020 68.146,14.053 C67.557,14.698 67.059,15.657 66.653,16.933 L73.868,16.933 C74.079,15.349 73.953,14.215 73.489,13.530 ZM54.608,14.013 C53.648,14.013 52.805,14.456 52.078,15.342 C51.042,16.590 50.140,18.926 49.372,22.348 L47.762,29.516 L40.404,29.516 L45.205,8.134 L52.060,8.134 L51.273,11.638 C52.273,10.121 53.188,9.077 54.018,8.507 C54.848,7.936 55.778,7.651 56.810,7.651 C57.889,7.651 58.986,8.027 60.101,8.779 L56.523,14.617 C55.750,14.215 55.111,14.013 54.608,14.013 ZM33.708,5.577 L34.960,0.000 L42.283,0.000 L41.030,5.577 L33.708,5.577 ZM35.654,29.516 L28.332,29.516 L33.134,8.134 L40.456,8.134 L35.654,29.516 ZM24.993,21.996 C23.960,23.734 22.743,25.191 21.340,26.365 C19.937,27.540 18.538,28.321 17.143,28.710 C15.235,29.248 13.556,29.516 12.105,29.516 L-0.003,29.516 L6.625,0.000 L18.733,0.000 C21.119,0.000 22.966,0.363 24.273,1.088 C25.579,1.812 26.560,2.853 27.215,4.208 C27.870,5.564 28.212,7.141 28.240,8.940 C28.267,10.738 28.055,12.644 27.603,14.658 C26.895,17.812 26.024,20.258 24.993,21.996 ZM19.452,8.416 C18.799,7.262 17.418,6.685 15.307,6.685 L13.274,6.685 L9.652,22.811 L11.649,22.811 C13.352,22.811 14.611,22.600 15.426,22.177 C16.240,21.754 16.970,21.016 17.614,19.963 C18.259,18.909 18.846,17.201 19.377,14.839 C20.079,11.711 20.104,9.571 19.452,8.416 Z" class="cls-1"/>
</svg>
