<svg xmlns="http://www.w3.org/2000/svg" xmlns:xlink="http://www.w3.org/1999/xlink" viewBox="0 0 174 19">
    <defs>
        <polygon id="a" points="173.672 18.122 173.672 .328 78.256 .328 78.256 18.122"/>
    </defs>
    <g fill="none" fill-rule="evenodd">
        <path fill="#fff" d="M21.464837 9.14104237C21.464837 7.80966987 21.2668709 6.76672863 20.8712672 6.01385747 19.6641011 3.70640733 16.1529125 2.55202674 10.3399992 2.55202674L2.22798792 2.55202674 2.22798792 15.8982003 10.3399992 15.8982003C16.112203 15.8982003 19.612886 14.6881001 20.8407351 12.268555 21.2570219 11.4543922 21.464837 10.412762 21.464837 9.14104237M23.6926936 9.15644722C23.6926936 12.6962855 22.2655653 15.1751556 19.4126219 16.5924019 17.34432 17.6127275 13.0130332 18.1223987 9.02908981 18.1223987L1.10027094 18.1223987C.794621887 18.1223987.534935094 18.0158758.320882264 17.8008634.106829434 17.5874898.000131320755 17.3269184.000131320755 17.0204602L.000131320755 1.44484399C.000131320755 1.14920194.109784151.888630512.328761509.664112992.547738868.440250997.804799245.327828356 1.10027094.327828356L10.3334332.327828356C14.2763389.327828356 17.2881804.827994394 19.3666596 1.82734318 22.2504634 3.22492377 23.6926936 5.66806771 23.6926936 9.15644722M48.0266592 9.38607784C48.0266592 12.691238 46.9064932 15.0429361 44.6668177 16.4398611 42.865097 17.562121 36.7091083 18.1222676 36.6342555 18.1222676 33.0810442 18.1222676 30.4089951 17.562121 28.6171234 16.4398611 26.3774479 15.0429361 25.2576102 12.691238 25.2576102 9.38607784L25.2576102 1.44471288C25.2576102 1.14907084 25.3685762.88882717 25.5921498.66430965 25.8153951.440447655 26.0777083.327697251 26.3790894.327697251 26.679814.327697251 26.9395008.439464367 27.1578215.663326361 27.375814.887188356 27.4854668 1.14743202 27.4854668 1.44241854L27.4854668 9.36477326C27.4854668 10.6168272 27.6427234 11.6342029 27.9569083 12.417556 28.87878 14.7384444 31.7707913 15.8980692 36.6342555 15.8980692 41.5072404 15.8980692 44.4051611 14.7384444 45.3273611 12.417556 45.641546 11.6342029 45.7984743 10.6168272 45.7984743 9.36477326L45.7984743 1.44241854C45.7984743 1.14743202 45.9071423.887188356 46.125463.663326361 46.3437838.439464367 46.6034706.327697251 46.9048517.327697251 47.2055762.327697251 47.4678894.440447655 47.6911347.66430965 47.91438.88882717 48.0266592 1.14907084 48.0266592 1.44471288L48.0266592 9.38607784zM74.6646475 9.20200625C74.6646475 7.93159763 74.5014815 6.94470383 74.1764626 6.24296367 73.0159155 3.78277606 69.377674 2.55202674 63.2607532 2.55202674 57.2968211 2.55202674 53.6983042 3.72181218 52.4671721 6.05974426 52.0492438 6.85293024 51.8411004 7.90078792 51.8411004 9.20200625 51.8411004 10.5346898 52.0492438 11.5969691 52.4671721 12.390155 53.6983042 14.7287426 57.2968211 15.8982003 63.2607532 15.8982003 69.377674 15.8982003 73.0159155 14.6681065 74.1764626 12.2072634 74.5014815 11.5051955 74.6646475 10.5042079 74.6646475 9.20200625M76.8928325 9.21741111C76.8928325 12.0027394 75.9850777 14.1348364 74.1705532 15.6133744 72.1216211 17.2866036 68.4774702 18.1223987 63.2374438 18.1223987 58.0174438 18.1223987 54.3834702 17.2866036 52.335523 15.6133744 50.5203419 14.1348364 49.6132438 12.0027394 49.6132438 9.21741111 49.6132438 6.4638758 50.5203419 4.34718361 52.335523 2.86733456 54.4140023 1.17443968 58.0483042.327828356 63.2374438.327828356 68.4469381.327828356 72.0910891 1.17443968 74.1705532 2.86733456 75.9850777 4.34718361 76.8928325 6.4638758 76.8928325 9.21741111"/>
        <mask id="b" fill="white">
            <use xlink:href="#a"/>
        </mask>
        <path fill="#fff" d="M125.428951,10.6897544 L107.115943,10.6897544 L107.115943,9.03160237 C107.115943,7.72382879 107.283377,6.68449294 107.617917,5.91392259 C108.590018,3.67268054 111.472509,2.55205951 116.26506,2.55205951 C121.158071,2.55205951 124.066498,3.72840022 124.988041,6.08108162 C125.2822,6.82182555 125.428951,7.80511396 125.428951,9.03160237 L125.428951,10.6897544 Z M173.360698,0.651035256 C173.146973,0.426517736 172.883018,0.327861132 172.587547,0.327861132 L136.314456,0.327861132 C131.600369,0.327861132 129.243818,2.00371235 129.243818,5.35344819 C129.243818,8.69433445 131.680147,10.3642859 136.553788,10.3642859 L145.557796,10.3642859 C148.202268,10.3642859 149.794532,10.8169264 150.33426,11.7215517 C150.547656,12.0732412 150.654683,12.5452196 150.654683,13.1387981 C150.654683,14.3446374 150.064396,15.1492951 148.884151,15.5514601 C148.212445,15.7825328 147.103769,15.8982331 145.557796,15.8982331 L131.03372,15.8982331 C131.03372,15.8982331 127.576373,16.2958094 127.61183,12.9677059 C127.628902,11.3950999 127.605264,10.6015862 127.656807,9.06405089 C127.394494,4.77593013 126.537298,3.39801531 124.297294,2.0102676 C122.495245,0.888663288 119.817615,0.327861132 116.26506,0.327861132 C112.71152,0.327861132 110.039471,0.888663288 108.247928,2.0102676 C106.007924,3.39801531 104.888086,5.74938566 104.888086,9.06405089 C104.888086,9.06405089 104.933064,12.5075269 104.888086,12.8870762 C104.87003,15.9247819 102.506585,15.8615237 102.384128,15.8972498 C100.115234,15.8792229 95.4205166,15.8861059 91.894226,15.8861059 C86.1072487,15.8861059 82.557977,14.7815452 81.2460826,12.5717684 C80.737543,11.7271237 80.4834374,10.6068304 80.4834374,9.21154415 C80.4834374,7.82609078 80.737543,6.71169725 81.2460826,5.86639698 C82.557977,3.65727569 86.1072487,2.55205951 91.894226,2.55205951 C95.8502638,2.55205951 98.6726751,2.60581261 101.49246,2.60581261 C103.557479,2.60581261 103.53023,0.381286469 101.601128,0.381286469 C98.5035996,0.327205606 96.37686,0.327861132 91.8732147,0.327861132 C86.6564977,0.327861132 83.0241657,1.16431181 80.9762185,2.83688539 C79.1623506,4.31607892 78.2555808,6.44293175 78.2555808,9.21744388 C78.2555808,12.0027722 79.1623506,14.1348692 80.9762185,15.6130795 C83.0241657,17.2866363 86.6564977,18.1224315 91.8732147,18.1224315 C96.37686,18.1224315 102.633309,18.1034212 102.633309,18.1034212 C102.633309,18.1034212 106.989547,18.3387549 107.19769,12.8870762 C107.85889,12.8867485 125.428951,12.9142805 125.428951,12.9142805 C125.428951,12.9142805 125.068147,18.0227916 130.2934,18.1171873 C130.310471,18.1178428 130.326558,18.1224315 130.34363,18.1224315 L145.81223,18.1224315 C150.525332,18.1224315 152.882539,16.4616574 152.882539,13.1387981 C152.882539,9.80643364 150.449166,8.14008755 145.583075,8.14008755 L136.5922,8.14008755 C135.047539,8.14008755 133.935252,8.02307623 133.255011,7.7880703 C132.066558,7.37967784 131.471675,6.5632207 131.471675,5.33837111 C131.471675,4.76708054 131.588222,4.2872358 131.82263,3.89916464 C132.350868,3.00109456 133.940177,2.55205951 136.5922,2.55205951 L161.64426,2.55205951 L161.64426,17.0211485 C161.64426,17.3171183 161.756211,17.5747398 161.982083,17.7933576 C162.207298,18.0129587 162.473551,18.1224315 162.781169,18.1224315 C163.078283,18.1224315 163.333702,18.0159086 163.549396,17.8008962 C163.764434,17.5875226 163.872445,17.3269512 163.872445,17.0211485 L163.872445,2.55205951 L172.587547,2.55205951 C172.883018,2.55205951 173.137124,2.44520884 173.351177,2.22986868 C173.56523,2.01551181 173.672256,1.75428485 173.672256,1.44749887 C173.672256,1.15087353 173.574751,0.876536065 173.360698,0.651035256 L173.360698,0.651035256 Z" mask="url(#b)"/>
    </g>
</svg>
