<?xml version="1.0" encoding="utf-8"?>
<!-- Generator: Adobe Illustrator 21.1.0, SVG Export Plug-In . SVG Version: 6.00 Build 0)  -->
<svg version="1.1" id="Layer_1" xmlns="http://www.w3.org/2000/svg" xmlns:xlink="http://www.w3.org/1999/xlink" x="0px" y="0px"
	 viewBox="0 0 603.3 129.6" style="enable-background:new 0 0 603.3 129.6;" xml:space="preserve">
<style type="text/css">
	.st0{fill:#FFFFFF;}
	.st1{fill:#D8D8D8;}
</style>
<g>
	<g>
		<path class="st0" d="M236,86.3l-19.5-27.9h-15.2v27.9h-15.9V1.8H220c19.7,0,27,8.1,27,22.9v11.1c0,10.1-3.7,17.2-12.7,20.4
			l20.8,30.2L236,86.3L236,86.3z M219.3,15.9h-18v28.7h18c8.8,0,11.6-3.2,11.6-10.3v-8.4C230.9,18.9,227.7,15.9,219.3,15.9z"/>
		<path class="st0" d="M310,1.8h17L299.7,62v24.5h-15.9V62L256.4,1.8h17.1l18.4,42.7L310,1.8z"/>
		<path class="st0" d="M357.4,87.6c-9.7,0-20.8-2.4-26.4-5.1l2.8-12.6c7.9,2.4,15.6,3.9,24,3.9c11.6,0,13.5-2.4,13.5-10.5
			c0-9.4-0.2-10.1-15.6-13.5c-20.4-4.5-23.2-8.4-23.2-26.4c0-15.4,6.9-23.1,28.5-23.1c7.3,0,14.6,0.6,22.9,2.4v13.9
			c-6.9-1.5-15.2-2.6-22.7-2.6c-10.9,0-12.7,2.2-12.7,9.7c0,9.7,0.2,9.9,14.8,13.5c22.7,5.4,24,9.2,24,26
			C387,79.4,382.3,87.6,357.4,87.6z"/>
		<path class="st0" d="M419.1,15.9h-23.6V1.8h63.3v14.1H435v70.5h-15.9V15.9z"/>
		<path class="st0" d="M512.4,68.9h-31.5l-5.2,17.6h-16.9l26.8-84.7h22.5l26.6,84.7h-16.9L512.4,68.9z M485,55h23.4l-11.6-40.1
			L485,55z"/>
	</g>
	<polygon class="st0" points="155.6,86.3 174.5,86.3 141.9,43.6 172.6,1.8 154.1,1.8 129.5,35.5 125,35.5 125,1.8 109.1,1.8 
		109.1,86.3 125,86.3 125,51.7 129.7,51.7 	"/>
	<g>
		<polygon class="st0" points="565.1,72.3 565.1,1.8 548.9,1.8 548.9,86.3 593.9,86.3 603.3,72.3 		"/>
	</g>
</g>
<g>
	<path class="st1" d="M132.7,129.1h-4.8v-13h-13.4v13h-4.7V100h4.7v11.9h13.4V100h4.8V129.1z"/>
	<path class="st1" d="M158.5,118.1c0,3.6-0.9,6.4-2.8,8.4c-1.8,2-4.5,3.1-7.7,3.1c-2,0-3.8-0.5-5.5-1.4c-1.5-0.9-2.8-2.3-3.7-4
		c-0.9-1.8-1.3-3.7-1.3-6.1c0-3.6,0.9-6.4,2.8-8.4c1.8-2,4.5-3.1,7.8-3.1c3.2,0,5.7,1,7.5,3.1C157.6,111.9,158.5,114.6,158.5,118.1z
		 M142.5,118.1c0,5.1,1.9,7.7,5.6,7.7c3.7,0,5.6-2.6,5.6-7.7c0-5-1.9-7.5-5.6-7.5c-1.9,0-3.4,0.6-4.3,1.9S142.5,115.7,142.5,118.1z"
		/>
	<path class="st1" d="M182.4,129.1h-4.7v-13.5c0-1.7-0.4-2.9-1-3.8s-1.8-1.3-3.3-1.3c-2,0-3.4,0.6-4.3,1.8c-0.9,1.1-1.4,3.2-1.4,5.9
		v11H163v-22h3.7l0.6,2.9h0.3c0.6-1,1.7-1.9,2.8-2.4c1.3-0.5,2.6-0.9,4.1-0.9c5.2,0,7.9,2.7,7.9,8L182.4,129.1L182.4,129.1z"/>
	<path class="st1" d="M197.6,129.6c-3.4,0-6.1-1-8-3.1c-1.9-2-2.9-4.7-2.9-8.3c0-3.6,0.9-6.4,2.7-8.6c1.8-2,4.2-3.1,7.4-3.1
		c2.9,0,5.2,0.9,6.9,2.7c1.7,1.8,2.6,4.2,2.6,7.3v2.6h-14.7c0.1,2.2,0.6,3.8,1.8,5c1.1,1.1,2.7,1.8,4.6,1.8c1.3,0,2.6-0.1,3.7-0.4
		c1.1-0.3,2.3-0.6,3.6-1.3v3.8c-1.1,0.5-2.3,0.9-3.4,1.1C200.5,129.5,199.1,129.6,197.6,129.6z M196.8,110.2c-1.5,0-2.7,0.5-3.6,1.4
		c-0.9,0.9-1.4,2.3-1.7,4.1h10c0-1.8-0.5-3.2-1.3-4.1S198.2,110.2,196.8,110.2z"/>
	<path class="st1" d="M225.4,122.9c0,2.2-0.8,3.8-2.3,5c-1.5,1.1-3.8,1.8-6.8,1.8s-5.4-0.4-7-1.3v-4.1c2.6,1.1,5,1.8,7.3,1.8
		c2.9,0,4.3-0.9,4.3-2.6c0-0.5-0.1-1-0.5-1.4s-0.9-0.8-1.5-1.1c-0.8-0.4-1.8-0.9-3.1-1.4c-2.6-1-4.2-1.9-5.1-2.9
		c-0.9-1-1.4-2.3-1.4-3.8c0-1.9,0.8-3.3,2.3-4.3s3.6-1.5,6.3-1.5c2.6,0,5.1,0.5,7.4,1.5l-1.5,3.6c-2.4-1-4.3-1.5-6-1.5
		c-2.4,0-3.7,0.8-3.7,2.2c0,0.6,0.4,1.3,1,1.8s2,1.1,4.2,1.9c1.8,0.8,3.2,1.4,4,1.9c0.8,0.6,1.4,1.3,1.8,2
		C225.1,120.9,225.4,121.8,225.4,122.9z"/>
	<path class="st1" d="M237.8,125.8c1.1,0,2.3-0.1,3.4-0.5v3.6c-0.5,0.3-1.1,0.4-2,0.5c-0.8,0.1-1.7,0.3-2.6,0.3
		c-4.5,0-6.6-2.3-6.6-7v-11.9h-3.1v-2l3.2-1.7l1.7-4.7h2.9v4.8h6.3v3.6h-6.3v11.9c0,1.1,0.3,1.9,0.9,2.6
		C236.1,125.5,236.9,125.8,237.8,125.8z"/>
	<path class="st1" d="M243.9,126.7c0-1,0.3-1.7,0.8-2.3c0.5-0.5,1.3-0.8,2.2-0.8c1,0,1.7,0.3,2.2,0.8s0.8,1.3,0.8,2.2
		s-0.3,1.7-0.8,2.3c-0.5,0.5-1.3,0.8-2.2,0.8s-1.7-0.3-2.2-0.8C244.1,128.3,243.9,127.6,243.9,126.7z"/>
	<path class="st1" d="M269.8,117.5v11.6h-4.7V100h8.3c3.7,0,6.5,0.8,8.3,2.2c1.8,1.4,2.7,3.6,2.7,6.4c0,3.6-1.9,6.3-5.6,7.8
		l8.3,12.9h-5.5l-7-11.6L269.8,117.5L269.8,117.5z M269.8,113.5h3.3c2.2,0,3.8-0.4,4.8-1.3c1-0.8,1.5-2,1.5-3.7s-0.5-2.8-1.7-3.6
		s-2.7-1-4.8-1h-3.2v9.6H269.8z"/>
	<path class="st1" d="M299.4,129.6c-3.4,0-6.1-1-8-3.1c-1.9-2-2.9-4.7-2.9-8.3c0-3.6,0.9-6.4,2.7-8.6c1.8-2,4.2-3.1,7.4-3.1
		c2.9,0,5.2,0.9,6.9,2.7c1.7,1.8,2.6,4.2,2.6,7.3v2.6h-14.7c0.1,2.2,0.6,3.8,1.8,5c1.1,1.1,2.7,1.8,4.6,1.8c1.3,0,2.6-0.1,3.7-0.4
		s2.3-0.6,3.6-1.3v3.8c-1.1,0.5-2.3,0.9-3.4,1.1C302.2,129.5,300.9,129.6,299.4,129.6z M298.5,110.2c-1.5,0-2.7,0.5-3.6,1.4
		s-1.4,2.3-1.7,4.1h10c0-1.8-0.5-3.2-1.3-4.1C301.2,110.7,300,110.2,298.5,110.2z"/>
	<path class="st1" d="M317,129.1h-4.7v-31h4.7V129.1z"/>
	<path class="st1" d="M322.5,101.3c0-0.9,0.3-1.5,0.6-1.9c0.5-0.5,1.1-0.6,1.9-0.6s1.4,0.3,1.9,0.6c0.5,0.5,0.6,1.1,0.6,1.9
		s-0.3,1.4-0.6,1.9s-1.1,0.6-1.9,0.6c-0.9,0-1.5-0.3-1.9-0.6C322.8,102.8,322.5,102.1,322.5,101.3z M327.5,129.1h-4.7v-22h4.7V129.1
		z"/>
	<path class="st1" d="M347,129.1l-0.9-3.1H346c-1,1.4-2.2,2.3-3.2,2.7s-2.4,0.8-4.2,0.8c-2.2,0-3.8-0.6-5.1-1.8
		c-1.3-1.1-1.8-2.8-1.8-5c0-2.3,0.9-4,2.6-5.1s4.2-1.8,7.7-1.9l3.8-0.1v-1.1c0-1.4-0.4-2.4-1-3.2c-0.6-0.8-1.7-1-3.1-1
		c-1.1,0-2.2,0.1-3.2,0.5s-2,0.8-2.9,1.1l-1.5-3.3c1.1-0.6,2.6-1.1,4-1.4c1.4-0.4,2.8-0.5,4.1-0.5c2.8,0,5,0.6,6.4,1.8
		c1.4,1.3,2.2,3.2,2.2,5.7v14.9H347L347,129.1L347,129.1z M340.1,125.9c1.7,0,3.1-0.5,4.1-1.4s1.5-2.3,1.5-4v-1.9l-2.8,0.1
		c-2.2,0.1-3.8,0.5-4.8,1.1s-1.5,1.7-1.5,3.1c0,1,0.3,1.8,0.9,2.3C337.9,125.7,338.8,125.9,340.1,125.9z"/>
	<path class="st1" d="M367.3,106.8c2.8,0,4.8,1,6.4,2.9s2.3,4.8,2.3,8.4s-0.8,6.4-2.3,8.4c-1.5,2-3.7,3.1-6.5,3.1s-5-1-6.5-3.1h-0.4
		l-0.9,2.6h-3.6v-31h4.7v7.4c0,0.5,0,1.4-0.1,2.4c0,1-0.1,1.8-0.1,2h0.3C362.2,107.8,364.4,106.8,367.3,106.8z M366,110.6
		c-1.9,0-3.2,0.5-4.1,1.7s-1.3,2.9-1.3,5.6v0.4c0,2.7,0.4,4.6,1.3,5.9c0.9,1.1,2.3,1.8,4.2,1.8c1.7,0,2.9-0.6,3.8-1.9
		s1.3-3.2,1.3-5.7C371.1,113,369.5,110.6,366,110.6z"/>
	<path class="st1" d="M385.2,129.1h-4.7v-31h4.7V129.1z"/>
	<path class="st1" d="M400.6,129.6c-3.4,0-6.1-1-8-3.1s-2.9-4.7-2.9-8.3c0-3.6,0.9-6.4,2.7-8.6c1.8-2,4.2-3.1,7.4-3.1
		c2.9,0,5.2,0.9,6.9,2.7c1.7,1.8,2.6,4.2,2.6,7.3v2.6h-14.7c0.1,2.2,0.6,3.8,1.8,5c1.1,1.1,2.7,1.8,4.6,1.8c1.3,0,2.6-0.1,3.7-0.4
		s2.3-0.6,3.6-1.3v3.8c-1.1,0.5-2.3,0.9-3.4,1.1C403.4,129.5,402,129.6,400.6,129.6z M399.7,110.2c-1.5,0-2.7,0.5-3.6,1.4
		s-1.4,2.3-1.7,4.1h10c0-1.8-0.5-3.2-1.3-4.1C402.4,110.7,401.2,110.2,399.7,110.2z"/>
	<path class="st1" d="M412.9,126.7c0-1,0.3-1.7,0.8-2.3c0.5-0.5,1.3-0.8,2.2-0.8c1,0,1.7,0.3,2.2,0.8s0.8,1.3,0.8,2.2
		s-0.3,1.7-0.8,2.3c-0.5,0.5-1.3,0.8-2.2,0.8s-1.7-0.3-2.2-0.8C413.1,128.3,412.9,127.6,412.9,126.7z"/>
	<path class="st1" d="M453.3,108.8c0,3.1-1,5.4-2.9,7c-2,1.7-4.8,2.4-8.6,2.4h-3.1V129H434v-29h8.4c3.7,0,6.4,0.8,8.2,2.3
		C452.4,103.7,453.3,105.9,453.3,108.8z M438.8,114.3h2.6c2.4,0,4.2-0.4,5.4-1.3c1.1-0.9,1.7-2.2,1.7-4c0-1.7-0.5-2.9-1.5-3.7
		c-1-0.8-2.7-1.3-4.8-1.3h-3.3v10.2h-0.1V114.3z"/>
	<path class="st1" d="M467.4,129.6c-3.4,0-6.1-1-8-3.1s-2.9-4.7-2.9-8.3c0-3.6,0.9-6.4,2.7-8.6c1.8-2,4.2-3.1,7.4-3.1
		c2.9,0,5.2,0.9,6.9,2.7c1.7,1.8,2.6,4.2,2.6,7.3v2.6h-14.7c0.1,2.2,0.6,3.8,1.8,5s2.7,1.8,4.6,1.8c1.3,0,2.6-0.1,3.7-0.4
		s2.3-0.6,3.6-1.3v3.8c-1.1,0.5-2.3,0.9-3.4,1.1C470.2,129.5,468.8,129.6,467.4,129.6z M466.5,110.2c-1.5,0-2.7,0.5-3.6,1.4
		s-1.4,2.3-1.7,4.1h10c0-1.8-0.5-3.2-1.3-4.1S468,110.2,466.5,110.2z"/>
	<path class="st1" d="M491.5,106.8c0.9,0,1.7,0.1,2.3,0.3l-0.5,4.3c-0.6-0.1-1.4-0.3-2-0.3c-1.9,0-3.4,0.6-4.6,1.8
		c-1.1,1.3-1.8,2.8-1.8,4.7v11.5h-4.7v-22h3.7l0.6,3.8h0.3c0.8-1.3,1.7-2.3,2.8-3.2C488.8,107.2,490.1,106.8,491.5,106.8z"/>
	<path class="st1" d="M511.8,122.9c0,2.2-0.8,3.8-2.3,5c-1.5,1.1-3.8,1.8-6.8,1.8s-5.4-0.4-7-1.3v-4.1c2.6,1.1,5,1.8,7.3,1.8
		c2.9,0,4.3-0.9,4.3-2.6c0-0.5-0.1-1-0.5-1.4s-0.9-0.8-1.5-1.1c-0.8-0.4-1.8-0.9-3.1-1.4c-2.6-1-4.2-1.9-5.1-2.9s-1.4-2.3-1.4-3.8
		c0-1.9,0.8-3.3,2.3-4.3s3.6-1.5,6.3-1.5c2.6,0,5.1,0.5,7.4,1.5l-1.5,3.6c-2.4-1-4.3-1.5-6-1.5c-2.4,0-3.7,0.8-3.7,2.2
		c0,0.6,0.4,1.3,1,1.8s2,1.1,4.2,1.9c1.8,0.8,3.2,1.4,4,1.9c0.8,0.6,1.4,1.3,1.8,2C511.5,120.9,511.8,121.8,511.8,122.9z"/>
	<path class="st1" d="M535.4,118.1c0,3.6-0.9,6.4-2.8,8.4c-1.8,2-4.5,3.1-7.7,3.1c-2,0-3.8-0.5-5.5-1.4c-1.5-0.9-2.8-2.3-3.7-4
		c-0.9-1.8-1.3-3.7-1.3-6.1c0-3.6,0.9-6.4,2.8-8.4c1.8-2,4.5-3.1,7.8-3.1c3.2,0,5.7,1,7.5,3.1C534.5,111.9,535.4,114.6,535.4,118.1z
		 M519.4,118.1c0,5.1,1.9,7.7,5.6,7.7c3.7,0,5.6-2.6,5.6-7.7c0-5-1.9-7.5-5.6-7.5c-1.9,0-3.4,0.6-4.3,1.9S519.4,115.7,519.4,118.1z"
		/>
	<path class="st1" d="M559.2,129.1h-4.7v-13.5c0-1.7-0.4-2.9-1-3.8s-1.8-1.3-3.3-1.3c-2,0-3.4,0.6-4.3,1.8s-1.4,3.2-1.4,5.9v11h-4.7
		v-22h3.7l0.6,2.9h0.3c0.6-1,1.7-1.9,2.8-2.4c1.3-0.5,2.6-0.9,4.1-0.9c5.2,0,7.9,2.7,7.9,8L559.2,129.1L559.2,129.1z"/>
	<path class="st1" d="M578.6,129.1l-0.9-3.1h-0.1c-1,1.4-2.2,2.3-3.2,2.7s-2.4,0.8-4.2,0.8c-2.2,0-3.8-0.6-5.1-1.8
		c-1.3-1.1-1.8-2.8-1.8-5c0-2.3,0.9-4,2.6-5.1s4.2-1.8,7.7-1.9l3.8-0.1v-1.1c0-1.4-0.4-2.4-1-3.2c-0.6-0.8-1.7-1-3.1-1
		c-1.1,0-2.2,0.1-3.2,0.5s-2,0.8-2.9,1.1l-1.5-3.3c1.1-0.6,2.6-1.1,4-1.4c1.4-0.4,2.8-0.5,4.1-0.5c2.8,0,5,0.6,6.4,1.8
		c1.4,1.3,2.2,3.2,2.2,5.7v14.9H578.6L578.6,129.1L578.6,129.1z M571.6,125.9c1.7,0,3.1-0.5,4.1-1.4s1.5-2.3,1.5-4v-1.9l-2.8,0.1
		c-2.2,0.1-3.8,0.5-4.8,1.1s-1.5,1.7-1.5,3.1c0,1,0.3,1.8,0.9,2.3C569.6,125.7,570.5,125.9,571.6,125.9z"/>
	<path class="st1" d="M592.3,129.1h-4.7v-31h4.7V129.1z"/>
	<path class="st1" d="M597.4,126.7c0-1,0.3-1.7,0.8-2.3c0.5-0.5,1.3-0.8,2.2-0.8c1,0,1.7,0.3,2.2,0.8s0.8,1.3,0.8,2.2
		s-0.3,1.7-0.8,2.3c-0.5,0.5-1.3,0.8-2.2,0.8s-1.7-0.3-2.2-0.8C597.7,128.3,597.4,127.6,597.4,126.7z"/>
</g>
<g>
	<polygon class="st0" points="39.3,83.2 39.3,35.2 0.9,25.6 	"/>
	<polygon class="st0" points="19.5,0 0,19.5 42.2,30 84.4,19.5 64.9,0 	"/>
	<polygon class="st0" points="45,83.2 83.5,25.6 45,35.2 	"/>
</g>
</svg>
