<svg viewBox="0 0 194.5252 60" xmlns="http://www.w3.org/2000/svg"><path d="m194.5136 53.0605a2.4727 2.4727 0 0 0 -2.5021-2.7557 3.0726 3.0726 0 0 0 -2.9978 2.7557 2.4619 2.4619 0 0 0 2.502 2.7442 3.0531 3.0531 0 0 0 2.9979-2.7442zm-.392-.0346a2.673 2.673 0 0 1 -2.6059 2.3868 2.0784 2.0784 0 0 1 -2.11-2.3176 2.6738 2.6738 0 0 1 2.6058-2.3868 2.0846 2.0846 0 0 1 2.1101 2.3176zm-1.9025.369.4381 1.28h-.4266l-.4266-1.2449h-.6111l-.2306 1.2452h-.4036l.6111-3.24h1.0608a.84.84 0 0 1 .8648.8187 1.1974 1.1974 0 0 1 -.8763 1.1415zm.0115-1.5681h-.7379l-.2306 1.2106h.6687a.8175.8175 0 0 0 .761-.6457.4664.4664 0 0 0 -.4612-.5649zm-90.3268-27.69a7.5662 7.5662 0 0 1 -2.2233 5.5838c-1.9611 1.9468-5.1426 3.0083-8.968 2.9789a15.2636 15.2636 0 0 1 -7.0884-1.677l1.0459-5.4991a15.7922 15.7922 0 0 0 6.7372 1.8993c1.7854 0 2.9881-.8238 2.9881-2.1452 0-1.1979-.8454-2.035-3.005-3.0915-3.4159-1.7081-5.125-3.8735-5.125-6.4255 0-5.0214 4.277-8.4148 10.694-8.4148a12.7417 12.7417 0 0 1 6.8307 1.5867l-1.0435 5.4884a11.4448 11.4448 0 0 0 -6.1336-1.7485c-1.87 0-3.0883.7834-3.0883 2.0947 0 .9407.932 1.7836 2.905 2.7453 2.5709 1.2843 5.4742 3.1857 5.4742 6.6247zm-44.4787-16.7407c-9.04 0-15.8507 6.601-15.8507 15.3546 0 6.0454 4.017 9.949 10.2482 9.949a16.9035 16.9035 0 0 0 6.9238-1.3l1.142-6.0311a12.759 12.759 0 0 1 -6.0333 1.56c-2.2787 0-4.7231-1.3112-4.7231-4.9712 0-4.3129 3.0588-8.7888 8.1931-8.7888a7.8514 7.8514 0 0 1 3.9809.9477l1.1176-5.8638a13.9155 13.9155 0 0 0 -4.9985-.8564zm126.7526 19.68a16.08 16.08 0 0 0 8.4741-2.3914l-1.1552 6.0709a21.16 21.16 0 0 1 -9.0537 1.9457c-6.7111 0-10.5476-3.7322-10.5476-10.2483a16.0963 16.0963 0 0 1 3.7843-10.33 13.4687 13.4687 0 0 1 10.3819-4.7769c5.0771 0 8.4637 2.95 8.4637 7.323a6.63 6.63 0 0 1 -1.9543 4.9493c-2.4248 2.3631-8.401 3.6875-13.8438 2.6186-.2592 3.0672 2.0494 4.8393 5.4506 4.8393zm-4.6618-9.5184c4.2332.0348 6.6143-.3934 7.6534-1.4224 1.125-1.1178.7728-3.5128-2-3.5128-3.1208.0002-5.1074 2.5584-5.6534 4.9354zm-11.27-10.1618c-9.04 0-15.8507 6.601-15.8507 15.3546 0 6.0454 4.017 9.949 10.2482 9.949a16.904 16.904 0 0 0 6.9239-1.3l1.142-6.0311a12.7584 12.7584 0 0 1 -6.0333 1.56c-2.2788 0-4.7232-1.3111-4.7232-4.9712 0-4.3129 3.0588-8.7888 8.1931-8.7888a7.8508 7.8508 0 0 1 3.9809.9477l1.1177-5.8638a13.9186 13.9186 0 0 0 -4.9988-.8562zm-17.0379 11.1957-2.6011 13.613h-6.8893l.8952-4.6855a7.254 7.254 0 0 1 -7.2695 5.231c-4.7931 0-6.9592-4.2549-6.9617-8.5131a18.3989 18.3989 0 0 1 5.08-12.8137 13.7735 13.7735 0 0 1 9.9549-4.0775c2.927.0117 5.0921.8589 6.4489 2.5031 2.0086 2.4335 1.8438 6.0865 1.3426 8.7427zm-6.6328-3.1316c-.0841-1.7165-.9776-2.642-2.58-2.642-3.3928 0-6.332 5.8559-6.3294 9.9281.0009 2.5443.9439 4.1288 2.5847 4.1288 2.6242 0 4.8845-2.7444 5.662-6.7632a27.3775 27.3775 0 0 0 .6627-4.6517zm-104.1876 3.1316-2.6011 13.613h-6.8894l.8953-4.6855a7.2541 7.2541 0 0 1 -7.27 5.231c-4.793 0-6.9591-4.2549-6.9616-8.5131a18.3988 18.3988 0 0 1 5.08-12.8137 13.7737 13.7737 0 0 1 9.955-4.0775c2.9269.0117 5.0921.8589 6.4488 2.5031 2.0089 2.4335 1.8442 6.0865 1.343 8.7427zm-6.6328-3.1316c-.0841-1.7165-.9776-2.642-2.58-2.642-3.3927 0-6.3319 5.8559-6.3294 9.9281.001 2.5443.9439 4.1288 2.5848 4.1288 2.6242 0 4.8844-2.7444 5.6619-6.7632a27.3784 27.3784 0 0 0 .6627-4.6517zm94.1452 1.1428c0 5.9142-2.84 11.9782-7.9577 14.7067a11.484 11.484 0 0 1 -5.2433 1.4405c-2.5622 0-3.9986-.9579-4.8175-2.4347l-1.8322 9.6835h-7.2128l6.1235-32.205h6.3529l-.7427 3.9094a9.2147 9.2147 0 0 1 7.4616-4.3574c4.7732 0 7.8682 3.6177 7.8682 9.257zm-7.5012.5463c0-1.1464-.2707-3.9305-2.9126-3.9305-2.6865 0-4.9544 3.0607-5.8336 7.703-.3009 1.5872-1.1431 6.3531 2.1754 6.3531 3.7886 0 6.5708-5.3779 6.5708-10.1256zm-110.35-3.9437 1.0282-5.4116h-6.3526l-4.7244 24.8404h7.214l1.948-10.242c1.1486-6.0394 4.6135-8.4562 9.5446-7.71l1.4088-7.4093a9.9933 9.9933 0 0 0 -10.0669 5.9325zm57.8589 18.9992 2.4846-13.07 5.1143 13.07h7.7569l-5.2914-13.1746 9.63-11.2366h-7.8747l-9.2919 11.1138 3.5945-18.9072h-7.1638l-6.1229 32.2046zm82.9994 17.0765c0 3.5185-2.4361 6.5237-5.9524 6.5237a4.0123 4.0123 0 0 1 -4.2139-4.2553c0-3.4957 2.436-6.5236 5.9524-6.5236a4.0185 4.0185 0 0 1 4.2139 4.2552zm-7.6247 2.2043c0 1.4177.7409 2.4153 2.0117 2.4153 1.8441 0 3.0714-2.5416 3.0714-4.5989 0-1.0576-.4864-2.3718-1.97-2.3718-1.9686 0-3.1131 2.6285-3.1131 4.5554zm24.41-2.2043c0 3.5185-2.436 6.5237-5.9523 6.5237a4.0123 4.0123 0 0 1 -4.2139-4.2553c0-3.4957 2.436-6.5236 5.9524-6.5236a4.0185 4.0185 0 0 1 4.2135 4.2552zm-7.6247 2.2043c0 1.4177.741 2.4153 2.0118 2.4153 1.8441 0 3.0714-2.5416 3.0714-4.5989 0-1.0576-.4864-2.3718-1.97-2.3718-1.9689 0-3.1135 2.6285-3.1135 4.5554zm-5.47-9.6031-2.604 13.6907h2.4587l2.6229-13.6907zm-39.759 3.1643a6.5 6.5 0 0 0 -6.5443 6.6292 3.8745 3.8745 0 0 0 4.1725 4.1083 6.94 6.94 0 0 0 3.0412-.63l.407-2.14a5.5638 5.5638 0 0 1 -2.7714.7788 2.1575 2.1575 0 0 1 -2.2663-2.4132 4.1218 4.1218 0 0 1 3.8765-4.3422 3.7328 3.7328 0 0 1 1.9.481l.39-2.0515a5.6815 5.6815 0 0 0 -2.2052-.4204zm-14.09 7.753a2.8374 2.8374 0 0 1 -.2753-1.4632c3.9821.0848 6.7554-.7638 6.7554-3.4088 0-1.7385-1.2914-2.9017-3.3259-2.9017-3.5578 0-5.8448 3.3881-5.8448 6.5009 0 2.5208 1.3764 4.278 4.2366 4.278a8.0341 8.0341 0 0 0 3.8985-.9669l.4221-2.2207a6.2106 6.2106 0 0 1 -3.7493 1.24 2.2789 2.2789 0 0 1 -2.1176-1.0572zm2.8375-5.9317c.7844 0 1.3122.4015 1.3122 1.06 0 1.248-1.6309 1.5874-4.1725 1.5647a3.1788 3.1788 0 0 1 2.86-2.6247zm35.4536.9934a2.5087 2.5087 0 0 0 -2.6264-2.8354 4.4643 4.4643 0 0 0 -3.7674 2.1631l.3819-1.9934h-2.224l-1.9739 10.3774h2.4587l.9128-4.7644c.4449-2.4174 1.8606-3.771 2.9824-3.771.9748 0 1.2936.6126 1.2936 1.4819a6.8886 6.8886 0 0 1 -.1217 1.2294l-1.1077 5.8241h2.4587l1.1522-6.0145a9.6641 9.6641 0 0 0 .181-1.6972zm-14.2828-2.8354a4.3487 4.3487 0 0 0 -3.431 1.7063l.9292-4.85h-2.4776l-2.604 13.6907h2.4587l.9128-4.7644c.445-2.4174 1.8607-3.771 2.9825-3.771.9748 0 1.2935.6126 1.2935 1.4819a6.8885 6.8885 0 0 1 -.1216 1.2294l-1.1078 5.8241h2.4583l1.1523-6.0145a9.6736 9.6736 0 0 0 .1807-1.6972 2.5087 2.5087 0 0 0 -2.6263-2.8353zm-28.6289-2.423h-2.3988l-.5269 2.6548h-1.3764l-.36 1.9061h1.3785l-.89 4.5968a9.6081 9.6081 0 0 0 -.2132 1.9062c0 1.1859.7431 2.1173 2.436 2.1173a4.9224 4.9224 0 0 0 1.61-.2111l.372-1.9554a4.87 4.87 0 0 1 -.9867.093.8144.8144 0 0 1 -.9107-.9335 7.298 7.298 0 0 1 .19-1.4612l.8052-4.1518h2.31l.3808-1.9061h-2.31zm82.8613 16.825c1.8895.8741 3.7517.4872 5.102-1.9283v-.004l6.9-12.3h-2.6264l-3.9188 7.6784-.9516-7.6784h-2.5846l1.8383 10.1-.8047 1.6123a1.7874 1.7874 0 0 1 -2.5714.5067zm-3.357-14.402c-4.3864 0-6.6327 3.8782-6.6327 7.1417 0 1.8437.9112 3.645 3.1152 3.645a4.1542 4.1542 0 0 0 3.4288-1.8417l-.1976.9025c-.5071 2.3946-1.7365 3.1563-3.3466 3.1563a5.963 5.963 0 0 1 -2.7113-.6147l-.3827 2.0129a7.3284 7.3284 0 0 0 3.0423.5721 6.061 6.061 0 0 0 3.8522-1.1445c1.1772-.9728 1.7565-2.583 2.1412-4.5947l.9339-4.6783a8.5148 8.5148 0 0 0 .2118-1.78c-.0003-1.865-1.2931-2.7766-3.4548-2.7766zm.7842 4.4292-.1905.9536c-.4239 2.0769-1.7378 3.3908-3.0094 3.3908-1.1441 0-1.6319-.9535-1.6319-2.0769 0-2.0342 1.42-4.81 3.5814-4.81a1.2325 1.2325 0 0 1 1.3775 1.3139 5.2634 5.2634 0 0 1 -.1274 1.2286z"/></svg>