<svg class="fill-current stroke-current" xmlns="http://www.w3.org/2000/svg" viewBox="0 0 140.8 67.8" fill="white"><path d="M17.2 28.2c-1.6.1-3.2-.8-3.8-2.3l-1.9-4.7c-1.2-2.9-2.3-3-3.7-3.3-.9-.2-1.7-.3-2.6-.3V28H3.5c-1.8.2-3.4-1.1-3.5-2.9V2.6c2.2-.6 4.4-.9 6.7-1h2.9c5.2 0 8.6 3.1 8.6 7.5 0 3.6-2.3 6.5-5.4 6.9 1.5.8 2.6 2.1 3.2 3.7l2.1 4.9c.4 1 1 1.9 1.6 2.7-.6.7-1.1.9-2.5.9m-9.7-22c-.8 0-1.6.1-2.3.3v6.9c1.3.2 2.5.3 3.8.2 2.1 0 3.9-1.2 3.9-3.6 0-3.2-1.6-3.8-3.9-3.8H7.5zm20.4 13.7h-3.4c.4 2.6 2.8 4.2 5.8 4.2 2.1 0 4.6-.4 6.3-1.9h.2v1.6c0 2.6-1.8 4.6-7.4 4.6-5.6 0-10.1-4.6-10.1-10.2V18c0-6.7 4.2-11 10-11 4.4-.2 8.1 3.3 8.2 7.6v.4c0 3.8-2.8 5-9.6 4.9m1-8.6c-2.4 0-4.3 2-4.3 4.4v.7h2.2c4.8 0 6-.5 6-2 0-2.1-1.6-3.1-3.9-3.1M49 28.5c-5.4 0-9.6-4.7-9.6-10.4 0-6.7 3.3-11.1 9.3-11.1a6 6 0 0 1 5.1 3.2V.6h1.6c1.7-.2 3.3 1 3.5 2.8v15.2c0 5.9-2.8 9.9-9.9 9.9m-.3-17.2c-2.6 0-4.3 2.5-4.3 5.8 0 4.3 2.2 7 5.2 7s4.1-2.1 4.1-5.9c0-5-2.2-6.9-5-6.9m22.9 17.2a6 6 0 0 1-5.2-3v9.1h-1.6c-1.9 0-3.5-1.5-3.6-3.4V18.5C61.3 11.7 64.3 7 71.6 7c5.4 0 9.3 5 9.3 10.1 0 6.6-3.3 11.4-9.3 11.4m-.8-17c-2.8 0-4.4 2.4-4.4 6 0 4.1 2 6.4 5.1 6.4 2.5 0 4.2-2.2 4.2-5.5-.1-4.8-1.7-6.9-4.9-6.9m15-5.5c-1.7 0-3-1.3-3-3s1.3-3 3-3 3 1.3 3 3-1.3 3-3 3m3.6 22.2c-4 0-6.1-2.2-6.1-6.4V7.9h1.4c2.3 0 3.7 1.2 3.7 3.8v9.6c0 2.1.9 2.7 3.1 2.7h1v1.1c0 2.2-.9 3.1-3.1 3.1m11.2 0c-4.2 0-6.5-2.2-6.5-6.4V.6h1.4c2.6 0 3.7 1.5 3.7 3.4v17.3c0 2.1 1.1 2.7 3.5 2.7h1.4v1.1c-.1 2.2-1.3 3.1-3.5 3.1m11.2 0c-4.2 0-6.5-2.2-6.5-6.4V.6h1.4c2.6 0 3.7 1.5 3.7 3.4v17.3c0 2.1 1.1 2.7 3.5 2.7h1.4v1.1c0 2.2-1.2 3.1-3.5 3.1M46.4 61.6h-2c-6.1 0-9.5-3.4-9.5-9.7V35.2H37c2.1 0 3.2 1.2 3.2 3.8v12.5c0 4 .9 5.4 4.8 5.4h1.3a14 14 0 0 0 5.4-1v1.8c.2 2.4-1 3.9-5.3 3.9M56 39.4c-1.7 0-3-1.3-3-3s1.3-3 3-3 3 1.3 3 3-1.3 3-3 3m3.9 22.1c-4 0-6.1-2.2-6.1-6.4V41.2h1.5c2.3 0 3.7 1.2 3.7 3.8v9.6c0 2.1.9 2.7 3.1 2.7h1v1.1c-.2 2.3-1.1 3.1-3.2 3.1m21.6-.2c-2.3 0-3.7-1.5-3.7-3.3v-8.2c0-3.5-1.5-5-4.2-5-2.2 0-3.7 1.7-3.7 4.6v11.9h-1.5c-1.8.1-3.4-1.2-3.6-3.1V49c0-4.3 2.8-8.8 9.3-8.8 4.8 0 8.8 3.2 8.8 9.1v12h-1.4zm14.6.5c-2.1 0-4.1-1.2-5.2-3v9.1h-1.6c-1.9 0-3.5-1.5-3.6-3.4V51.9c0-6.8 3-11.5 10.3-11.5 5.4 0 9.3 5 9.3 10.1 0 6.5-3.3 11.3-9.2 11.3m-.9-17c-2.8 0-4.4 2.4-4.4 6 0 4.1 2 6.4 5.1 6.4 2.5 0 4.2-2.2 4.2-5.5 0-4.8-1.6-6.9-4.9-6.9m24.1 1c-.9-.4-2-.6-3-.6-2.3 0-3.5 1.3-3.5 4.4v11.8h-1.4c-2.3 0-3.7-1.1-3.7-3.3v-9.5c0-4.1 2.2-8 7.6-8 3.2 0 4.3 1.8 4.3 3.3v1.8l-.3.1zm11.8-5.5c-6.6 0-10.2 5-10.2 11.1 0 5.5 3.6 10.4 9.7 10.4 6.6 0 10.2-4.9 10.2-11.1 0-5.4-3.5-10.4-9.7-10.4m1.7 3.7c-1.7.1-3.3.6-4.8 1.3-3.7 1.8-4.3 4.3-4.1 2.9.7-4.8 4.8-5.7 7.3-5.4 1.5.3 2.1 1.1 1.6 1.2"/></svg>
