<svg width="136" height="96" viewBox="0 0 136 96" fill="none" xmlns="http://www.w3.org/2000/svg">
<g clip-path="url(#clip0_3_8)">
<path fill-rule="evenodd" clip-rule="evenodd" d="M68.0823 -2.3072e-06C57.4476 -0.0171044 47.1107 3.51154 38.7063 10.0279L43.2594 14.5755C50.4323 9.23543 59.1399 6.35854 68.0823 6.3744C77.3861 6.3744 85.974 9.42171 92.9024 14.5755L97.461 10.0279C89.0559 3.51096 78.7179 -0.0177147 68.0823 -2.3072e-06" fill="#2199E8"/>
<path fill-rule="evenodd" clip-rule="evenodd" d="M52.0969 23.3938C56.6967 20.2478 62.059 18.4073 68.0823 18.4073C74.037 18.4073 79.5749 20.2066 84.1746 23.2869L88.4425 19.0272C82.6097 14.5288 75.4482 12.0947 68.0823 12.107C60.416 12.107 53.3531 14.6853 47.7221 19.0272M60.3584 31.6416C62.7507 30.3216 65.4405 29.6343 68.1728 29.6448C70.965 29.6448 73.5982 30.325 75.9131 31.5319L79.904 27.5493C76.536 24.974 72.4125 23.5818 68.1728 23.5886C63.7294 23.5886 59.5986 25.1136 56.3374 27.6261M87.0601 55.6882V92.0037C104.049 84.6363 115.934 67.7403 115.934 48.0741C115.934 35.1278 110.789 23.3856 102.426 14.7675L98.0617 19.1177C105.517 26.8339 109.679 37.1472 109.667 47.8766C109.667 61.1301 103.443 72.9326 93.7554 80.5303V60.7269M42.4887 60.7241V80.5906C32.757 72.9929 26.4978 61.1657 26.4978 47.8766C26.4978 36.7625 30.8782 26.6688 38.0069 19.2192L33.5086 14.7675C24.8329 23.6822 19.9851 35.6347 20 48.0741C20 67.861 32.0274 84.8421 49.1813 92.1381V55.691M62.5664 72.5842V95.6462C66.2585 96.0588 69.9856 96.0468 73.675 95.6105V72.576" fill="#2199E8"/>
<path fill-rule="evenodd" clip-rule="evenodd" d="M68.1207 42.5911L96.3831 63.8482L100.676 59.2128L68.1179 34.7246L35.5657 59.2128L39.8583 63.8482" fill="#2199E8"/>
</g>
<defs>
<clipPath id="clip0_3_8">
<rect width="96" height="96" fill="white" transform="translate(20)"/>
</clipPath>
</defs>
</svg>
