<svg xmlns="http://www.w3.org/2000/svg" viewBox="0 0 96.89 78.87">
  <path d="M40.86 9.3h-.01a32.2 32.2 0 00-.65.14l-.22.04a39.48 39.48 0 00-.43.1l-.21.05a39.35 39.35 0 00-5.68 1.8l-.12.06L44.8 48.82l.47-.55 1.26-1.48zm14.98-.04l-4.1 31.45 3.32-3.88.66 1.05 7.36-26.51-.18-.07a37.97 37.97 0 00-6.55-1.94 39.84 39.84 0 00-.43-.09zm-35.33 10.9a34.93 34.93 0 00-3.03 3.42 41.1 41.1 0 00-1.8 2.48v.02L37.2 49.59l1.62-2.12.08.04zm55.45-.44l-15.91 25.1 1.81 2.9 19.26-21.8a35.29 35.29 0 00-2.9-3.82 38.85 38.85 0 00-2.26-2.38zM9.98 39.94a38.23 38.23 0 00-.72 7.54L32.2 56.1l1.79-2.33zm77.07.67L65.2 53.1l1.72 2.75 20.7-7.55v-.1a22.66 22.66 0 00.01-.66v-.44-.22-.14-.22l-.01-.21v-.22l-.01-.22-.01-.22-.01-.22-.01-.22-.02-.21-.01-.22-.02-.22-.01-.22-.02-.21-.02-.22-.02-.22-.02-.22-.02-.21a31.66 31.66 0 00-.37-2.6v-.04zM12.42 62.57a39.78 39.78 0 003.96 7.03h.01l6.73-1.48.14-.18h-.16l4.18-5.44zm58.83.21l3.24 5.39 6.05 1.36.05-.06a36.02 36.02 0 002.53-4.1A37.2 37.2 0 0084.27 63z" fill="#55f" paint-order="markers fill stroke"/>
  <g fill="#f5d">
    <path style="line-height:normal;font-variant-ligatures:normal;font-variant-position:normal;font-variant-caps:normal;font-variant-numeric:normal;font-variant-alternates:normal;font-variant-east-asian:normal;font-feature-settings:normal;font-variation-settings:normal;text-indent:0;text-align:start;text-decoration-line:none;text-decoration-style:solid;text-decoration-color:#000;text-transform:none;text-orientation:mixed;white-space:normal;shape-padding:0;shape-margin:0;inline-size:0;isolation:auto;mix-blend-mode:normal;solid-color:#000;solid-opacity:1" d="M55.53 35.83L44.12 48.86l-5.22-2.3-16.98 21.82h1.48l15.88-20.32 5.17 2.29 10.9-12.45c6.04 10.27 12.55 20.15 18.47 30.49h1.48z" color="#000" font-weight="400" font-family="sans-serif" overflow="visible"/>
    <path style="line-height:normal;font-variant-ligatures:normal;font-variant-position:normal;font-variant-caps:normal;font-variant-numeric:normal;font-variant-alternates:normal;font-variant-east-asian:normal;font-feature-settings:normal;font-variation-settings:normal;text-indent:0;text-align:start;text-decoration-line:none;text-decoration-style:solid;text-decoration-color:#000;text-transform:none;text-orientation:mixed;white-space:normal;shape-padding:0;shape-margin:0;inline-size:0;isolation:auto;mix-blend-mode:normal;solid-color:#000;solid-opacity:1" d="M55.32 39.73l-10.6 12.15-5.17-2.15-14.64 18.64h1.62l13.4-17.15 5.14 2.13L55.14 41.8l15.84 26.62 1.56-.03z" color="#000" font-weight="400" font-family="sans-serif" overflow="visible"/>
    <path d="M28.1 68.36l12.23-15.59 5.24 2.13 9.51-10.92 14.28 24.4z"/>
  </g>
</svg>
