<svg viewBox="0 0 55 38" fill="none" xmlns="http://www.w3.org/2000/svg">
    <path d="M7.65334 5.21541C7.65334 5.21541 10.3192 2.2665 12.1655 1.04434C12.7537 0.655316 17.1289 -1.64549 19.9384 6.27319C21.4755 10.6088 21.5011 13.8385 18.0074 15.2159C15.9152 16.0408 16.663 17.5853 16.663 17.5853" fill="white"/>
    <path d="M11.9101 0.685138C10.0372 1.92482 7.42251 4.80739 7.3122 4.92921C7.14873 5.11048 7.16789 5.38603 7.35616 5.54373C7.54393 5.70122 7.8293 5.68307 7.993 5.50159C8.01959 5.47218 10.6436 2.57939 12.4213 1.40312C12.4745 1.36724 13.7714 0.528692 15.3509 1.03328C17.0119 1.56416 18.4508 3.42503 19.5109 6.41399C21.1985 11.1731 20.698 13.6856 17.8368 14.8126C17.0114 15.1389 16.4679 15.6103 16.2221 16.2167C15.8977 17.0164 16.2394 17.7388 16.2542 17.7697C16.3585 17.9864 16.6237 18.0784 16.8489 17.9791C17.0746 17.8809 17.1749 17.6237 17.0742 17.4053C17.0725 17.4011 16.8795 16.9726 17.0676 16.5237C17.2223 16.1533 17.596 15.8481 18.1785 15.6191C22.4949 13.9167 21.6143 9.65492 20.3651 6.13176C19.1934 2.82908 17.6022 0.83616 15.6354 0.207038C13.6693 -0.421457 12.0839 0.570619 11.9101 0.685138Z" fill="#2D2F3D"/>
    <path d="M43.5019 6.92296H49.1008C49.5706 6.92296 49.9511 7.23439 49.9511 7.61737C49.9511 8.00056 49.5706 8.31137 49.1008 8.31137H44.7063L43.5019 6.92296Z" fill="white"/>
    <path d="M49.1008 7.35809C49.3358 7.35809 49.4992 7.49493 49.4992 7.61737C49.4992 7.73961 49.3358 7.87644 49.1008 7.87644C49.1008 7.87644 45.3003 7.87644 44.9173 7.87644C44.8273 7.7734 44.6927 7.61674 44.4681 7.35809C45.7912 7.35809 49.1008 7.35809 49.1008 7.35809ZM42.5362 6.48783L44.4953 8.74691H49.1008C49.819 8.74691 50.4026 8.24023 50.4026 7.61737C50.4026 6.9943 49.819 6.48783 49.1008 6.48783H42.5362Z" fill="#2D2F3D"/>
    <path d="M50.8334 5.30885C51.6032 4.94235 52.5028 5.03205 52.8449 5.50889C53.1853 5.98699 52.8378 6.66972 52.0682 7.03769C51.2999 7.40377 49.2857 7.84662 48.9442 7.36789C48.6023 6.89104 50.0649 5.67514 50.8334 5.30885Z" fill="white"/>
    <path d="M51.0329 5.69892C51.6301 5.41482 52.2857 5.49492 52.4727 5.75628C52.5247 5.8295 52.5368 5.91357 52.5097 6.01411C52.4614 6.19559 52.2671 6.45716 51.8674 6.64803C51.1252 7.00139 49.8071 7.20873 49.3999 7.10861C49.5501 6.77131 50.3746 6.01307 51.0329 5.69892ZM50.6334 4.91899C49.9897 5.225 48.6806 6.20059 48.4735 6.97177L48.5729 7.61487C49.1914 8.48304 51.6864 7.70519 52.2682 7.42755C52.8476 7.15116 53.2542 6.71561 53.384 6.23251C53.4769 5.88812 53.4174 5.54373 53.2164 5.26233C52.7449 4.60401 51.6111 4.4534 50.6334 4.91899Z" fill="#2D2F3D"/>
    <path d="M52.2009 8.12613C53.0262 8.40148 53.4859 9.03915 53.2312 9.55105C52.9743 10.0636 52.0987 10.2538 51.274 9.97762C50.4506 9.7029 48.7944 8.66702 49.05 8.15575C49.3068 7.64219 51.3775 7.85079 52.2009 8.12613Z" fill="white"/>
    <path d="M52.053 8.53706H52.0534C52.4968 8.68579 52.7395 8.93298 52.8182 9.11529C52.8781 9.25463 52.8376 9.3364 52.8238 9.3631C52.6882 9.63469 52.0589 9.77945 51.422 9.56648C50.6942 9.32388 49.7157 8.64032 49.5314 8.32576C49.8729 8.21145 51.2567 8.27069 52.053 8.53706ZM48.6435 7.96697L48.6439 8.59839C48.9618 9.3364 50.4287 10.1564 51.1265 10.3894C52.176 10.7409 53.2797 10.4557 53.6377 9.74128C53.7138 9.58713 53.7518 9.42171 53.7518 9.254C53.7518 9.09589 53.7184 8.93611 53.6512 8.77966C53.449 8.31136 52.9743 7.924 52.3486 7.71541C51.7243 7.50619 49.1152 7.02266 48.6435 7.96697Z" fill="#2D2F3D"/>
    <path d="M52.3216 6.54853C53.5462 6.5406 54.5437 6.98157 54.5483 7.53456C54.5543 8.08733 53.5673 8.54165 52.342 8.54958C51.1193 8.55792 48.3483 8.12968 48.3427 7.57732C48.337 7.02371 51.0987 6.55771 52.3216 6.54853Z" fill="white"/>
    <path d="M54.0968 7.53873C54.0968 7.55979 54.0772 7.60089 54.0223 7.65471C53.801 7.87227 53.179 8.10882 52.3393 8.11424C51.2892 8.12133 49.6282 7.8366 48.9891 7.57231C49.6236 7.29822 51.2765 6.99096 52.3251 6.98387H52.3247C53.4843 6.97615 54.0958 7.3925 54.0968 7.53873ZM52.3189 6.11298H52.3183C51.4287 6.11944 48.7868 6.43255 48.1091 7.0963L47.8914 7.5817C47.9039 8.86122 52.3009 8.98512 52.3454 8.98512C53.3308 8.97824 54.2204 8.70269 54.6666 8.26526C54.8879 8.04853 55.0029 7.79488 54.9999 7.53017C54.9931 6.69976 53.8653 6.10339 52.3189 6.11298Z" fill="#2D2F3D"/>
    <path d="M24.0058 20.7321V31.9091C24.0058 34.665 21.2694 35.6527 17.8947 35.6527C14.5194 35.6527 11.7844 34.665 11.7844 31.9091V20.6003" fill="white"/>
    <path d="M11.3329 20.6003V31.9091C11.3329 34.6043 13.6626 36.0881 17.8947 36.0881C22.1267 36.0881 24.4573 34.6043 24.4573 31.9091V20.7321C24.4573 20.4916 24.255 20.2966 24.0058 20.2966C23.7564 20.2966 23.5543 20.4916 23.5543 20.7321V31.9091C23.5543 34.6437 20.4771 35.2174 17.8947 35.2174C15.3133 35.2174 12.236 34.6437 12.236 31.9091V20.6003C12.236 20.3602 12.0336 20.1652 11.7844 20.1652C11.5352 20.1652 11.3329 20.3602 11.3329 20.6003Z" fill="#2D2F3D"/>
    <path d="M42.7011 20.8686V32.0453C42.7011 34.8017 39.9649 35.7889 36.59 35.7889C33.215 35.7889 30.4788 34.8017 30.4788 32.0453V20.7367" fill="white"/>
    <path d="M30.0271 20.7367V32.0453C30.0271 34.7399 32.3579 36.2242 36.59 36.2242C38.4949 36.2242 40.0223 35.9237 41.1304 35.3313C42.4531 34.6237 43.1525 33.4877 43.1525 32.0453V20.8686C43.1525 20.6283 42.9503 20.4334 42.7011 20.4334C42.4518 20.4334 42.25 20.6283 42.25 20.8686V32.0453C42.25 33.184 41.7401 34.0096 40.6919 34.5705C39.733 35.0826 38.3149 35.3536 36.59 35.3536C34.0081 35.3536 30.9307 34.7791 30.9307 32.0453V20.7367C30.9307 20.496 30.728 20.3012 30.4788 20.3012C30.2296 20.3012 30.0271 20.496 30.0271 20.7367Z" fill="#2D2F3D"/>
    <path d="M18.8645 5.46718C21.2446 9.33453 20.991 12.6015 17.8198 14.3141C15.9211 15.34 16.9664 16.6929 16.9664 16.6929" fill="#2D2F3D"/>
    <path d="M18.6344 5.09254C18.4195 5.2154 18.3483 5.48261 18.4761 5.68933C19.801 7.84098 20.2751 9.78968 19.848 11.3235C19.5443 12.4138 18.7868 13.2922 17.5995 13.9345C16.8489 14.3395 16.4012 14.8506 16.268 15.4526C16.0869 16.2707 16.5833 16.9255 16.6046 16.9528C16.7527 17.1445 17.0321 17.1833 17.2324 17.0425C17.4323 16.9015 17.4759 16.6297 17.3311 16.4357C17.3289 16.432 17.0537 16.0554 17.1529 15.6262C17.2324 15.2828 17.5311 14.9693 18.0404 14.6939C19.4491 13.9326 20.3511 12.8752 20.7204 11.549C21.2118 9.78321 20.7051 7.60319 19.2527 5.24481C19.1257 5.03789 18.8481 4.97009 18.6344 5.09254Z" fill="#2D2F3D"/>
    <path d="M32.7679 2.72541C32.7679 2.72541 28.8163 2.6789 14.3783 3.15699C-0.0587859 3.63489 0.474032 8.80866 0.451611 16.2388V34.1104C0.451611 35.622 1.76225 36.2318 3.37946 36.2318C4.99643 36.2318 6.30903 35.622 6.30903 34.1104C6.30903 34.1104 6.68188 29.0038 7.00377 25.8974C7.72387 14.6122 21.3552 27.753 31.2644 27.1398C40.269 26.582 47.3602 23.4758 47.3602 16.0938C47.3602 8.7102 42.713 2.72541 32.7679 2.72541Z" fill="white"/>
    <path d="M0.903059 34.1104V16.2388C0.903059 16.2405 0.9042 15.4514 0.9042 15.4514C0.906647 8.57857 0.908603 4.03809 14.3935 3.5917C28.6443 3.12027 32.7226 3.15991 32.7624 3.16011H32.7679C37.3083 3.16011 41.0081 4.468 43.4673 6.94194C45.7188 9.20603 46.9087 12.3706 46.9087 16.0938C46.9087 24.0617 38.3855 26.2624 31.2356 26.7055C27.4725 26.9378 23.0338 25.0784 19.1175 23.4374C14.7276 21.5984 10.9365 20.0104 8.6024 21.389C7.36952 22.117 6.69941 23.583 6.55347 25.8707C6.23621 28.9308 5.86214 34.028 5.85865 34.0799C5.85759 35.5772 4.30495 35.7966 3.37946 35.7966C2.45488 35.7966 0.903059 35.5772 0.903059 34.1104ZM14.3631 2.72227C0.00570559 3.19724 0.00326132 8.33702 0.00114146 15.4507L0 16.2375V34.1104C0 35.7112 1.26352 36.6679 3.37946 36.6679C5.49728 36.6679 6.76063 35.7112 6.76063 34.1104C6.76324 34.0893 7.13552 29.0044 7.45326 25.9403C7.58119 23.9405 8.11114 22.7004 9.07396 22.1312C11.0082 20.9895 14.7713 22.5663 18.7576 24.2361C22.7677 25.9161 27.3124 27.8206 31.2934 27.5741C41.9455 26.9138 47.8117 22.8369 47.8117 16.0938C47.8117 12.1422 46.5347 8.76944 44.1193 6.33931C41.4859 3.69036 37.5604 2.28986 32.7679 2.28986H32.7733C32.7339 2.28939 28.6456 2.24835 14.3631 2.72227Z" fill="#2D2F3D"/>
    <path d="M27.8424 25.8598V33.8194C27.8424 36.5754 25.1054 37.5651 21.7305 37.5651C18.3555 37.5651 15.62 36.5754 15.62 33.8194V21.7044" fill="white"/>
    <path d="M15.1685 21.7044V33.8194C15.1685 36.5155 17.4995 38 21.7305 38C25.9628 38 28.2941 36.5155 28.2941 33.8194V25.8598C28.2941 25.6195 28.0914 25.4245 27.8424 25.4245C27.5934 25.4245 27.3909 25.6195 27.3909 25.8598V33.8194C27.3909 36.5555 24.3131 37.1296 21.7305 37.1296C19.1492 37.1296 16.0715 36.5555 16.0715 33.8194V21.7044C16.0715 21.4641 15.8693 21.2693 15.62 21.2693C15.3707 21.2693 15.1685 21.4641 15.1685 21.7044Z" fill="#2D2F3D"/>
    <path d="M46.5439 20.3901V33.5082C46.5439 36.264 43.8071 37.2531 40.4322 37.2531C37.0569 37.2531 34.3218 36.264 34.3218 33.5082V25.971" fill="white"/>
    <path d="M46.0918 20.39V33.5082C46.0918 36.2439 43.0139 36.8177 40.4322 36.8177C37.8511 36.8177 34.7735 36.2439 34.7735 33.5082V25.971C34.7735 25.7307 34.5712 25.5355 34.3218 25.5355C34.0726 25.5355 33.8703 25.7307 33.8703 25.971V33.5082C33.8703 36.2038 36.2008 37.6888 40.4322 37.6888C44.6641 37.6888 46.9949 36.2038 46.9949 33.5082V20.39C46.9949 20.1495 46.7931 19.9551 46.5439 19.9551C46.2943 19.9551 46.0918 20.1495 46.0918 20.39Z" fill="#2D2F3D"/>
    <path d="M11.9365 4.07647C11.9365 4.07647 15.5167 1.61652 17.778 0.773379C18.4988 0.5045 23.699 -0.868472 24.542 8.10528C25.0029 13.0187 24.173 16.4124 20.1415 17.0271C17.7289 17.3955 18.1024 19.1925 18.1024 19.1925" fill="white"/>
    <path d="M17.6146 0.367448C15.327 1.22081 11.8227 3.62007 11.6742 3.72207C11.4715 3.86141 11.4241 4.13342 11.569 4.32887C11.7135 4.52453 11.9959 4.57001 12.1987 4.43046C12.234 4.40689 15.7589 1.99303 17.9401 1.17909C18.0084 1.15406 19.6137 0.573331 21.1544 1.49553C22.7585 2.45611 23.7741 4.75482 24.0931 8.1447C24.6009 13.5623 23.398 16.0897 20.0711 16.5976C19.128 16.7411 18.4415 17.1028 18.0298 17.6737C17.4893 18.4211 17.6522 19.2436 17.6599 19.2784C17.7089 19.5123 17.9439 19.6631 18.1872 19.6182C18.4308 19.5736 18.5907 19.3456 18.546 19.1105C18.5449 19.1063 18.4551 18.5999 18.7775 18.1618C19.0447 17.7991 19.5272 17.5617 20.2122 17.4568C25.1584 16.7025 25.3652 12.0419 24.9927 8.06606C24.6422 4.34076 23.5105 1.88122 21.6312 0.75627C19.7444 -0.373271 17.8275 0.288183 17.6146 0.367448Z" fill="#2D2F3D"/>
</svg>
